<svg xmlns="http://www.w3.org/2000/svg" width="388.685" height="265.271" viewBox="0 0 388.685 265.271">
  <g id="cloud-footer" transform="matrix(0.974, -0.225, 0.225, 0.974, -241.114, -85.852)" opacity="0.38">
    <path id="Path_24781" data-name="Path 24781" d="M552.357,359.239c.79,4.978-.034,9.783-3.479,13.688-5.286,5.994-16.961,5.893-23.254,1.926-1.329-.838-8.451-5.53-11.52-11.714-6.937,9.787-17.3,17.839-29.239,19.057-12.977,1.325-22.676-6.166-27.878-17.223-3.161,6.338-9.993,10.786-18.608,11.13-6.714.266-15.5-2.023-19.321-7.515-2.5,10.215-8.907,19.081-19.581,21.868a27.055,27.055,0,0,1-27.8-9.731c-7.161,14.106-21.57,25.129-37.388,25.266s-31.555-12.689-31.941-28.5c-14.839,4.661-34.95-.036-41.885-8.954-10.569,11.419-32.813,7.092-38.331-7.457-5.223.5-10.644.988-15.59-.765s-9.276-6.42-8.853-11.649c.391-4.843,4.555-12.158,9.734-16.492,8.881-7.435,20.161-9.854,29.7-3.286-1.385-13.7,7.579-27.779,20.582-32.319s28.78.9,36.226,12.483a23.694,23.694,0,0,1,26.331-10.457,20.913,20.913,0,0,1,24.023-31.082c-10.685-8.142-11.948-25.973-2.519-35.541s27.276-8.563,35.573,2c15.44-17.837,43.964-24.343,63.88-11.7,19.731,12.526,25.743,42.33,12.408,61.524a24.6,24.6,0,0,1,25.687,2.341c6.735,5.2,9.91,13.836,9.437,22.186a25.748,25.748,0,0,1,11.98-.047c3.55.956,6.175,4.143,7.335,7.633s1.061,7.264.724,10.926c7.3-1.286,12.478.76,14.888,3.288,3.761,3.95,4.534,8.312,4.944,12.442,5.713-1.783,13.181,1.108,15.953,3.039C548.577,348.391,551.5,353.883,552.357,359.239Z" transform="translate(0 0)" fill="#e6f5ff"/>
    <path id="Path_24782" data-name="Path 24782" d="M513.836,295.144c-3.406,5.75-15.788,12.97-27.377,8.151-10.683-4.442-15.225-16.965-9.6-30.878a30.711,30.711,0,0,0,2.934-5.855,53.375,53.375,0,0,1-16.565,13.245,59.182,59.182,0,0,1-19.7,6.076,54,54,0,0,1-20.477-1.282A57.2,57.2,0,0,1,404,275.23a38.568,38.568,0,0,0,17.573,13.786,45.889,45.889,0,0,0,22.693,2.809c1.523-.185,3.028-.464,4.523-.793,1.774,5.026-1.617,11.087-10.266,13.466-9.729,2.674-24.809.12-30.829-6.866-1.954,5.994-6.746,15.657-23.125,16.619-11.868.7-25.7-5.118-23.645-18.737,9.128-2.292,17.079-8.522,20.966-16.6a63.69,63.69,0,0,1-12.687,7.936A42.454,42.454,0,0,1,355.59,290.6a30.5,30.5,0,0,1-13.647-1.654,24.482,24.482,0,0,1-11.34-8.819c5.073,21.364-12.824,29.467-23.657,27.444-9.854-1.843-17.839-8.065-17.511-16.886.146-.062.3-.112.442-.174a36.115,36.115,0,0,0,15.3-11.669,63.888,63.888,0,0,1-16.821,7.249,61.414,61.414,0,0,1-17.581,1.9,55.231,55.231,0,0,1-17.257-3.4,41.848,41.848,0,0,1-15.148-9.845c2.36,5.977,7.382,10.887,13.157,14.055a39.668,39.668,0,0,0,9.42,3.756c5.442,1.3.947,9.809-11.5,9.888-8.316.054-18.065-4.577-20.116-12.828-6.007,8.958-26.954,13.015-31.671,1.46.054,4.9,4.182,9.186,8.874,10.848,4.946,1.753,10.367,1.269,15.59.765,5.515,14.549,27.762,18.877,38.331,7.457,6.935,8.917,27.047,13.615,41.885,8.954.387,15.814,16.123,28.642,31.941,28.5s30.227-11.16,37.388-25.266a27.055,27.055,0,0,0,27.8,9.731c10.674-2.788,17.083-11.654,19.581-21.868,3.816,5.492,12.607,7.781,19.321,7.515,8.615-.344,15.447-4.792,18.608-11.13,5.2,11.057,14.9,18.548,27.878,17.223,11.935-1.218,22.3-9.27,29.239-19.057,3.069,6.183,10.191,10.876,11.52,11.714,6.293,3.967,17.968,4.066,23.254-1.926a15.134,15.134,0,0,0,3.739-10.464C547.589,319.472,520.468,310.767,513.836,295.144Z" transform="translate(0.004 58.382)" fill="#9cdaff"/>
    <path id="Path_24783" data-name="Path 24783" d="M324.627,240.989a68.486,68.486,0,0,1,16.636,5.045,36.015,36.015,0,0,0-15.593-9.433,41.54,41.54,0,0,0-35.955,5.35,36.121,36.121,0,0,0-12.18,13.552,68.232,68.232,0,0,1,14.448-9.673,53.936,53.936,0,0,1,32.644-4.841Z" transform="translate(91.679 21.793)" fill="#fff"/>
    <path id="Path_24784" data-name="Path 24784" d="M542.56,345.6c-2.773-1.931-10.24-4.822-15.953-3.039-.41-4.13-1.183-8.492-4.944-12.442-2.41-2.528-7.588-4.575-14.888-3.288.337-3.662.434-7.435-.724-10.926s-3.784-6.677-7.335-7.633a25.748,25.748,0,0,0-11.98.047c.472-8.35-2.7-16.989-9.437-22.186a24.6,24.6,0,0,0-25.687-2.341c13.335-19.194,7.324-49-12.408-61.524-19.916-12.644-48.44-6.138-63.88,11.7-8.3-10.565-26.144-11.568-35.573-2s-8.166,27.4,2.519,35.541a20.913,20.913,0,0,0-24.023,31.082,23.7,23.7,0,0,0-26.331,10.455c-7.446-11.585-23.224-17.021-36.226-12.481s-21.967,18.617-20.582,32.319c-9.54-6.568-20.82-4.149-29.7,3.286a30.676,30.676,0,0,0-5.994,7.008,39.258,39.258,0,0,1,36.1-9.418c4.216-13.488,15.661-20.79,27.579-22.195a38.657,38.657,0,0,1,32.5,12.1c1.705-5.318,7.073-10.644,13.75-12.425,4.83-1.286,12.186-.262,16.291,2.515a28.415,28.415,0,0,0-4.248,7,71.77,71.77,0,0,1,14.549-8.492,65.083,65.083,0,0,1,15.38-4.427,67.064,67.064,0,0,1,16.007-.631,63.924,63.924,0,0,1,16.419,3.552c-3.8-4.665-9.4-7.8-15.285-9.506a41.693,41.693,0,0,0-13-1.538,46.7,46.7,0,0,0-26.409,2.375c.019-13.14,12.474-24.922,25.595-24.211-6.007-7.9-4.6-20.436,3.011-26.806s20.2-5.545,26.918,1.759a34.948,34.948,0,0,1,63.215,11.177c2.322,9.841-.818,19.92-7.079,27.762a58.957,58.957,0,0,0-8.125,1.155,53.224,53.224,0,0,0-18.007,7.485c-5.421,3.621-10.2,8.518-12.742,14.435A69.813,69.813,0,0,1,417.48,301.7a93.767,93.767,0,0,1,16.757-5.253,114.848,114.848,0,0,1,17.506-2.421,95.283,95.283,0,0,1,18.237.556c5.878,1.559,14.349,11.583,11.016,21.207,3.952-4.044,9.338-5.5,13.9-2.165s9.381,13.726,1.834,24.323c6.186-1.624,13.5-6.982,19.476-4.712,5.275,2,7.442,7.483,8.305,12.1,10.5-2.781,19.343,1.725,24.626,9.424A19.455,19.455,0,0,0,542.56,345.6Z" transform="translate(2.013 0)" fill="#fff"/>
  </g>
</svg>
