<svg xmlns="http://www.w3.org/2000/svg" xmlns:xlink="http://www.w3.org/1999/xlink" width="715.966" height="761.025" viewBox="0 0 715.966 761.025">
  <defs>
    <linearGradient id="linear-gradient" x1="156.373" y1="-210.069" x2="155.764" y2="-238.815" gradientUnits="objectBoundingBox">
      <stop offset="0" stop-color="#fefefe"/>
      <stop offset="1" stop-color="#c9e6fe"/>
    </linearGradient>
    <linearGradient id="linear-gradient-2" x1="590.825" y1="-371.155" x2="582.628" y2="-383.977" gradientUnits="objectBoundingBox">
      <stop offset="0" stop-color="#4b8dc2"/>
      <stop offset="1" stop-color="#346e9c"/>
    </linearGradient>
    <linearGradient id="linear-gradient-3" x1="374.783" y1="-785.17" x2="358.482" y2="-775.822" gradientUnits="objectBoundingBox">
      <stop offset="0" stop-color="#346e9c"/>
      <stop offset="1" stop-color="#4b8dc2"/>
    </linearGradient>
    <linearGradient id="linear-gradient-4" x1="827.913" y1="-516.639" x2="827.009" y2="-547.475" gradientUnits="objectBoundingBox">
      <stop offset="0" stop-color="#ffa6a2"/>
      <stop offset="1" stop-color="#f7c5c3"/>
    </linearGradient>
    <linearGradient id="linear-gradient-5" x1="213.413" y1="-2735.653" x2="213.414" y2="-2681.26" gradientUnits="objectBoundingBox">
      <stop offset="0" stop-color="#c9e6fe"/>
      <stop offset="1" stop-color="#aad5fa"/>
    </linearGradient>
    <linearGradient id="linear-gradient-6" x1="191.109" y1="-412.931" x2="173.2" y2="-348.833" gradientUnits="objectBoundingBox">
      <stop offset="0" stop-color="#c9e6fe"/>
      <stop offset="1" stop-color="#fff"/>
    </linearGradient>
  </defs>
  <g id="contact-img-top" transform="translate(-128.726 -38.7)">
    <path id="Path_37288" data-name="Path 37288" d="M308.7,152.774s11.988,19.092,15.1,22.2c3.33,3.33,12.432,5.328,17.76-.222s18.2-18.87,18.2-18.87L347.995,126.8C348.216,126.8,325.794,141.23,308.7,152.774Z" transform="translate(218.512 107.485)" fill="#346e9c" fill-rule="evenodd"/>
    <path id="Path_37289" data-name="Path 37289" d="M307.628,179.8s-3.33-31.968,3.774-40.627c6.882-8.658,14.874-9.99,18.87-2.664s6.66,7.326,2.22,7.77-10.212-3.552-10.212-3.552-5.55,4.44-7.1,8.214c-1.554,3.552,15.984,22.2,19.092,22.2,3.108.222,20.646-18.648,21.978-17.76s-.222,16.872-11.1,21.312c-10.878,4.662-16.65,7.548-17.982,9.99C325.611,186.686,307.628,179.8,307.628,179.8Z" transform="translate(216.254 113.533)" fill="#f7c5c3" fill-rule="evenodd"/>
    <path id="Path_37290" data-name="Path 37290" d="M310.587,567.878S186.043,583.2,154.3,486.4c-31.968-96.571,70.6-134.312,68.377-249.975-2.22-115.886,67.489-187.815,157.178-149.408S425.584,288.376,537.03,309.91C648.7,331.445,688.879,329,691.544,422.244S601.632,562.55,310.587,567.878Z" transform="translate(22.595 46.254)" fill="#f2f8ff" fill-rule="evenodd"/>
    <path id="Path_37291" data-name="Path 37291" d="M184.36,181.2h67.489c3.552,0,6.66,5.328,6.66,11.988v67.045c0,6.66-2.886,11.988-6.66,11.988H184.36c-3.552,0-6.66-5.328-6.66-11.988V193.188C177.7,186.528,180.808,181.2,184.36,181.2Z" transform="translate(58.688 173.854)" fill="#fefefe" fill-rule="evenodd"/>
    <path id="Path_37296" data-name="Path 37296" d="M310.591,468.826S186.047,484.144,154.3,387.351c-18.426-55.723,7.77-91.687,33.078-134.534,88.357-1.11,235.1,159.176,350.543,87.247,135.866-84.361-51.5-108.115-68.6-182.264h0c13.32,25.974,32.856,46.177,67.489,52.837,111.668,21.534,151.85,19.092,154.514,112.333S601.637,463.5,310.591,468.826Z" transform="translate(22.591 145.306)" fill="#c7e5ff" fill-rule="evenodd"/>
    <g id="_2016421982240" transform="translate(231.65 429.64)">
      <path id="Path_37297" data-name="Path 37297" d="M240.511,321.587c4,21.312,4.662,27.528,7.326,57.277s5.994,48.4,8.658,60.163a29.583,29.583,0,0,1-4.218-1.11c-3.108-12.876-6.216-28.194-8.436-62.383s-11.544-50.617-14.652-62.827c-4.884-18.87-54.169-96.571-22.2-97.9C237.625,213.916,236.737,300.941,240.511,321.587Z" transform="translate(-150.301 -214.797)" fill="#2b8c6d" fill-rule="evenodd"/>
      <path id="Path_37298" data-name="Path 37298" d="M245.351,319.5c10.878,6.882,27.084,20.2,33.744,41.959-2-1.776-4-3.774-5.994-5.55a57.547,57.547,0,0,0-8.214-14.208c-7.548-9.324-13.986-14.874-19.092-18.2-87.025-35.965-83.251-61.051-42.181-47.287C236.027,287.3,243.575,310.171,245.351,319.5Z" transform="translate(-175.566 -144.55)" fill="#2b8c6d" fill-rule="evenodd"/>
      <path id="Path_37299" data-name="Path 37299" d="M243.349,339.359c2.442,8.88,5.328,19.092,7.548,27.084A244.536,244.536,0,0,0,262,397.3v7.548s-13.542-33.078-20.2-60.829c-54.169-45.955-68.377-118.106-33.744-97.9C237.133,262.767,242.239,320.266,243.349,339.359Z" transform="translate(-158.911 -180.842)" fill="#2b8c6d" fill-rule="evenodd"/>
    </g>
    <path id="Path_37300" data-name="Path 37300" d="M571.033,275.8s-.888,56.389-69.043,59.053c-68.377,2.886-90.355-.888-142.3,28.86C307.737,393.24,230.7,401.676,199.4,392.574v-115Z" transform="translate(85.163 289.269)" fill="#8db7ff" fill-rule="evenodd"/>
    <path id="Path_37301" data-name="Path 37301" d="M265.529,207.7s20.424,13.986,23.31,42.181,3.774,45.289,14.874,58.609,52.171,26.862,52.393,31.746-22.422,10.878-31.3,9.546c-9.1-1.554-53.059-9.99-59.053-53.281C259.534,253.433,265.529,207.7,265.529,207.7Z" transform="translate(162.67 206.185)" fill="#5a97ff" fill-rule="evenodd"/>
    <path id="Path_37302" data-name="Path 37302" d="M265.318,200.56a27.358,27.358,0,0,0-8.88,8.214,79.114,79.114,0,0,1-8.658,9.99s-24.642,8.214-29.748,23.31c-5.328,15.1,13.1,63.937,12.876,81.919a183.852,183.852,0,0,1-4.44,34.41h109s-6.438-33.744-2.664-58.387c3.552-24.642,5.994-57.055-1.554-72.151-7.326-14.874-23.31-15.984-23.31-15.984S294.4,198.118,265.318,200.56Z" transform="translate(106.714 197.119)" fill-rule="evenodd" fill="url(#linear-gradient)"/>
    <path id="Path_37303" data-name="Path 37303" d="M236.7,187.451a103.518,103.518,0,0,1,2.664,27.306c-.888,14.43,2,36.186,17.982,40.4,15.984,4,22.422-10.656,22.644-16.65.222-5.772-5.55-10.878-6.882-23.31S271.332,183.011,236.7,187.451Z" transform="translate(130.67 180.702)" fill="#ffa6a2" fill-rule="evenodd"/>
    <path id="Path_37304" data-name="Path 37304" d="M252.259,163.006s-10.434-6.438-24.864,1.11-14.43,33.3-.666,47.065,7.77,21.312,10.434,22.866,14.43-7.548,13.32-28.416,5.55-22.644,4.662-27.972C254.479,172.33,252.259,163.006,252.259,163.006Z" transform="translate(106.009 148.535)" fill="#0f2c43" fill-rule="evenodd"/>
    <path id="Path_37305" data-name="Path 37305" d="M244.78,161.044s-7.548-4.44-12.21,1.776-2,26.64,5.55,24.42C245.668,185.243,244.78,161.044,244.78,161.044Z" transform="translate(122.812 147.389)" fill="#f5726c" fill-rule="evenodd"/>
    <ellipse id="Ellipse_772" data-name="Ellipse 772" cx="17.316" cy="19.758" rx="17.316" ry="19.758" transform="translate(407.33 336.628)" fill="#4b8dc2"/>
    <path id="Path_37306" data-name="Path 37306" d="M299.178,185.7s4.662,44.845-14.208,55.279-43.513-5.772-47.287-27.75S251.669,165.5,265.211,165.5C278.531,165.5,299.178,185.7,299.178,185.7Z" transform="translate(131.241 154.7)" fill="#f7c5c3" fill-rule="evenodd"/>
    <path id="Path_37307" data-name="Path 37307" d="M239.769,213.6s16.65-1.776,22.866-11.1a32.95,32.95,0,0,0,5.328-19.314s7.326,13.1,19.758,14.208c12.654,1.11,17.982,9.768,20.868,10.656,3.108.666,9.99-10.434,7.1-25.53S293.05,160.1,287.278,158.764c-3.552-.888-14.208,1.11-22.866,3.774.444-2.442.666-4.662-.222-6.438,0,0-19.314,4.662-29.526,18.2s-1.11,39.295-1.11,39.295,2-2.442,4.662-6.216C239.325,211.379,239.769,213.6,239.769,213.6Z" transform="translate(122.273 143.231)" fill="#0f2c43" fill-rule="evenodd"/>
    <ellipse id="Ellipse_773" data-name="Ellipse 773" cx="17.316" cy="19.758" rx="17.316" ry="19.758" transform="translate(344.282 339.958)" fill="#4b8dc2"/>
    <circle id="Ellipse_774" data-name="Ellipse 774" cx="63.715" cy="63.715" r="63.715" transform="translate(614.681 639.44)" fill="#c9e6fe"/>
    <path id="Path_37308" data-name="Path 37308" d="M440.249,232.6s-24.642,12.876-37.963,35.52c-13.542,22.644-13.986,43.957-13.986,43.957s9.1,16.428,18.648,13.32C416.05,321.845,440.249,232.6,440.249,232.6Z" transform="translate(315.626 236.564)" fill-rule="evenodd" fill="url(#linear-gradient-2)"/>
    <path id="Path_37309" data-name="Path 37309" d="M430.551,235.424s-13.32,6.216-26.418,35.964c-12.876,29.748-9.768,78.589,7.77,94.573s77.923,28.86,91.021-8.88C516.244,319.563,523.348,204.788,430.551,235.424Z" transform="translate(325.324 233.739)" fill="#5a97ff" fill-rule="evenodd"/>
    <path id="Path_37310" data-name="Path 37310" d="M397.326,260.783a125.206,125.206,0,0,0-.666,27.306c6.216-3.108,14.43-5.994,17.982-1.776,6.216,7.1,18.2,5.994,37.075,4,19.092-2,26.64,17.094,26.64,17.094l6.882-19.536s-11.766-20.424-25.086-21.978-29.526,7.77-43.735-1.776C408.87,259.007,401.988,259.451,397.326,260.783Z" transform="translate(325.249 269.876)" fill-rule="evenodd" fill="url(#linear-gradient-3)"/>
    <path id="Path_37311" data-name="Path 37311" d="M424.67,286.3s-42.181-37.741-45.289-35.965a8.554,8.554,0,0,0-4.44,8.436c.666,2.886,48.4,40.4,48.4,40.4Z" transform="translate(299.237 258.125)" fill="#0f2c43" fill-rule="evenodd"/>
    <path id="Path_37312" data-name="Path 37312" d="M435.348,247.114s-18.2,21.534-21.534,21.312-7.77-24.864,1.554-37.3S435.348,247.114,435.348,247.114Z" transform="translate(341.84 230.93)" fill="#346e9c" fill-rule="evenodd"/>
    <path id="Path_37313" data-name="Path 37313" d="M437.926,224.9s7.1,2.886,10.212,9.768c2.886,6.882,4.662,10.878,2.886,14.43-1.554,3.552-19.536,24.42-23.31,24.42s-8.214-17.982-8.214-17.982Z" transform="translate(353.691 227.17)" fill="#346e9c" fill-rule="evenodd"/>
    <path id="Path_37314" data-name="Path 37314" d="M412.8,226.8s.888,18.87.888,26.64-2.22,7.1,1.11,10.434c3.108,3.33,13.32,8.436,13.32,8.436s21.312-14.652,23.088-17.538-3.108-28.638-2.664-40.627C449.43,201.493,412.8,226.8,412.8,226.8Z" transform="translate(345.517 209.728)" fill-rule="evenodd" fill="url(#linear-gradient-4)"/>
    <path id="Path_37315" data-name="Path 37315" d="M405.559,204.434s-9.546,51.5,11.988,60.607,41.958-27.306,41.958-27.306,11.766,2.442,12.432-14.208C472.6,206.654,441.079,172.466,405.559,204.434Z" transform="translate(334.11 186.14)" fill="#f7c5c3" fill-rule="evenodd"/>
    <path id="Path_37316" data-name="Path 37316" d="M465.971,194.075s-1.776-13.32-25.086-13.32c-23.31.222-33.078,4.44-41.071.444s-4.44,15.1,2.442,22.422c6.882,7.1,9.99,8.214,9.99,8.214s-8.88,3.108-7.992,9.546c.666,6.216,36.852-6.882,36.852-6.882s-3.108,5.55,2.664,6.882,16.65-6.66,16.65-6.66-3.774,10.212.666,15.762c4.662,5.55,2.664,8.436,8.658,3.774s7.548,12.654.222,15.762,1.11,22.644,4.44,16.428c3.108-6.216,11.544-9.324,14.652-27.528C492.168,220.937,491.946,194.075,465.971,194.075Z" transform="translate(324.092 173.189)" fill="#0f2c43" fill-rule="evenodd"/>
    <path id="Path_37317" data-name="Path 37317" d="M493.124,295.594s-7.326,26.862-14.208,33.966c0,0-37.518-12.21-47.509-21.534-9.99-9.546-5.106-15.318-10.434-28.416-5.328-12.876-1.11-20.2-3.33-22.866-2.442-2.886-9.768,8.88-7.1,18.648,2.664,9.99-3.552,16.428-5.772,16.428s-4.662-9.1-4.662-9.1-10.656-9.768-12.876-9.768c-2.22-.222-7.548,24.42,9.1,35.52,16.428,11.1,57.277,56.833,83.473,57.277,26.418.666,44.179-45.289,44.623-63.049C524.648,284.938,493.124,295.594,493.124,295.594Z" transform="translate(311.148 265.479)" fill="#f7c5c3" fill-rule="evenodd"/>
    <path id="Path_37318" data-name="Path 37318" d="M451.765,236.9c-12.876,2.442-20.424,57.055-21.09,71.929s1.332,18.648,1.332,18.648,15.54,11.544,44.179,7.77C476.185,335.247,486.175,262.652,451.765,236.9Z" transform="translate(367.159 241.81)" fill="#4b8dc2" fill-rule="evenodd"/>
    <path id="Path_37319" data-name="Path 37319" d="M371.488,323.4h52.837a11.938,11.938,0,0,1,11.988,11.988v29.526A11.938,11.938,0,0,1,424.325,376.9h-5.994v17.538L400.793,376.9h-29.3A11.938,11.938,0,0,1,359.5,364.914V335.388A11.938,11.938,0,0,1,371.488,323.4Zm6.216,21.09a5.328,5.328,0,1,1-5.328,5.328A5.4,5.4,0,0,1,377.7,344.49Zm39.738,0a5.328,5.328,0,1,1,0,10.656,5.259,5.259,0,0,1-5.328-5.328A5.4,5.4,0,0,1,417.443,344.49Zm-19.98,0a5.328,5.328,0,1,1,0,10.656,5.259,5.259,0,0,1-5.328-5.328A5.127,5.127,0,0,1,397.462,344.49Z" transform="translate(280.49 347.342)" fill="#fefefe" fill-rule="evenodd"/>
    <circle id="Ellipse_775" data-name="Ellipse 775" cx="14.874" cy="14.874" r="14.874" transform="translate(708.588 614.132)" fill="#c9e6fe"/>
    <circle id="Ellipse_776" data-name="Ellipse 776" cx="7.548" cy="7.548" r="7.548" transform="translate(696.378 588.379)" fill="#c9e6fe"/>
    <ellipse id="Ellipse_777" data-name="Ellipse 777" cx="15.54" cy="17.76" rx="15.54" ry="17.76" transform="translate(343.616 342.4)" fill="#346e9c"/>
    <path id="Path_37320" data-name="Path 37320" d="M232.6,184.695s1.332,4.44,2.22,5.328a30.121,30.121,0,0,0-1.11,9.1c.444,5.772,4.218,2.886,4.218,2.22.222-.444.444-5.772,1.332-9.99h.666c.888,0,6.216-3.108,7.326-4.44,1.11-1.11,9.99-18.87,23.754-23.754s25.974,4,27.528,3.552c1.776-.222-9.324-11.766-24.42-12.21C259.018,154.28,240.592,163.16,232.6,184.695Z" transform="translate(125.668 141.277)" fill="#346e9c" fill-rule="evenodd"/>
    <path id="Path_37321" data-name="Path 37321" d="M239.126,187s.222,7.992,3.33,10.656,11.988,2.442,12.876,3.774-.444,2.22-4.884,1.554-7.77-.222-10.656-3.108c-3.108-3.108-4-11.544-3.774-12.21C236.24,187.222,239.126,187,239.126,187Z" transform="translate(129.798 180.93)" fill="#346e9c" fill-rule="evenodd"/>
    <path id="Path_37322" data-name="Path 37322" d="M244.35,199.126c1.332,1.776,10.434,1.554,11.766-1.554C259,189.358,237.468,190.468,244.35,199.126Z" transform="translate(138.338 187.009)" fill="#0f2c43" fill-rule="evenodd"/>
    <path id="Path_37323" data-name="Path 37323" d="M238.5,211.58s10.656,27.306,14.43,38.407,11.322,70.153,13.1,82.141,12.654,9.768,12.654,9.768-.666-63.937,1.776-86.137-.444-36.408-4.218-46.4C272.245,199.369,238.5,211.58,238.5,211.58Z" transform="translate(132.866 203.415)" fill="#5a97ff" fill-rule="evenodd"/>
    <path id="Path_37324" data-name="Path 37324" d="M255.818,263.1s6.882,5.772,19.536,5.55,18.648-1.776,28.416,2.886,10.212,10.656,8.436,11.544-60.607,0-60.607,0Z" transform="translate(148.848 273.775)" fill="#f7c5c3" fill-rule="evenodd"/>
    <path id="Path_37325" data-name="Path 37325" d="M213.892,246.57s-7.1,64.6,30.636,81.031,57.055,13.986,58.387,13.1c1.11-1.11,1.332-14.652,6.216-18.2s2.664-4.662-9.1-7.326c-11.544-2.664-37.3-8.436-47.953-24.42s-1.554-51.949-14.43-65.713C224.992,211.05,220.33,214.158,213.892,246.57Z" transform="translate(102.195 217.71)" fill="#5a97ff" fill-rule="evenodd"/>
    <path id="Path_37326" data-name="Path 37326" d="M246.209,206.032S235.331,231.118,236,233.782c.666,2.886,14.652,0,16.206,1.554,1.554,1.776-14.874,8.436-13.986,10.878s21.756,23.976,27.306,41.514,6.66,20.2,4.218,20.2c-2.22.222-7.548-19.536-15.762-32.634-8.436-13.1-21.978-26.2-22.644-28.416s5.328-6.216,5.328-6.216-8.436-2-8.658-3.774C227.561,235.114,243.989,202.7,246.209,206.032Z" transform="translate(120.051 203.857)" fill="#c9e6fe" fill-rule="evenodd"/>
    <path id="Path_37327" data-name="Path 37327" d="M259.861,208.1s13.542,18.2,14.43,21.534-11.544,4-11.322,7.326,9.99,3.33,13.1,6.66-12.21,37.3-15.1,46.4-4,11.766-2.664,13.32,16.872-37.963,19.758-46.177,4.44-11.766,4.218-15.54c-.444-4-6.66-3.108-7.326-4.44s3.774-2,4.884-5.994C280.952,226.522,260.971,202.99,259.861,208.1Z" transform="translate(156.349 205.789)" fill="#c9e6fe" fill-rule="evenodd"/>
    <path id="Path_37328" data-name="Path 37328" d="M277.5,279.842h51.061V266.3H286.6a9.143,9.143,0,0,0-9.1,9.1Z" transform="translate(180.447 277.679)" fill="#aad5fa" fill-rule="evenodd"/>
    <path id="Path_37329" data-name="Path 37329" d="M300.4,266.2H417.174v4.44a9,9,0,0,1-9.1,9.1H300.4Z" transform="translate(208.386 277.557)" fill-rule="evenodd" fill="url(#linear-gradient-5)"/>
    <path id="Path_37330" data-name="Path 37330" d="M299.1,315.855H415.874L436.3,234.6c1.332-4.884-1.776-9.1-6.882-9.1H330.846a12.066,12.066,0,0,0-11.322,9.1Z" transform="translate(206.8 227.902)" fill="#aad5fa" fill-rule="evenodd"/>
    <path id="Path_37331" data-name="Path 37331" d="M300.4,315.855H417.174L437.6,234.6c1.332-4.884-1.776-9.1-6.66-9.1H332.368c-4.884,0-9.99,4-11.322,9.1Z" transform="translate(208.386 227.902)" fill-rule="evenodd" fill="url(#linear-gradient-6)"/>
    <ellipse id="Ellipse_778" data-name="Ellipse 778" cx="12.432" cy="10.212" rx="12.432" ry="10.212" transform="matrix(0.743, -0.67, 0.67, 0.743, 567.014, 503.84)" fill="#fefefe"/>
    <path id="Path_37332" data-name="Path 37332" d="M198.577,272.4H582.2a2.823,2.823,0,0,1,2.664,3.108v9.546a2.969,2.969,0,0,1-2.664,3.108H198.577a2.823,2.823,0,0,1-2.664-3.108v-9.546A2.7,2.7,0,0,1,198.577,272.4Z" transform="translate(80.879 285.121)" fill="#5a97ff" fill-rule="evenodd"/>
    <path id="Path_37333" data-name="Path 37333" d="M306.759,171.413s-.888-17.094.444-19.092c1.11-2.22,22.644,2.442,24.642,4.884s2,21.534.444,21.534S306.759,171.413,306.759,171.413Z" transform="translate(215.791 137.909)" fill="#346e9c" fill-rule="evenodd"/>
    <path id="Path_37334" data-name="Path 37334" d="M360.195,154s-34.632,24.642-39.295,50.395c3.108.888,6.216,1.554,9.546,2.22,59.275,11.544,98.569,16.206,122.546,32.19,3.108-5.328,4.218-12.654,4.884-21.756,2.442-28.416-33.079-52.837-37.963-56.389C415.251,157.33,360.195,154,360.195,154Z" transform="translate(233.396 140.669)" fill="#4b8dc2" fill-rule="evenodd"/>
    <path id="Path_37335" data-name="Path 37335" d="M410.893,166.744c-4.662-3.774-8.436-6.438-9.768-7.326-2.22-1.554-14.208-3.108-27.084-4.218-18.87,1.776-37.74,5.106-37.74,5.106s5.772,21.534,31.3,25.53C389.8,188.944,404.677,178.732,410.893,166.744Z" transform="translate(252.185 142.133)" fill="#346e9c" fill-rule="evenodd"/>
    <path id="Path_37336" data-name="Path 37336" d="M358.242,158.681s3.774,5.994-3.33,14.874c-7.1,8.658-11.988,11.322-12.21,14.43-.222,2.886,9.768,17.982,30.858,12.21,21.312-5.772,24.2-13.542,25.086-16.65s-13.764-47.065-16.872-48.4C378.666,133.373,358.242,158.681,358.242,158.681Z" transform="translate(259.991 117.562)" fill="#ffa6a2" fill-rule="evenodd"/>
    <path id="Path_37337" data-name="Path 37337" d="M330.3,138s-3.552,53.5,20.424,56.389,48.175-4,44.845-39.96S348.284,89.378,330.3,138Z" transform="translate(244.641 89.849)" fill="#f7c5c3" fill-rule="evenodd"/>
    <path id="Path_37338" data-name="Path 37338" d="M361.534,131.318s-2.22,25.752,20.2,32.856c22.644,7.1,19.314,10.212,20.424,21.978,1.332,11.544-3.552,23.31,6.216,35.742,9.546,12.21,23.31,19.536,28.416,25.974s15.762-13.1,7.77-41.293-11.988-36.186-13.764-60.385c-1.554-24.2-24.642-45.733-43.735-45.289s-24.42,6.438-24.42,6.438-27.306-8.88-35.964,22.644,11.988,58.831,7.326,81.253-9.546,31.968,2,38.406c11.544,6.216,25.974-19.98,33.3-22.422s14.43-21.09,14.43-21.09-19.536,4.44-28.416-4.884c-9.1-9.546-12.654-39.517-12.654-39.517S357.982,153.518,361.534,131.318Z" transform="translate(237.829 75.882)" fill="#0f2c43" fill-rule="evenodd"/>
    <path id="Path_37339" data-name="Path 37339" d="M349.836,201.182c-2.442-11.544-5.994-26.2-8.658-31.3-4.44-9.1-30.858-12.432-33.966-10.878-1.554.888-2.886,10.878-.666,21.978,11.1,9.546,25.086,16.65,42.847,20.2Z" transform="translate(214.45 146.324)" fill="#4b8dc2" fill-rule="evenodd"/>
    <path id="Path_37340" data-name="Path 37340" d="M717.025,77.107S634.662,6.066,554.962,75.553c-79.921,69.487-46.4,178.934-174.938,182.264-128.54,3.108-111.89-178.934-59.941-170.942s91.909,111.89-21.534,170.942S58.786,399.234,177.113,536.654,552.521,624.567,556.739,726.91c4,102.343-84.805,65.491-63.049,3.108C515.224,667.635,618.455,703.6,618.455,703.6" transform="translate(0 7.769)" fill="none" stroke="#aad5fa" stroke-width="2" stroke-dasharray="5 15"/>
    <circle id="Ellipse_779" data-name="Ellipse 779" cx="63.715" cy="63.715" r="63.715" transform="translate(697.488 38.7)" fill="#5a97ff"/>
    <path id="Path_37341" data-name="Path 37341" d="M408.808,55.653c-3.33.888-5.772,5.106-6.882,8.214-3.774,10.656,7.1,23.532,13.986,30.414,5.772,5.772,10.878,8.88,18.87,11.766,6.216,2.22,11.766,4,17.982.222,4-2.442,5.55-4.44,5.994-9.324.222-2.886-.666-2.664-3.552-4-1.554-.888-9.324-4.884-10.656-4.662-1.11.222-2.886,2.886-3.774,3.774-3.33,4-2.664,4.662-9.768,1.11a34.044,34.044,0,0,1-4.662-3.108,35.87,35.87,0,0,1-7.548-7.77c-.666-.888-2.664-3.774-2.886-4.884-.444-2.886,6.438-4.662,4-10.212-1.11-2.22-3.774-9.324-4.662-10.656-.666-1.11-1.11-1.11-2.664-1.11A10.511,10.511,0,0,0,408.808,55.653Z" transform="translate(331.305 20.344)" fill="#fefefe" fill-rule="evenodd"/>
    <circle id="Ellipse_780" data-name="Ellipse 780" cx="14.874" cy="14.874" r="14.874" transform="translate(704.592 163.688)" fill="#5a97ff"/>
    <circle id="Ellipse_781" data-name="Ellipse 781" cx="7.548" cy="7.548" r="7.548" transform="translate(691.716 197.432)" fill="#5a97ff" opacity="0.78"/>
    <path id="Path_37342" data-name="Path 37342" d="M267.12,216.023c-1.554,0-9.768-2.442-11.766-2.886s-4-1.11-5.994-1.554c-1.776-.444-4.218-1.776-5.994-.888-16.206,7.77-32.19,9.546-50.173,4.884-6.882-1.776-15.54-5.772-19.98-9.324-.666-.666-1.332-.888-2-1.554l-3.774-3.33c-8.658-7.326-14.208-19.536-14.43-29.748a40.442,40.442,0,0,1,5.106-21.312,43.329,43.329,0,0,1,5.772-7.992c4.218-4.44,4.218-4.662,9.324-8.436a48.786,48.786,0,0,1,6.66-4.218,61.512,61.512,0,0,1,10.212-4.44,69.883,69.883,0,0,1,26.862-3.33c43.069,2.664,70.153,43.069,43.957,74.815-1.332,1.554-1.11,1.11.444,4.662.666,1.554,1.332,3.108,2,4.884C264.456,209.584,265.788,212.915,267.12,216.023Z" transform="translate(28.543 101.291)" fill="#c9e6fe" fill-rule="evenodd"/>
    <path id="Path_37343" data-name="Path 37343" d="M225,140.6a7.1,7.1,0,1,1-7.1,7.1A7.153,7.153,0,0,1,225,140.6Zm-55.5,0a7.1,7.1,0,1,1-7.1,7.1A7.013,7.013,0,0,1,169.5,140.6Zm28.86,0a7.1,7.1,0,1,1-7.1,7.1A7.153,7.153,0,0,1,198.364,140.6Z" transform="translate(40.022 124.321)" fill="#4b8dc2" fill-rule="evenodd"/>
    <path id="Path_37344" data-name="Path 37344" d="M342.872,205.2h21.756a5.877,5.877,0,0,1,5.772,5.772v10.656a5.878,5.878,0,0,1-5.772,5.772H342.872a5.877,5.877,0,0,1-5.772-5.772V210.972A5.877,5.877,0,0,1,342.872,205.2Zm0,2.886h21.756a3.035,3.035,0,0,1,3.108,3.108V221.85a3.035,3.035,0,0,1-3.108,3.108H342.872a3.035,3.035,0,0,1-3.108-3.108V211.194A3.175,3.175,0,0,1,342.872,208.086Z" transform="translate(253.161 203.135)" fill="#aad5fa" fill-rule="evenodd"/>
    <path id="Path_37345" data-name="Path 37345" d="M204.358,90.3h17.316a2.464,2.464,0,0,1,2.442,2.442V101.4a2.464,2.464,0,0,1-2.442,2.442H204.358a2.464,2.464,0,0,1-2.442-2.442V92.742A2.216,2.216,0,0,1,204.358,90.3Z" transform="translate(88.197 62.954)" fill="#aad5fa" fill-rule="evenodd"/>
    <path id="Path_37346" data-name="Path 37346" d="M402.393,150.2H436.8a4.706,4.706,0,0,1,4.884,4.44v14.874a4.706,4.706,0,0,1-4.884,4.44h-34.41a4.706,4.706,0,0,1-4.884-4.44V154.64C397.286,152.2,399.506,150.2,402.393,150.2Z" transform="translate(326.842 136.033)" fill="#c9e6fe" fill-rule="evenodd"/>
  </g>
</svg>
