<svg xmlns="http://www.w3.org/2000/svg" xmlns:xlink="http://www.w3.org/1999/xlink" width="997.5" height="439.679" viewBox="0 0 997.5 439.679">
  <defs>
    <filter id="Ellipse_745" x="649.619" y="16.626" width="347.881" height="347.881" filterUnits="userSpaceOnUse">
      <feOffset dy="20" input="SourceAlpha"/>
      <feGaussianBlur stdDeviation="49.5" result="blur"/>
      <feFlood flood-color="#1a1848" flood-opacity="0.161"/>
      <feComposite operator="in" in2="blur"/>
      <feComposite in="SourceGraphic"/>
    </filter>
  </defs>
  <g id="edu-2-img" transform="translate(-1010 -3201)">
    <g transform="matrix(1, 0, 0, 1, 1010, 3201)" filter="url(#Ellipse_745)">
      <ellipse id="Ellipse_745-2" data-name="Ellipse 745" cx="18" cy="18" rx="18" ry="18" transform="translate(822.67 145.13) rotate(43)" fill="#fa5b41" opacity="0.25"/>
    </g>
    <g id="edu-img" transform="translate(1010 3094.538)">
      <path id="Path_386" data-name="Path 386" d="M19.732,447.575S32.788,328.331,92.661,308.533c98.641-32.616,108.674,49.921,129.3,40S285.572,220.84,407.236,219.821c121.784-1.02,137.237,184.238,235.511,134.284,69.336-35.244,131.135,93.469,131.135,93.469Z" transform="translate(-10.236 -58.803)" fill="#e9f3ff"/>
      <g id="Group_30198" data-name="Group 30198" transform="translate(343.846 106.462)">
        <rect id="Rectangle_3303" data-name="Rectangle 3303" width="309.129" height="192.569" transform="translate(4.686 0.55)" fill="#d2e7ff"/>
        <rect id="Rectangle_3304" data-name="Rectangle 3304" width="1.651" height="76.712" transform="matrix(1, -0.014, 0.014, 1, 42.218, 87.318)" fill="#fdfeff"/>
        <rect id="Rectangle_3305" data-name="Rectangle 3305" width="320.765" height="7.703" fill="#2b76ff"/>
        <rect id="Rectangle_3306" data-name="Rectangle 3306" width="320.765" height="7.703" transform="translate(0 189.818)" fill="#2b76ff"/>
        <rect id="Rectangle_3307" data-name="Rectangle 3307" width="40.715" height="16.506" rx="8.253" transform="translate(24.759 72.076)" fill="#fff"/>
        <path id="Path_387" data-name="Path 387" d="M813,336.125c0,2.171-2.135,4.192-4.846,4.192h-29.53a4.478,4.478,0,0,1-4.688-4.192v-4.959c0-2.171,1.977-4.055,4.688-4.055h29.53c2.711,0,4.846,1.883,4.846,4.055Z" transform="translate(-745.325 -220.924)" fill="#fff"/>
        <path id="Path_388" data-name="Path 388" d="M804.746,391.2c0,2.827-1.271,5.008-3.442,5.008H777.647c-2.171,0-3.712-2.181-3.712-5.008v-6.456c0-2.827,1.54-5.043,3.712-5.043H801.3c2.171,0,3.442,2.216,3.442,5.043Z" transform="translate(-745.325 -248.205)" fill="#fff"/>
        <rect id="Rectangle_3308" data-name="Rectangle 3308" width="31.361" height="13.205" rx="6.602" transform="translate(28.61 157.356)" fill="#fff"/>
        <rect id="Rectangle_3309" data-name="Rectangle 3309" width="31.361" height="2.751" transform="translate(275.649 30.261)" fill="#46557c"/>
        <rect id="Rectangle_3310" data-name="Rectangle 3310" width="31.361" height="2.751" transform="translate(275.649 59.421)" fill="#46557c"/>
        <rect id="Rectangle_3311" data-name="Rectangle 3311" width="31.361" height="2.751" transform="translate(275.649 91.883)" fill="#46557c"/>
        <rect id="Rectangle_3312" data-name="Rectangle 3312" width="31.361" height="2.751" transform="translate(275.649 124.282)" fill="#46557c"/>
        <rect id="Rectangle_3313" data-name="Rectangle 3313" width="31.361" height="2.751" transform="translate(275.649 146.903)" fill="#46557c"/>
        <rect id="Rectangle_3314" data-name="Rectangle 3314" width="27.51" height="2.751" transform="translate(32.462 76.477)" fill="#93a2f9"/>
        <rect id="Rectangle_3315" data-name="Rectangle 3315" width="27.51" height="2.751" transform="translate(32.462 81.979)" fill="#93a2f9"/>
        <rect id="Rectangle_3316" data-name="Rectangle 3316" width="28.06" height="2.751" transform="translate(33.562 111.69)" fill="#93a2f9"/>
        <rect id="Rectangle_3317" data-name="Rectangle 3317" width="20.908" height="2.751" transform="translate(32.462 136.449)" fill="#93a2f9"/>
        <rect id="Rectangle_3318" data-name="Rectangle 3318" width="20.907" height="2.751" transform="translate(33.012 162.858)" fill="#93a2f9"/>
        <path id="Path_389" data-name="Path 389" d="M980.356,301.446l0-.55,139.448-1.045V164.768h.55V300.4l-.273,0Z" transform="translate(-852.404 -136.708)" fill="#0c0c0c"/>
        <path id="Path_390" data-name="Path 390" d="M1002.48,293.381l-1.3-1.016c.219-.281,22.364-28.173,61.1-36.294,13.211-2.769,22.88-27.333,31.411-49,7.8-19.824,14.543-36.944,23.4-39.272l.42,1.6c-8.044,2.116-14.959,19.683-22.28,38.281-9.108,23.138-18.527,47.063-32.609,50.015C1024.493,265.679,1002.7,293.1,1002.48,293.381Z" transform="translate(-863.208 -138.278)" fill="#fdfeff"/>
        <rect id="Rectangle_3319" data-name="Rectangle 3319" width="40.715" height="16.506" rx="8.253" transform="translate(112.24 51.168)" fill="#fff"/>
        <path id="Path_391" data-name="Path 391" d="M913.271,306.526c0,2.852-1.784,5.081-4.1,5.081H884.292c-2.318,0-4.033-2.228-4.033-5.081v-6.375c0-2.852,1.715-5.05,4.033-5.05H909.17c2.317,0,4.1,2.2,4.1,5.05Z" transform="translate(-800.48 -204.318)" fill="#fff"/>
        <path id="Path_392" data-name="Path 392" d="M921.91,374.1c0,1.415-1.845,2.974-4.016,2.974H894.236c-2.171,0-3.688-1.558-3.688-2.974v-3.231c0-1.415,1.517-2.6,3.688-2.6h23.657c2.171,0,4.016,1.183,4.016,2.6Z" transform="translate(-805.818 -242.275)" fill="#fff"/>
        <path id="Path_393" data-name="Path 393" d="M921.91,425.347a4.119,4.119,0,0,1-4.016,4.145H894.236a3.856,3.856,0,0,1-3.688-4.145v-5.2a3.607,3.607,0,0,1,3.688-3.856h23.657a3.873,3.873,0,0,1,4.016,3.856Z" transform="translate(-805.818 -267.184)" fill="#fff"/>
        <path id="Rectangle_3320" data-name="Rectangle 3320" d="M10.179,0H40.439A10.179,10.179,0,0,1,50.618,10.179v0A10.179,10.179,0,0,1,40.439,20.357H10.179A10.179,10.179,0,0,1,0,10.179v0A10.179,10.179,0,0,1,10.179,0Z" transform="translate(37.964 20.907)" fill="#fff"/>
        <rect id="Rectangle_3321" data-name="Rectangle 3321" width="33.018" height="1.651" transform="translate(48.363 71.801) rotate(-67.275)" fill="#fdfeff"/>
        <rect id="Rectangle_3322" data-name="Rectangle 3322" width="1.651" height="56.83" transform="translate(73.589 42.018) rotate(-25.204)" fill="#fdfeff"/>
        <rect id="Rectangle_3323" data-name="Rectangle 3323" width="31.361" height="2.751" transform="translate(46.217 26.96)" fill="#93a2f9"/>
        <rect id="Rectangle_3324" data-name="Rectangle 3324" width="31.361" height="2.751" transform="translate(117.192 57.22)" fill="#93a2f9"/>
        <rect id="Rectangle_3325" data-name="Rectangle 3325" width="21.458" height="2.751" transform="translate(46.767 33.012)" fill="#93a2f9"/>
        <rect id="Rectangle_3326" data-name="Rectangle 3326" width="21.458" height="2.751" transform="translate(89.682 128.746)" fill="#93a2f9"/>
        <rect id="Rectangle_3327" data-name="Rectangle 3327" width="21.458" height="2.751" transform="translate(89.682 154.055)" fill="#93a2f9"/>
        <rect id="Rectangle_3328" data-name="Rectangle 3328" width="20.907" height="2.751" transform="translate(84.73 95.184)" fill="#93a2f9"/>
        <rect id="Rectangle_3329" data-name="Rectangle 3329" width="20.907" height="2.751" transform="translate(84.73 100.136)" fill="#93a2f9"/>
        <ellipse id="Ellipse_735" data-name="Ellipse 735" cx="3.636" cy="3.377" rx="3.636" ry="3.377" transform="translate(264.215 56.893)" fill="#fff"/>
        <path id="Path_394" data-name="Path 394" d="M1269.657,298.6a3.647,3.647,0,1,1-3.636-3.377A3.514,3.514,0,0,1,1269.657,298.6Z" transform="translate(-998.708 -204.382)" fill="#fff"/>
        <path id="Path_395" data-name="Path 395" d="M1269.657,364.664a3.647,3.647,0,1,1-3.636-3.377A3.514,3.514,0,0,1,1269.657,364.664Z" transform="translate(-998.708 -238.652)" fill="#fff"/>
        <path id="Path_396" data-name="Path 396" d="M1270.777,411.693a3.647,3.647,0,1,1-3.637-3.377A3.514,3.514,0,0,1,1270.777,411.693Z" transform="translate(-999.289 -263.049)" fill="#fff"/>
        <path id="Path_397" data-name="Path 397" d="M1269.657,164.232a3.647,3.647,0,1,1-3.636-3.377A3.514,3.514,0,0,1,1269.657,164.232Z" transform="translate(-998.708 -134.678)" fill="#fff"/>
        <rect id="Rectangle_3330" data-name="Rectangle 3330" width="1.651" height="21.318" transform="matrix(0.935, -0.354, 0.354, 0.935, 95.548, 106.587)" fill="#fdfeff"/>
        <rect id="Rectangle_3331" data-name="Rectangle 3331" width="1.651" height="43.263" transform="translate(88.422 35.965) rotate(-64.561)" fill="#fdfeff"/>
        <rect id="Rectangle_3332" data-name="Rectangle 3332" width="16.268" height="1.651" transform="translate(95.018 149.036) rotate(-63.435)" fill="#fdfeff"/>
        <path id="Path_398" data-name="Path 398" d="M1020.881,295.16l4.4-2.066-2.2,11.695Z" transform="translate(-873.428 -203.277)" fill="#3d50a0" opacity="0.4" style="mix-blend-mode: multiply;isolation: isolate"/>
        <path id="Path_399" data-name="Path 399" d="M1103.614,299.238l-2.041-.663,4.083,11.468Z" transform="translate(-915.287 -206.121)" fill="#3d50a0" opacity="0.4" style="mix-blend-mode: multiply;isolation: isolate"/>
      </g>
      <path id="Rectangle_3333" data-name="Rectangle 3333" d="M0,0H770a0,0,0,0,1,0,0V11.256a72,72,0,0,1-72,72H52a52,52,0,0,1-52-52V0A0,0,0,0,1,0,0Z" transform="translate(0 462.884)" fill="#eff5ff"/>
      <rect id="Rectangle_3334" data-name="Rectangle 3334" width="770" height="57.75" transform="translate(0 405.134)" fill="#bfd7ff"/>
      <rect id="Rectangle_3335" data-name="Rectangle 3335" width="770" height="17.806" transform="translate(0 387.328)" fill="#e9f0ff"/>
      <g id="Group_30199" data-name="Group 30199" transform="translate(442.75 405.134)">
        <rect id="Rectangle_3336" data-name="Rectangle 3336" width="111.65" height="15.881" transform="translate(0 46.681)" fill="#ebebfc"/>
        <rect id="Rectangle_3337" data-name="Rectangle 3337" width="111.65" height="15.4" transform="translate(8.181 31.763)" fill="#ebebfc"/>
        <rect id="Rectangle_3338" data-name="Rectangle 3338" width="111.65" height="16.362" transform="translate(17.806 15.4)" fill="#ebebfc"/>
        <rect id="Rectangle_3339" data-name="Rectangle 3339" width="111.65" height="16.362" transform="translate(26.469)" fill="#ebebfc"/>
      </g>
      <g id="Group_30202" data-name="Group 30202" transform="translate(381.346 274.503)">
        <g id="Group_30201" data-name="Group 30201">
          <ellipse id="Ellipse_736" data-name="Ellipse 736" cx="54.199" cy="4.723" rx="54.199" ry="4.723" transform="translate(35.291 200.957)" fill="#ebebfc" style="mix-blend-mode: multiply;isolation: isolate"/>
          <path id="Path_400" data-name="Path 400" d="M944.789,752.013h48.363s-2.524-12.122-24.181-12.122S944.789,752.013,944.789,752.013Z" transform="translate(-871.455 -603.094)" fill="#131e44"/>
          <path id="Path_401" data-name="Path 401" d="M921.564,698.631s.069,19.687-12.185,20.72-53.82-2.962-53.82-2.962l9.86,61.185-13.334,1.886s-17.358-70.847-14.665-78c2.463-6.539,47.292-3.387,47.292-3.387S914.811,709.311,921.564,698.631Z" transform="translate(-815.61 -581.008)" fill="#131e44"/>
          <path id="Path_402" data-name="Path 402" d="M913.745,698.26s-.258,25.235-16.286,26.4c-12.266.892-55.3-3.439-55.3-3.439l-6.817,60.3-14.51.207,7.188-75.063,48.234-8.1S906.992,708.939,913.745,698.26Z" transform="translate(-807.153 -581.498)" fill="#1e2d56"/>
          <path id="Path_403" data-name="Path 403" d="M900.669,472.32c-2.142,8.074-4.75,10.45-9.219,11.082-2.954.418,4.384,2.746,4.384,2.746s1.1,12.068,8.11,12.068l3.894,11.095h12.6l-8.933-22.552s6.15-3.04,4.72-7.237C913.8,472.406,902.97,463.646,900.669,472.32Z" transform="translate(-843.422 -462.417)" fill="#f9b39d"/>
          <path id="Path_404" data-name="Path 404" d="M900.285,456.168a17.862,17.862,0,0,0,0,10.181c1.717,4.952,6.867,9.627,9.07,7.764,7.03-5.943,8.791.5,4.755,4.926s1.2,10.981,1.2,10.981h5.65s8.115-12.531,8.115-20.586C929.072,453.447,916.123,455.343,900.285,456.168Z" transform="translate(-847.973 -455.638)" fill="#131e44"/>
          <g id="Group_30200" data-name="Group 30200" transform="translate(51.549 0.528)" opacity="0.4" style="mix-blend-mode: multiply;isolation: isolate">
            <path id="Path_405" data-name="Path 405" d="M916.221,475.26c1.571-3.847-.655-7.314-6.394-2.463-2.2,1.863-7.353-2.812-9.071-7.764a16.852,16.852,0,0,1-.447-8.3h-.025a17.862,17.862,0,0,0,0,10.181c1.717,4.952,6.867,9.627,9.07,7.764C914.12,470.654,916.462,472.363,916.221,475.26Z" transform="translate(-899.522 -456.736)" fill="#131e44"/>
            <path id="Path_406" data-name="Path 406" d="M935.511,506.572H929.86s-3.01-3.811-2.7-7.595c-1.88,4.273,2.227,9.52,2.227,9.52h5.65s6.071-9.473,7.709-17.24C940.651,498.586,935.511,506.572,935.511,506.572Z" transform="translate(-913.605 -474.644)" fill="#131e44"/>
          </g>
          <path id="Path_407" data-name="Path 407" d="M825.039,572.44l7.154-8.844s22.818,23.848,23.932,21.817c5.022-9.15,1.7-35.541,9.649-39.026s22.773-4.742,29.815,2.171,29.028,36.855,24.537,46.022c-1.226,2.5-7.381,0-7.381,0s5.951,29.24,1.437,30.825c-23.9,8.389-37.315-5.917-37.315-5.917l-5.814-32.89s-4.768,20.781-12.6,20.054S825.039,572.44,825.039,572.44Z" transform="translate(-809.335 -501.251)" fill="#5a97ff"/>
          <path id="Path_408" data-name="Path 408" d="M815.265,574.353S808.142,564.3,802.554,564.3c-2.9,0,7.434,5.977,5.066,7.3-2.558,1.431-14.731-6.276-15.2-2.531S808.111,583.2,808.111,583.2Z" transform="translate(-792.407 -512.008)" fill="#f9b39d"/>
          <path id="Path_409" data-name="Path 409" d="M922.5,758.58l-1.476-.026,13.352-58.192c-1.9-4.6-13.271-39.885-5.089-52.494a10.158,10.158,0,0,1,8.994-4.788h0c10.1,0,18.7,9.471,25.56,27.937a162.249,162.249,0,0,1,7.26,27.55l-1.427.142c-.085-.541-8.732-54.185-31.393-54.185h0a8.683,8.683,0,0,0-7.782,4.131c-8.008,12.341,3.764,47.867,5.293,51.293l.1.247-.054.249Z" transform="translate(-859.129 -552.874)" fill="#131e44"/>
          <path id="Path_410" data-name="Path 410" d="M947.137,705.949c-6.7,0-10.207-1.5-10.4-1.581l.579-1.322c.059.025,6.028,2.54,17.216.89,12.789-1.887,16.219-3.872,16.252-3.892l.755,1.231c-.141.087-3.585,2.141-16.8,4.09A52.159,52.159,0,0,1,947.137,705.949Z" transform="translate(-867.279 -582.424)" fill="#131e44"/>
          <path id="Path_411" data-name="Path 411" d="M941.233,688.565c-1.957,0-4.014-.039-6.142-.117-.521-.019-1.092-.033-1.092-.033v-1.444s.6.014,1.144.034c14.424.529,24.825-.74,30.892-3.775l.649,1.292C961.311,687.209,952.767,688.565,941.233,688.565Z" transform="translate(-865.858 -573.702)" fill="#131e44"/>
          <path id="Path_412" data-name="Path 412" d="M1002.146,820.943l-1.474-.015,10.454-58.161,1.421.292Z" transform="translate(-900.445 -614.961)" fill="#131e44"/>
          <path id="Path_413" data-name="Path 413" d="M966.046,821.762l-6.915-56.738,1.433-.147,6.916,56.885Z" transform="translate(-878.895 -616.056)" fill="#131e44"/>
          <path id="Path_414" data-name="Path 414" d="M1038.362,821.622l-6.916-56.825,1.433-.19,6.916,57.015Z" transform="translate(-916.409 -615.916)" fill="#131e44"/>
          <path id="Path_415" data-name="Path 415" d="M997.117,618.238c-2.547-7.983-10.439-31.6-9.329-28.846,9.8,24.276,14.772,29.957,14.772,29.957Z" transform="translate(-893.706 -524.908)" fill="#56678c" opacity="0.4" style="mix-blend-mode: multiply;isolation: isolate"/>
          <path id="Path_416" data-name="Path 416" d="M921.529,623.157l3.505-9.146-1.108,22.411Z" transform="translate(-859.389 -537.794)" fill="#56678c" opacity="0.4" style="mix-blend-mode: multiply;isolation: isolate"/>
          <path id="Path_417" data-name="Path 417" d="M918.166,529.447l2.138-.482-.487,5.173Z" transform="translate(-857.644 -493.676)" fill="#f9b39d" opacity="0.4" style="mix-blend-mode: multiply;isolation: isolate"/>
          <path id="Path_418" data-name="Path 418" d="M926.617,496.61c.212.288.045.771-.374,1.079s-.93.324-1.142.036-.045-.771.374-1.079S926.405,496.321,926.617,496.61Z" transform="translate(-861.195 -476.785)" fill="#f9b39d" opacity="0.4" style="mix-blend-mode: multiply;isolation: isolate"/>
          <path id="Path_419" data-name="Path 419" d="M906.938,494.737c0,.57.211,1.031.472,1.031s.471-.462.471-1.031-.211-1.031-.471-1.031S906.938,494.167,906.938,494.737Z" transform="translate(-851.82 -475.386)"/>
          <path id="Path_420" data-name="Path 420" d="M904.491,515.022c-.558,0-1.154-.419-1.772-1.249l.385-.288c.561.752,1.072,1.117,1.487,1.047.476-.076.791-.732.873-.978l.457.15c-.015.048-.39,1.163-1.251,1.3A1.112,1.112,0,0,1,904.491,515.022Z" transform="translate(-849.631 -485.646)"/>
          <path id="Path_421" data-name="Path 421" d="M948.754,712.2a37.433,37.433,0,0,0,28.64,1.011c.953-.365-1.978,5.8-14.257,5.663C955.95,718.8,948.754,712.2,948.754,712.2Z" transform="translate(-873.512 -588.732)" fill="#1e2d56" opacity="0.4" style="mix-blend-mode: multiply;isolation: isolate"/>
        </g>
        <path id="Path_422" data-name="Path 422" d="M850.984,874.13l8.284-7.229,13.335-1.025,2.013,7.076Z" transform="translate(-822.794 -668.449)" fill="#60443d"/>
        <path id="Path_423" data-name="Path 423" d="M801.984,876.13l8.284-7.229,13.335-1.025,2.013,7.076Z" transform="translate(-797.375 -669.487)" fill="#60443d"/>
      </g>
      <g id="Group_30203" data-name="Group 30203" transform="translate(168.708 129.98)">
        <path id="Path_424" data-name="Path 424" d="M367.89,634.97l-8.931-48.279,41.759.451L393.76,635.5Z" transform="translate(-354.918 -379.099)" fill="#e3ecff"/>
        <path id="Path_425" data-name="Path 425" d="M365.178,307.818s-25.826-101.695-8.816-152c3.3-9.75,26.086,131.265,11.279,152.82l2.872,54.289-2.872.195Z" transform="translate(-350.563 -155.331)" fill="#d2e7ff"/>
        <path id="Path_426" data-name="Path 426" d="M396.392,431V385.054s8.677-108.033,11.62-98.086c13.207,44.65-8.223,97.917-8.719,97.917-.994,0-1.021,46.111-1.021,46.111Z" transform="translate(-374.337 -223.282)" fill="#d2e7ff"/>
        <path id="Path_427" data-name="Path 427" d="M412.761,448.146l3.565-35.465s12.606-85.185,32.707-93.064c0,0-12.675,89.264-30.344,94.964l-3,34.026Z" transform="translate(-382.828 -240.555)" fill="#d2e7ff"/>
      </g>
      <path id="Path_428" data-name="Path 428" d="M1379.837,758.013h-48.363s2.524-12.122,24.181-12.122S1379.837,758.013,1379.837,758.013Z" transform="translate(-690.702 -331.704)" fill="#131e44"/>
      <g id="Group_30204" data-name="Group 30204" transform="translate(248.694 271.861)" opacity="0.4" style="mix-blend-mode: multiply;isolation: isolate">
        <path id="Path_429" data-name="Path 429" d="M538.668,486.628c-1.316-.348-3.01-4.057-5.187-2.235-2.121,1.775-.5,4.4,1.105,5.828-1.148-1.322-1.771-2.945-.059-4.378,1.981-1.657,3.428.794,4.664,1.513C539.011,487.1,538.836,486.857,538.668,486.628Z" transform="translate(-524.911 -467.653)" fill="#59281b"/>
        <path id="Path_430" data-name="Path 430" d="M549.992,451.159c5.291,10.35,1.881,12.743-.2,15.73-.777,1.118,5.246,6.485,6.574,7.749a58.48,58.48,0,0,1-4.651-5.631c3.555-1.975,4.45-6.611-.841-16.962a6.205,6.205,0,0,0-1.556-1.9A5.55,5.55,0,0,1,549.992,451.159Z" transform="translate(-533.654 -450.149)" fill="#59281b"/>
        <path id="Path_431" data-name="Path 431" d="M528.626,507.544l-5.569,3.432a32.25,32.25,0,0,1-6.291-4.717,32.4,32.4,0,0,0,7.177,5.6l5.569-3.431.222-6.554s-.371-.209-.9-.566Z" transform="translate(-516.766 -476.689)" fill="#59281b"/>
        <path id="Path_432" data-name="Path 432" d="M563.4,507.2a.884.884,0,0,1-.229-.051,5.187,5.187,0,0,1,.127,6.138c-1.888,2.669-5.853,1.8-7.815,1.15a4.831,4.831,0,0,1-.266.451s6.4,2.911,8.967-.715C566.734,510.571,563.4,507.2,563.4,507.2Z" transform="translate(-536.712 -479.72)" fill="#59281b"/>
      </g>
      <ellipse id="Ellipse_737" data-name="Ellipse 737" cx="68.588" cy="4.723" rx="68.588" ry="4.723" transform="translate(572.177 475.941)" fill="#ebebfc" style="mix-blend-mode: multiply;isolation: isolate"/>
      <path id="Path_433" data-name="Path 433" d="M128.936,752.013H177.3s-2.524-12.122-24.181-12.122S128.936,752.013,128.936,752.013Z" transform="translate(-66.886 -328.591)" fill="#131e44"/>
      <ellipse id="Ellipse_738" data-name="Ellipse 738" cx="42.029" cy="2.166" rx="42.029" ry="2.166" transform="translate(527.611 524.966)" fill="#ebebfc" style="mix-blend-mode: multiply;isolation: isolate"/>
      <path id="Path_434" data-name="Path 434" d="M1257.279,872.9v9.229H1220.43l19.788-8.81Z" transform="translate(-633.098 -397.591)" fill="#8e372e"/>
      <path id="Path_435" data-name="Path 435" d="M151.062,535.217l-.871-2.814,3.774,6Z" transform="translate(-77.912 -220.957)" fill="#f9b39d" opacity="0.4" style="mix-blend-mode: multiply;isolation: isolate"/>
      <g id="Group_30207" data-name="Group 30207" transform="translate(39.889 270.404)">
        <path id="Path_436" data-name="Path 436" d="M134.346,692.9s3.929,18.212,18.879,21.51c9.754,2.152,40.43-6.282,40.43-6.282l.472-27.157-27.6,6.739S144.863,696.281,134.346,692.9Z" transform="translate(-109.58 -568.432)" fill="#808cff"/>
        <g id="Group_30206" data-name="Group 30206">
          <path id="Path_437" data-name="Path 437" d="M237.047,675.6s19.091-8.075,23.852-3.679c9.128,8.428-31.338,82.2-31.338,82.2l-12.478-1.554,27.355-49.779-7.863-.033Z" transform="translate(-152.5 -563.054)" fill="#f9917d"/>
          <ellipse id="Ellipse_739" data-name="Ellipse 739" cx="54.199" cy="4.723" rx="54.199" ry="4.723" transform="translate(0 205.537)" fill="#ebebfc" style="mix-blend-mode: multiply;isolation: isolate"/>
          <path id="Path_438" data-name="Path 438" d="M209.277,827.7a9.481,9.481,0,0,1-1.844-1.871s8-17.2,13.877-17.82c0,0,12.079,4.8,10.239,7.355-15.539,21.6-8.45,32.552-15.781,29.871-2.767-1.012-7.258-9.723-3.207-20.8C213.617,821.547,209.277,827.7,209.277,827.7Z" transform="translate(-147.494 -634.331)" fill="#471e15"/>
          <path id="Path_439" data-name="Path 439" d="M214.732,845.124l6.325-14.5-4.71,5.54Z" transform="translate(-151.281 -646.065)" fill="#59281b" opacity="0.4" style="mix-blend-mode: multiply;isolation: isolate"/>
          <path id="Path_440" data-name="Path 440" d="M247.881,688.8s19.6-6.439,24.357-2.042c9.128,8.428-23.279,75.756-23.279,75.756l-10.8-.424L253.574,709.9l-6.068.438Z" transform="translate(-163.432 -570.636)" fill="#f9b39d"/>
          <path id="Path_441" data-name="Path 441" d="M143.056,717.174s2.62,4.25,6.6,2.836,14.865-11.756,14.865-11.756S149.685,719.759,143.056,717.174Z" transform="translate(-114.099 -582.584)" fill="#808cff" opacity="0.4" style="mix-blend-mode: multiply;isolation: isolate"/>
          <path id="Path_442" data-name="Path 442" d="M190.283,572.815l13.624-21.705,14.993,9.218-12.524,21Z" transform="translate(-138.598 -501.065)" fill="#d5dbef"/>
          <path id="Path_443" data-name="Path 443" d="M150.675,460.867s-6.834-13.662,3.121-13.746c11.074-.093,5.344,12.756,5.344,12.756Z" transform="translate(-116.864 -447.121)" fill="#60443d"/>
          <path id="Path_444" data-name="Path 444" d="M159.122,447.347c-.165,0-.312.07-.467.079,9.9.576,4.482,12.786,4.482,12.786h1.329S170.2,447.254,159.122,447.347Z" transform="translate(-122.191 -447.238)" fill="#60443d" opacity="0.4" style="mix-blend-mode: multiply;isolation: isolate"/>
          <path id="Path_445" data-name="Path 445" d="M115.631,512.4s21.073-28.344,29.134-25.925,9.435,7.9,9.435,7.9-5.92,9.321-6.323,11.74-.99,6.643-.99,6.643l-2.406-2.5-5.05,5.552s-5.281.722-6.3-4.49l-.871-2.814-2.879,3.809C126.208,512.244,119.524,511.833,115.631,512.4Z" transform="translate(-99.872 -467.46)" fill="#f9b39d"/>
          <path id="Path_446" data-name="Path 446" d="M131.78,484.416s-5.24,12.092,0,11.69a38.891,38.891,0,0,0,10.629-2.719s1.518-7.163,4.742-6.357,2.284,5.468,2.284,5.468,9.246.112,11.665-4.725-5.2-15.907-14.066-15.5S134.966,476.7,131.78,484.416Z" transform="translate(-107.041 -460.161)" fill="#60443d"/>
          <g id="Group_30205" data-name="Group 30205" transform="translate(22.807 13.945)" opacity="0.4" style="mix-blend-mode: multiply;isolation: isolate">
            <path id="Path_447" data-name="Path 447" d="M146.252,501c-3.225-.806-3.992,3.521-5.019,4.954-1.623,2.264-5.113,3.719-10.353,4.122a2.749,2.749,0,0,1-.6-.022,1.848,1.848,0,0,0,1.932.908,38.889,38.889,0,0,0,10.629-2.719s1.518-7.163,4.742-6.357c.07.017.136.039.2.06A2.81,2.81,0,0,0,146.252,501Z" transform="translate(-130.277 -488.966)" fill="#60443d"/>
            <path id="Path_448" data-name="Path 448" d="M175.307,476.1c4.743,3.513,7.626,9.542,6.006,12.782-1.824,3.647-7.529,4.48-10.225,4.67a7.665,7.665,0,0,1-.111.941s9.246.112,11.665-4.725C184.409,486.233,180.822,479.382,175.307,476.1Z" transform="translate(-151.391 -476.097)" fill="#60443d"/>
          </g>
          <path id="Path_449" data-name="Path 449" d="M93,581.587l8.143-.719s9.04,31.351,12.982,43.846,23.541-4.554,30.067-12.12l-3.577-11.873c0-1.953,2.513-17.116,4.383-24.636,0,0-1.777-28.171-19.733-34.919-21.381-8.036-26.162-6.01-31.4,6.888S93,581.587,93,581.587Z" transform="translate(-87.242 -493.436)" fill="#f2785f"/>
          <path id="Path_450" data-name="Path 450" d="M94.842,629.518s7.611,27.595,10.48,28.152,5.437-2.249,5.437-2.249L102.985,628.8Z" transform="translate(-89.088 -541.367)" fill="#f9b39d"/>
          <path id="Path_451" data-name="Path 451" d="M154.807,696.275a175.523,175.523,0,0,0-7.648-28.441c-7.117-19.139-15.839-28.981-25.924-29.252-5.185-.139-9,1.592-11.379,5.146-9.226,13.811,6.661,50.751,8.224,54.3l-13.763,59.984,1.482,0,13.8-60.129-.1-.22a175.147,175.147,0,0,1-8.444-24.494,44,44,0,0,0,6.935.464,90.59,90.59,0,0,0,10.566-.678c11.206-1.321,16.017-2.691,17.708-3.286a176,176,0,0,1,7.12,26.843Zm-43.75-51.746c2.08-3.114,5.5-4.624,10.139-4.5,9.057.243,16,9.216,21.074,19.94-.753.657-4.154,2.592-17.71,3.3-6.734.351-13.455.41-15.461.421C107.959,656.065,108.111,648.939,111.057,644.529Zm17.328,26.992c-10.549,1.244-16.2.4-17.714.11-.52-2.161-.978-4.344-1.342-6.5,5.087.022,26,.069,32.9-3.383a2,2,0,0,0,.628-.52c1.053,2.317,2.024,4.7,2.911,7.084C144.229,668.854,139.543,670.206,128.385,671.522Z" transform="translate(-94.003 -546.437)" fill="#131e44"/>
          <path id="Path_452" data-name="Path 452" d="M185.793,821.963h-1.584l11.063-60.41,1.42.291Z" transform="translate(-135.447 -610.232)" fill="#131e44"/>
          <path id="Path_453" data-name="Path 453" d="M150.483,823.558l-7.205-58.743,1.433-.187,7.055,58.93Z" transform="translate(-114.214 -611.828)" fill="#131e44"/>
          <path id="Path_454" data-name="Path 454" d="M222.486,823.72l-6.893-58.643,1.433-.137,7.064,58.78Z" transform="translate(-151.728 -611.99)" fill="#131e44"/>
          <path id="Path_455" data-name="Path 455" d="M163.709,510.983c-.187.556-.554.935-.821.845s-.33-.613-.143-1.169.554-.935.821-.845S163.9,510.427,163.709,510.983Z" transform="translate(-124.257 -479.636)" fill="#f9b39d" opacity="0.4" style="mix-blend-mode: multiply;isolation: isolate"/>
          <path id="Path_456" data-name="Path 456" d="M178.368,519.757c-.252.456-.292.916-.09,1.028s.57-.167.822-.622.292-.915.089-1.028S178.62,519.3,178.368,519.757Z" transform="translate(-132.304 -484.465)" fill="#0c0c0c"/>
          <path id="Path_457" data-name="Path 457" d="M168.861,535.833a.668.668,0,0,1-.353-.1c-.482-.294-.423-1.125-.414-1.219l.479.043c-.022.25.022.667.185.765.106.065.322,0,.59-.167l.259.406A1.443,1.443,0,0,1,168.861,535.833Z" transform="translate(-127.084 -492.458)" fill="#0c0c0c"/>
          <path id="Path_458" data-name="Path 458" d="M158.477,597.769l12.6,30.612L155.7,600.595Z" transform="translate(-120.66 -525.27)" fill="#f2785f" opacity="0.4" style="mix-blend-mode: multiply;isolation: isolate"/>
          <path id="Path_459" data-name="Path 459" d="M173.049,591.652s10.455,24.787,14.67,27.109c15.195,8.373,12.051-44.045,12.051-44.045s2.745-14.839-8.57-14.839c-3.793,0,.643,14.839.643,14.839L190.078,596.8l-2.669-8.6A18.353,18.353,0,0,1,173.049,591.652Z" transform="translate(-129.658 -505.613)" fill="#f9b39d"/>
          <path id="Path_460" data-name="Path 460" d="M112.718,529.1l-7.662,7.461s5.089,4.784,10.869-1.5c0,0,4.761,5.292,8.01,4.165a9.837,9.837,0,0,0,4.729-3.338S118.926,527.3,112.718,529.1Z" transform="translate(-94.386 -489.521)" fill="#f99180"/>
          <path id="Path_461" data-name="Path 461" d="M107.574,612.619l-4.129-14.849,1.234,15.306Z" transform="translate(-93.55 -525.27)" fill="#f2785f" opacity="0.4" style="mix-blend-mode: multiply;isolation: isolate"/>
          <path id="Path_462" data-name="Path 462" d="M183.4,639.575a1.741,1.741,0,0,1-.564-.1c-6.158-2.131-21.2-40.095-21.834-41.71l.448-.177c.155.393,15.593,39.373,21.544,41.431a.95.95,0,0,0,.829-.038l.243.416A1.3,1.3,0,0,1,183.4,639.575Z" transform="translate(-123.408 -525.175)" fill="#0c0c0c"/>
        </g>
      </g>
      <g id="Group_30210" data-name="Group 30210" transform="translate(239.709 204.671)">
        <g id="Group_30209" data-name="Group 30209">
          <ellipse id="Ellipse_740" data-name="Ellipse 740" cx="54.199" cy="4.723" rx="54.199" ry="4.723" transform="translate(12.284 271.271)" fill="#ebebfc" style="mix-blend-mode: multiply;isolation: isolate"/>
          <g id="Group_30208" data-name="Group 30208">
            <path id="Path_463" data-name="Path 463" d="M569.673,752.013h48.363s-2.524-12.122-24.181-12.122S569.673,752.013,569.673,752.013Z" transform="translate(-535.227 -533.262)" fill="#131e44"/>
            <path id="Path_464" data-name="Path 464" d="M554.975,691.34l41.657-3.191,43.284-6.547,32.345,93.175-14.29.008-36.329-64.679s-39.081,8.063-50.549,2.71C565.01,709.977,554.975,691.34,554.975,691.34Z" transform="translate(-527.602 -503.025)" fill="#997773"/>
            <path id="Path_465" data-name="Path 465" d="M560.74,710.231s23.319,2.858,36.919-14.713l47.782,2.722L664.764,782l-13.488-.482-25.024-59.548s-42.126,3.952-53.594-1.4C566.575,717.726,560.74,710.231,560.74,710.231Z" transform="translate(-530.593 -510.244)" fill="#af918c"/>
            <path id="Path_466" data-name="Path 466" d="M528.243,538.228s23.084,2.937,36.919-14.713l-10.341-23.859s17.1,13.317,15.105-2.957-22.555-39.526-29.234-42.8c-6.6-3.233-22.195-5.234-22.195-5.234s-6.448-65.364,0-83.673c.792-2.248-13.02-.178-13.02-.178s-16.61,63.12,0,110.293S528.243,538.228,528.243,538.228Z" transform="translate(-498.096 -338.24)" fill="#93a2f9"/>
            <path id="Path_467" data-name="Path 467" d="M546.461,758.337l-1.407-.323,13.763-59.984c-1.564-3.552-17.45-40.492-8.224-54.3,2.374-3.554,6.2-5.286,11.379-5.146,10.086.271,18.808,10.113,25.924,29.252a175.57,175.57,0,0,1,7.648,28.441l-1.424.236c-.092-.559-9.51-55.878-32.186-56.487-4.642-.12-8.059,1.391-10.139,4.5-9.052,13.551,8.264,52.74,8.44,53.134l.1.22Z" transform="translate(-522.456 -480.704)" fill="#131e44"/>
            <path id="Path_468" data-name="Path 468" d="M564.721,705.427a34.616,34.616,0,0,1-8.11-.7l.373-1.395-.187.7.186-.7c.055.014,5.688,1.448,18.134-.019,14.3-1.687,17.973-3.434,18.008-3.452l.639,1.3c-.154.076-3.929,1.875-18.478,3.59A90.559,90.559,0,0,1,564.721,705.427Z" transform="translate(-528.451 -512.498)" fill="#131e44"/>
            <path id="Path_469" data-name="Path 469" d="M626.913,821.451h-1.467l10.378-58.1,1.421.26Z" transform="translate(-564.159 -545.431)" fill="#131e44"/>
            <rect id="Rectangle_3340" data-name="Rectangle 3340" width="1.444" height="57.277" transform="translate(41.349 218.747) rotate(-6.935)" fill="#131e44"/>
            <path id="Path_470" data-name="Path 470" d="M595.282,616.574l-19.19-27.242,24.476,39.646Z" transform="translate(-538.557 -455.159)" fill="#808cff" opacity="0.4" style="mix-blend-mode: multiply;isolation: isolate"/>
            <path id="Path_471" data-name="Path 471" d="M532.276,496.3s-9-33.82-1.468-42.238,8.416,11.243,12.846,13.488a30.039,30.039,0,0,0,7.389,2.778l-3.992,2.448s4.692,10.29,1.919,12.557c-2.539,2.077-8.2.7-8.2.7l2.881,10.27Z" transform="translate(-513.507 -383.91)" fill="#f9b39d"/>
            <path id="Path_472" data-name="Path 472" d="M531.163,533.628l-6.777.678,3.889-10.946Z" transform="translate(-511.734 -420.937)" fill="#808cff" opacity="0.4" style="mix-blend-mode: multiply;isolation: isolate"/>
            <path id="Path_473" data-name="Path 473" d="M537.29,475.288s-2.228-.006-8.623-8.627c3.555-1.975,4.45-6.611-.841-16.962-2.878-5.63-17.762-8.253-22.51,11.532-3.2,13.337,12.463,21.745,12.463,21.745l5.569-3.431.222-6.554s-7.013-3.933-3.351-7c2.177-1.822,3.71,1.322,5.027,1.671,2.3,3.151,6.069,8.945,5.191,12.1a11.344,11.344,0,0,1-1.329,3.214s6.4,2.911,8.967-.715C540.625,478.654,537.29,475.288,537.29,475.288Z" transform="translate(-501.618 -380.612)" fill="#59281b"/>
            <path id="Path_474" data-name="Path 474" d="M513.436,337.265s5.27-18.271,17.27-26.568c3.245-2.244-4.749,19.2-4.749,19.2s5.332-7.7,6.237-4.379l-5.739,11.747Z" transform="translate(-506.054 -310.532)" fill="#f9b39d"/>
            <path id="Path_475" data-name="Path 475" d="M531.6,540.411l1.756-4.331h11.547l4.622,4.331Z" transform="translate(-515.478 -427.535)" fill="#ebebfc"/>
            <path id="Path_476" data-name="Path 476" d="M512.44,362.464l-.924,5.449,12.582,1.854,1.362-5.653Z" transform="translate(-505.058 -337.472)" fill="#ebebfc"/>
            <path id="Path_477" data-name="Path 477" d="M564.143,715.625c9.151.423,20.189-1.1,30.736-10.062,0,0-3.477,12.069-21.858,12.266C567.2,717.892,564.143,715.625,564.143,715.625Z" transform="translate(-532.358 -515.454)" fill="#af918c" opacity="0.4" style="mix-blend-mode: multiply;isolation: isolate"/>
            <path id="Path_478" data-name="Path 478" d="M770.159,866.529l1.67,9.485,31.615.122-21.116-10.26Z" transform="translate(-639.229 -598.617)" fill="#152344"/>
            <path id="Path_479" data-name="Path 479" d="M746.153,865.571l1.348,10.34,32.77-.042-20.777-10.418Z" transform="translate(-626.776 -598.396)" fill="#1e2d56"/>
            <path id="Path_480" data-name="Path 480" d="M558.868,687.5c-3.2,0-5.215-.136-5.278-.141l.1-1.44c.2.013,19.919,1.337,34.248-4.493l.544,1.337C578.439,686.849,565.849,687.5,558.868,687.5Z" transform="translate(-526.884 -502.932)" fill="#131e44"/>
            <path id="Path_481" data-name="Path 481" d="M697.344,749.786l3.771-.943-.854,8.272Z" transform="translate(-601.456 -537.906)" fill="#af918c" opacity="0.4" style="mix-blend-mode: multiply;isolation: isolate"/>
          </g>
        </g>
      </g>
      <path id="Path_482" data-name="Path 482" d="M236.257,833.123A9.458,9.458,0,0,1,233.882,832s1.6-18.9,6.912-21.5c0,0,12.992.356,12.142,3.39-7.175,25.621,3.245,33.474-4.56,33.474-2.946,0-10.156-6.639-10.156-18.432C238.22,825.854,236.257,833.123,236.257,833.123Z" transform="translate(-121.326 -365.218)" fill="#59281b"/>
      <path id="Path_483" data-name="Path 483" d="M244.454,850.41l.962-15.786-2.52,6.821Z" transform="translate(-126.002 -377.734)" fill="#59281b" opacity="0.4" style="mix-blend-mode: multiply;isolation: isolate"/>
      <path id="Path_484" data-name="Path 484" d="M1375.042,653.832l-8.472-32.944,28.767.224,10.842.084-6.6,33Z" transform="translate(-708.908 -266.858)" fill="#fff"/>
      <g id="Group_30211" data-name="Group 30211" transform="translate(687.829 201.208)">
        <path id="Path_485" data-name="Path 485" d="M1470.827,648.805l-9.862-38.352,46.112-.2-7.682,38.418Z" transform="translate(-1445.704 -462.548)" fill="#e3ecff"/>
        <path id="Path_486" data-name="Path 486" d="M1503.246,303.83c-41.717,40.971-14.2,113.515-14.2,113.515h.083v35.114h3.205l-.054-36.829C1506.761,403.027,1512.059,295.174,1503.246,303.83Z" transform="translate(-1455.652 -303.336)" fill="#e9f0ff"/>
        <path id="Path_487" data-name="Path 487" d="M1439.766,348.976c-28.9,46.824,10.955,85.966,10.955,85.966s6.925,6.462,6.928,6.462l2.419,37.544h3.35l-2.8-37.916C1461.349,409.206,1446.254,338.464,1439.766,348.976Z" transform="translate(-1429.255 -326.464)" fill="#e9f0ff"/>
        <path id="Path_488" data-name="Path 488" d="M1524.009,475.272l-3.843,29.526,2.745.105,6.049-29.408s41.69-21.351,13.7-71.557C1542.665,403.939,1528.3,454.368,1524.009,475.272Z" transform="translate(-1476.415 -355.524)" fill="#e9f0ff"/>
      </g>
      <path id="Path_489" data-name="Path 489" d="M1373.3,647.064a35.242,35.242,0,0,1-30.545-13.487l9.586-21.6s-15.851,12.057-14-2.677,20.909-35.784,27.1-38.747c6.119-2.927,20.575-4.738,20.575-4.738s12.493-.412,7.618,25.921C1385.37,636.376,1373.3,647.064,1373.3,647.064Z" transform="translate(-694.187 -238.289)" fill="#2b76ff"/>
      <path id="Path_490" data-name="Path 490" d="M1423.659,524.444s12.184-30.782,5.2-38.4-13.34,11.119-17.446,13.152a29.267,29.267,0,0,1-6.849,2.541l3.7,2.23s-4.35,9.323-1.78,11.375c2.355,1.88,7.8-.181,7.8-.181l-3.385,9.906Z" transform="translate(-728.619 -195.966)" fill="#f9b39d"/>
      <path id="Path_491" data-name="Path 491" d="M1361.707,650.821l10.137-10.126-15.6,22.446Z" transform="translate(-703.549 -277.134)" fill="#93a2f9" opacity="0.4" style="mix-blend-mode: multiply;isolation: isolate"/>
      <path id="Path_492" data-name="Path 492" d="M1332.734,719.257S1316.3,722.3,1302.9,704.98c0,0-32.061,1.217-39.084,7.922-6.148,5.871-3.041,73.457-3.041,73.457h17.062l-5-60.062s37.255,11.532,48.56,6.256C1327.387,729.754,1332.734,719.257,1332.734,719.257Z" transform="translate(-653.618 -310.481)" fill="#ad827b"/>
      <path id="Path_493" data-name="Path 493" d="M1307.8,713.993s-16.432,3.045-29.838-14.277c0,0-40.182-9.129-47.2-2.424-6.148,5.871-18.839,83.8-18.839,83.8H1228.6l13.836-64.749s38.3,14.939,50.445,12.09C1305.871,725.387,1307.8,713.993,1307.8,713.993Z" transform="translate(-628.682 -305.217)" fill="#af918c"/>
      <path id="Path_494" data-name="Path 494" d="M1378.987,719.257c-9.021.417-20.138-1.862-29.839-14.277,0,0,1.27,14.852,19.017,16.483A20.153,20.153,0,0,0,1378.987,719.257Z" transform="translate(-699.871 -310.481)" fill="#af918c" opacity="0.4" style="mix-blend-mode: multiply;isolation: isolate"/>
      <path id="Path_495" data-name="Path 495" d="M1206.335,873.322l-.419,8.81H1169l21.623-9.229Z" transform="translate(-606.419 -397.591)" fill="#9b4a3a"/>
      <path id="Path_496" data-name="Path 496" d="M1423.24,483.751c-1.169,1.936,1.677,7.848,3.985,8.119s0,9.08,0,9.08l1.025.839s3.646-6.593,5-2.934c.955,2.578-3.81,9.786-3.81,9.786l7.2,2.888s8.282-10.89,9.585-15.144C1449.855,484.538,1431.021,470.863,1423.24,483.751Z" transform="translate(-738.165 -193.019)" fill="#a52f0f"/>
      <path id="Path_497" data-name="Path 497" d="M1389.107,711.849a52.178,52.178,0,0,1-7.608-.585c-13.211-1.95-16.655-4-16.8-4.09l.759-1.229c.029.017,3.459,2,16.248,3.89,11.191,1.652,17.157-.865,17.216-.89l.58,1.323C1399.314,710.352,1395.8,711.849,1389.107,711.849Z" transform="translate(-707.94 -310.982)" fill="#131e44"/>
      <path id="Path_498" data-name="Path 498" d="M1397.289,694.462c-11.536,0-20.082-1.356-25.457-4.043l.646-1.291c6.067,3.034,16.535,4.3,30.957,3.774.547-.02.721-.034,1.2-.034v1.444c-.481,0-.628.013-1.15.033C1401.361,694.423,1399.245,694.462,1397.289,694.462Z" transform="translate(-711.638 -302.258)" fill="#131e44"/>
      <path id="Path_499" data-name="Path 499" d="M1358.785,826.591l-10.374-57.733,1.421-.239,10.443,57.972Z" transform="translate(-699.488 -343.494)" fill="#131e44"/>
      <path id="Path_500" data-name="Path 500" d="M1398.732,827.466l-1.454,0,6.916-56.859,1.433.174Z" transform="translate(-724.838 -344.524)" fill="#131e44"/>
      <path id="Path_501" data-name="Path 501" d="M1326.424,827.7h-1.462l6.916-56.938,1.433.213Z" transform="translate(-687.324 -344.608)" fill="#131e44"/>
      <path id="Path_502" data-name="Path 502" d="M1395.329,764.428l-11.439-58.268.093-.208c1.529-3.427,13.3-38.983,5.293-51.322a8.664,8.664,0,0,0-7.782-4.106h0c-22.662,0-31.309,53.646-31.393,54.187l-1.427-.182a162.228,162.228,0,0,1,7.26-27.558c6.862-18.465,15.462-27.891,25.56-27.891h0a10.136,10.136,0,0,1,8.993,4.763c8.189,12.618-3.209,47.887-5.094,52.44l11.41,58.142Z" transform="translate(-699.623 -281.483)" fill="#131e44"/>
      <g id="Group_30213" data-name="Group 30213" transform="translate(533.65 394.903)">
        <path id="Path_503" data-name="Path 503" d="M1175.913,834.278h-54.787s2.859-13.732,27.393-13.732S1175.913,834.278,1175.913,834.278Z" transform="translate(-1115.234 -765.334)" fill="#131e44"/>
        <path id="Path_504" data-name="Path 504" d="M1153.257,910.879l-11.986-65.758,1.42-.258,12.03,66Z" transform="translate(-1125.685 -777.948)" fill="#131e44"/>
        <path id="Path_505" data-name="Path 505" d="M1239.417,910.879l-11.986-65.758,1.42-.258,12.03,66Z" transform="translate(-1170.38 -777.948)" fill="#131e44"/>
        <path id="Path_506" data-name="Path 506" d="M1197.781,910.287h-1.453l7.835-66.625,1.433.168Z" transform="translate(-1154.245 -777.326)" fill="#131e44"/>
        <path id="Path_507" data-name="Path 507" d="M1110.339,909.17l-1.455.013,7.834-67.359,1.434.166Z" transform="translate(-1108.884 -776.372)" fill="#131e44"/>
        <path id="Path_508" data-name="Path 508" d="M1200.526,782.872a68.929,68.929,0,0,1-9.893-.784c-13.618-1.98-17.142-4.052-17.285-4.139l.528-1.321c.032.019,3.584,2.062,16.9,4,11.679,1.7,16.967.036,17.019.02l.308,1.423A26.5,26.5,0,0,1,1200.526,782.872Z" transform="translate(-1142.325 -742.552)" fill="#131e44"/>
        <path id="Path_509" data-name="Path 509" d="M1204.154,763.146c-6.982,0-16.426-.973-23.122-5.422l.566-1.3c11.32,7.522,31.55,4.7,31.753,4.672l.139,1.464A70.919,70.919,0,0,1,1204.154,763.146Z" transform="translate(-1146.311 -732.072)" fill="#131e44"/>
        <g id="Group_30212" data-name="Group 30212" transform="translate(23.783)">
          <path id="Path_510" data-name="Path 510" d="M1199.278,712.55c7.941,14.663-5.7,55.173-7.667,60.835h1.3c2.659-7.658,15.51-46.6,7.358-61.653-2.208-4.077-5.781-6.07-10.592-5.9-9.413.312-17.561,11.664-24.215,33.74a241.914,241.914,0,0,0-7.161,32.85l1.178.241c.087-.647,8.921-64.653,30.231-65.359C1194.094,707.161,1197.314,708.922,1199.278,712.55Z" transform="translate(-1158.303 -705.82)" fill="#131e44"/>
        </g>
      </g>
      <path id="Path_511" data-name="Path 511" d="M1342.669,620.092s7.621-.834,7.865.221-6.665,2.017-6.665,2.017,5.046,2.449,4.529,5.534a5.926,5.926,0,0,1-10.5,3.175C1335.574,627.87,1336.17,620.584,1342.669,620.092Z" transform="translate(-693.391 -266.283)" fill="#f9b39d"/>
      <path id="Path_512" data-name="Path 512" d="M1411.112,532.835a2.929,2.929,0,0,1-1.9-1.028l.367-.311c.008.01.8.914,1.614.855a1.462,1.462,0,0,0,1.078-.823l.412.249a1.907,1.907,0,0,1-1.453,1.054C1411.193,532.833,1411.152,532.835,1411.112,532.835Z" transform="translate(-731.031 -220.486)"/>
      <path id="Path_513" data-name="Path 513" d="M1422.823,547.762l2.837-.682-4.645,6.044Z" transform="translate(-737.151 -228.571)" fill="#f9b39d" opacity="0.4" style="mix-blend-mode: multiply;isolation: isolate"/>
      <path id="Path_514" data-name="Path 514" d="M1424.942,514.689c-.317.574-.755.94-.978.817s-.148-.689.168-1.263.755-.94.978-.817S1425.259,514.114,1424.942,514.689Z" transform="translate(-738.615 -211.1)"/>
      <path id="Path_515" data-name="Path 515" d="M1404.7,566.424l7.59-5.344h12.766l.9,5.124S1412.978,566.715,1404.7,566.424Z" transform="translate(-728.688 -235.833)" fill="#4b7abf"/>
      <g id="Group_30214" data-name="Group 30214" transform="translate(452.112 143.293)">
        <path id="Path_516" data-name="Path 516" d="M1097.066,263.223l.444-7.429c-1.786.01-4.4-.668-6.134-4.192-2.845-5.8-.578-19.718-.578-19.718s13.81-3.858,15.581.667-.286,17.516-.286,17.516l.1,11.875Z" transform="translate(-1017.519 -207.561)" fill="#f9b39d"/>
        <path id="Path_517" data-name="Path 517" d="M1088.391,236.357l.495-4.23s-2.232-10.319,2.48-6.34c1.712,1.446,5.86,3.5,9.734-.331,1.57-1.553,2.953,4.887,2.772,8.253-.163,3.026.981,2.395.981,2.395s6.687-11.209,3.385-16.531C1103.4,211.773,1080.461,203.021,1088.391,236.357Z" transform="translate(-1015.858 -198.242)" fill="#1e2d56"/>
        <path id="Path_518" data-name="Path 518" d="M1123.812,554.425c0-7.333-7.931-115.667-7.931-115.667l-35.933,2.507a951.292,951.292,0,0,1-8.823,114.782l13.14.5c2.473-10.419,8.161-61.875,14.369-94.245,7.871,32.122,9.649,82.591,12.574,92.905Z" transform="translate(-1007.758 -315.672)" fill="#808cff"/>
        <path id="Path_519" data-name="Path 519" d="M1154.413,687.958l26.974-.143c1.14-4.654-14.369-8.712-14.369-8.712l-12.6.787Z" transform="translate(-1050.964 -440.351)" fill="#1e2d56"/>
        <path id="Path_520" data-name="Path 520" d="M1071.518,689.357l-25.6-.568c-1.005-4.32,12.1-6.586,12.1-6.586l13.386-.253Z" transform="translate(-994.655 -441.828)" fill="#1e2d56"/>
        <path id="Path_521" data-name="Path 521" d="M1174.93,467.24s-2.565,9.434-.773,8c1.961-1.565,1.784,3.71,1.784,3.71s2.609,6.765,6.283.654c.73-1.213,1.354-11.469,1.354-11.469Z" transform="translate(-1060.876 -330.447)" fill="#f9b39d"/>
        <path id="Path_522" data-name="Path 522" d="M1095.976,252.743c0,.568-.133,1.029-.3,1.03s-.3-.461-.3-1.029.133-1.03.3-1.03S1095.975,252.175,1095.976,252.743Z" transform="translate(-1020.338 -218.643)"/>
        <path id="Path_523" data-name="Path 523" d="M1113.62,253.717c0,.569-.133,1.03-.3,1.03s-.3-.46-.3-1.029.133-1.03.3-1.03S1113.619,253.149,1113.62,253.717Z" transform="translate(-1029.49 -219.148)"/>
        <path id="Path_524" data-name="Path 524" d="M1120.424,247.8l-.438-.25c.415-.728,2.539-4.368,3.832-4.28a.785.785,0,0,1,.683.556l-.464.2c-.1-.241-.208-.247-.248-.249C1123.068,243.725,1121.391,246.106,1120.424,247.8Z" transform="translate(-1033.104 -214.264)"/>
        <path id="Path_525" data-name="Path 525" d="M992.839,284.937l8.33-5.318s9.746,14.641,12.12,16.625c2.35,1.965,15.6-5.381,31.4-8.822,8.9-1.937,21.118-.247,27.756,4.569,8.571,6.218,13.945,30.932,15.193,40.5,2.818,21.592,3.378,39.327,3.378,39.327l-10.215-1.935c0-6.05-3.656-36.785-3.656-36.785s-8.8-25.718-8.753-25.293c2.711,25.218,9.7,58.672,9.7,58.672l-18.15,1.18-2.26-9.716-.98,9.948-20.754.936c1.419-15.733-2.831-62.133-2.831-62.133s-15.883,4.178-21.008,3.616C1004.044,309.424,992.839,284.937,992.839,284.937Z" transform="translate(-967.147 -233.119)" fill="#3d50a0"/>
        <path id="Path_526" data-name="Path 526" d="M1100.579,290.947l1.356-3.411,5.265,1.3,4.959-2.425,2.974,4.668-3.268,37.878Z" transform="translate(-1023.037 -236.644)" fill="#fff"/>
        <path id="Path_527" data-name="Path 527" d="M1112.457,315.553l.122-17.78-1.7-3.224,1.738-3.116,2.471,2.76-.773,2.8,4.412,16.945-1.442,18.887Z" transform="translate(-1028.383 -239.248)" fill="#e0624c"/>
        <ellipse id="Ellipse_741" data-name="Ellipse 741" cx="1.172" cy="1.254" rx="1.172" ry="1.254" transform="translate(88.538 100.314)" fill="#d0dcfc"/>
        <path id="Path_528" data-name="Path 528" d="M1105.549,280.373a13.628,13.628,0,0,0,5.1-2.512c1.352-1.025-.961,4.411-5.21,4.344Z" transform="translate(-1025.558 -232.14)" fill="#f9b39d" opacity="0.4" style="mix-blend-mode: multiply;isolation: isolate"/>
        <path id="Path_529" data-name="Path 529" d="M1103,274.689a.963.963,0,0,1-.144-.011c-.782-.111-1.14-1.094-1.155-1.136l.475-.169c.074.205.353.75.752.806.346.048.787-.273,1.26-.932l.41.295C1104.049,274.3,1103.512,274.689,1103,274.689Z" transform="translate(-1023.619 -229.814)"/>
        <path id="Path_530" data-name="Path 530" d="M1103.123,262.018l1.636-.178.054.5-2.266.246.541-4.122.5.06" transform="translate(-1024.058 -222.146)"/>
        <path id="Path_531" data-name="Path 531" d="M1124.811,254.427c.3-.462,2.3-1.334,2.2.191-.306,4.8-2.638,3.6-2.638,3.6S1124.289,255.225,1124.811,254.427Z" transform="translate(-1035.378 -219.703)" fill="#f9b39d"/>
        <path id="Path_532" data-name="Path 532" d="M1087.057,251.244s-1.911-1.18-1.8.344c.319,4.25,2.317,3.538,2.317,3.538Z" transform="translate(-1015.089 -218.173)" fill="#f9b39d"/>
        <path id="Path_533" data-name="Path 533" d="M1091.7,253.606a3.884,3.884,0,0,1-3.419-2.224,3.983,3.983,0,0,1-.265-2.891,3.412,3.412,0,0,1,1.767-2.131,3.32,3.32,0,0,1,1.474-.341,3.887,3.887,0,0,1,3.42,2.224,3.718,3.718,0,0,1-1.5,5.022A3.314,3.314,0,0,1,1091.7,253.606Zm-.443-7.084a2.815,2.815,0,0,0-1.251.29,2.911,2.911,0,0,0-1.506,1.822,3.477,3.477,0,0,0,.234,2.526,3.375,3.375,0,0,0,2.966,1.942,2.814,2.814,0,0,0,1.251-.289,3.213,3.213,0,0,0,1.272-4.348A3.377,3.377,0,0,0,1091.253,246.523Z" transform="translate(-1016.436 -215.689)"/>
        <path id="Path_534" data-name="Path 534" d="M1110.589,255.164a3.884,3.884,0,0,1-3.419-2.224,3.717,3.717,0,0,1,1.5-5.022,3.318,3.318,0,0,1,1.474-.341,3.886,3.886,0,0,1,3.419,2.224,3.718,3.718,0,0,1-1.5,5.022A3.32,3.32,0,0,1,1110.589,255.164Zm-.443-7.084a2.814,2.814,0,0,0-1.251.289,3.213,3.213,0,0,0-1.272,4.348,3.377,3.377,0,0,0,2.967,1.942,2.813,2.813,0,0,0,1.251-.289,3.214,3.214,0,0,0,1.272-4.348A3.378,3.378,0,0,0,1110.145,248.08Z" transform="translate(-1026.238 -216.496)"/>
        <path id="Path_535" data-name="Path 535" d="M966.5,225.048l2.537-1.074s-23.053-33.057-28.988-40.366C934.736,177.062,966.5,225.048,966.5,225.048Z" transform="translate(-939.453 -182.995)"/>
        <path id="Path_536" data-name="Path 536" d="M994.254,268.436s-2.748-9.758-4.749-10.505,0,5.252,0,5.252a6.528,6.528,0,0,0-7.292-3.737c-2.379.467-2.721,6.558,5.28,13.848Z" transform="translate(-960.865 -221.834)" fill="#f9b39d"/>
        <path id="Path_537" data-name="Path 537" d="M997.476,273.722a11.724,11.724,0,0,1-.084,1.25c-.123,1.031-.427,2.392-1.177,2.82" transform="translate(-968.898 -230.06)" fill="#f9b39d" opacity="0.4" style="mix-blend-mode: multiply;isolation: isolate"/>
        <path id="Path_538" data-name="Path 538" d="M1084.7,569.053l-.5-.055L1095.637,463.8l.607-.027Z" transform="translate(-1014.541 -328.651)" fill="#808cff" opacity="0.4" style="mix-blend-mode: multiply;isolation: isolate"/>
        <path id="Path_539" data-name="Path 539" d="M1159.607,567.12l-11.073-105.652.5-.033,11.071,105.633Z" transform="translate(-1047.914 -327.436)" fill="#808cff" opacity="0.4" style="mix-blend-mode: multiply;isolation: isolate"/>
      </g>
      <g id="Group_30217" data-name="Group 30217" transform="translate(315.859 287.7)">
        <path id="Path_540" data-name="Path 540" d="M838.393,676.192s10.488-13.184,17.526-11.446c14.659,3.62-14.142,117.985-14.142,117.985h-12.64S829.137,701.379,838.393,676.192Z" transform="translate(-745.974 -577.228)" fill="#fca38b"/>
        <g id="Group_30216" data-name="Group 30216">
          <path id="Path_541" data-name="Path 541" d="M663.27,822.351,656.33,765.2l1.433-.114,6.916,57.267Z" transform="translate(-656.33 -629.36)" fill="#131e44"/>
          <ellipse id="Ellipse_742" data-name="Ellipse 742" cx="78.434" cy="4.723" rx="78.434" ry="4.723" transform="translate(15.205 231.737)" fill="#ebebfc" style="mix-blend-mode: multiply;isolation: isolate"/>
          <path id="Path_542" data-name="Path 542" d="M828.332,889.08h15.75s-2.953,22.893-1.134,25.243c4.456,5.759,18.4,9.248,16.433,15.52l-22.473-.021-2.97-9.746-1.527,9.745-4.7.022.42-40.764" transform="translate(-745.235 -693.683)" fill="#4f3631"/>
          <path id="Path_543" data-name="Path 543" d="M732.873,536.011s14.091,8.945,15.814-10.373c.158-1.78,5.1-1.607,4.464-3.011-.889-1.97-5.877-5.556-5.877-5.556l-4.809-11.313s-25.883,16.516-9.593,30.253" transform="translate(-693.245 -494.835)" fill="#f9b39d"/>
          <path id="Path_544" data-name="Path 544" d="M764.76,527.571c-1.179,0-1.815-2.606-1.815-5.059s.636-5.059,1.815-5.059,1.815,2.607,1.815,5.059S765.939,527.571,764.76,527.571Zm0-9.637c-.557,0-1.334,1.742-1.334,4.578s.777,4.578,1.334,4.578,1.333-1.741,1.333-4.578S765.317,517.934,764.76,517.934Z" transform="translate(-711.637 -500.902)"/>
          <path id="Path_545" data-name="Path 545" d="M750.156,579.455s.173-4.429,4.672-4.374c1.656.02,0,6.638,0,6.638s3.991-4.116,4.858-3.549c5.265,3.44-2.308,5.573-2.308,5.573h-7.25Z" transform="translate(-704.988 -530.796)" fill="#fff"/>
          <path id="Path_546" data-name="Path 546" d="M877.453,705.036s12.4-16.487,17.526-11.36-14.141,118.069-14.141,118.069H868.2S868.2,730.223,877.453,705.036Z" transform="translate(-766.237 -591.805)" fill="#f9b39d"/>
          <path id="Path_547" data-name="Path 547" d="M734.529,826.278h54.786s-2.859-13.732-27.393-13.732S734.529,826.278,734.529,826.278Z" transform="translate(-696.896 -653.981)" fill="#131e44"/>
          <path id="Path_548" data-name="Path 548" d="M801.722,903.131l-1.445-.122,12.031-66,1.42.258Z" transform="translate(-731.002 -666.671)" fill="#131e44"/>
          <path id="Path_549" data-name="Path 549" d="M761.8,902.508l-7.893-66.534,1.434-.168,7.835,66.625Z" transform="translate(-706.95 -666.048)" fill="#131e44"/>
          <path id="Path_550" data-name="Path 550" d="M849.16,901.254l-7.807-67.12,1.434-.166,7.824,67.272Z" transform="translate(-752.311 -665.094)" fill="#131e44"/>
          <path id="Path_551" data-name="Path 551" d="M881.148,676.659s10.787-13.777,14.205-11.971,8.785,16.319,6.344,14.192c-3.12-2.719-12.957,6.9-12.957,6.9Z" transform="translate(-772.954 -577.195)" fill="#fca38b"/>
          <path id="Path_552" data-name="Path 552" d="M816.569,671.271l24.846-3.354,2.563,7.877L820.03,686.77Z" transform="translate(-739.454 -578.955)" fill="#576dc9"/>
          <path id="Path_553" data-name="Path 553" d="M868.584,889.08h16.279s-3.241,22.893-1.423,25.243c4.456,5.759,19.309,9.248,17.346,15.52l-23.386-.021-2.97-9.746-1.527,9.745-4.705-.065.261-40.678" transform="translate(-766.237 -693.683)" fill="#60443d"/>
          <path id="Path_554" data-name="Path 554" d="M857.5,661.521s7.963-8.835,11.381-7.03,7.544,13.792,5.155,11.608c-7.96-7.277-7.761,3.682-7.761,3.682Z" transform="translate(-760.687 -571.864)" fill="#f9b39d"/>
          <path id="Path_555" data-name="Path 555" d="M857.5,664.667s2.193-8.7,4.368-7.775,0,9.221,0,9.221,4.776-3.059,5.288-2.013-3.113,3.836-3.113,3.836,10.838-1.809,6.975,1.463-11.922,3.312-11.922,3.312Z" transform="translate(-760.687 -573.2)" fill="#fff"/>
          <path id="Path_556" data-name="Path 556" d="M748.531,525.621c-12.841-3.247-17.157-2.078-18.586-1.092a1.537,1.537,0,0,0-.729.887l-.478-.055a1.923,1.923,0,0,1,.934-1.228c1.828-1.261,6.605-2.107,18.977,1.022Z" transform="translate(-693.892 -503.778)"/>
          <path id="Path_557" data-name="Path 557" d="M764.328,553.867c-.037,0-.073,0-.11-.005a1.777,1.777,0,0,1-1.22-.952l.43-.217c0,.007.332.642.838.69.342.03.72-.213,1.117-.728l.381.294A1.925,1.925,0,0,1,764.328,553.867Z" transform="translate(-711.664 -519.163)"/>
          <path id="Path_558" data-name="Path 558" d="M761.327,525.062c0,.854-.29,1.547-.646,1.547s-.646-.692-.646-1.547.289-1.547.646-1.547S761.327,524.208,761.327,525.062Z" transform="translate(-710.127 -504.046)"/>
          <path id="Path_559" data-name="Path 559" d="M741.924,538.578c0,.332-.606.6-1.355.6s-1.355-.269-1.355-.6.606-.6,1.355-.6S741.924,538.246,741.924,538.578Z" transform="translate(-699.326 -511.549)" fill="#f9b39d" opacity="0.4" style="mix-blend-mode: multiply;isolation: isolate"/>
          <path id="Path_560" data-name="Path 560" d="M894.178,745.438l5.69-6.062v4.556Z" transform="translate(-779.714 -616.024)" fill="#f9b39d" opacity="0.4" style="mix-blend-mode: multiply;isolation: isolate"/>
          <path id="Path_561" data-name="Path 561" d="M738.674,734.359s8.5,25.171,34.564,19.719c20.777-4.346,40.41-30.782,40.41-30.782s-3.326-24.261-10.077-25.762C766.7,689.336,759.82,743.973,738.674,734.359Z" transform="translate(-699.046 -593.882)" fill="#e0624c"/>
          <path id="Path_562" data-name="Path 562" d="M718.29,678.821s12.816,8.328,43.574-9.756c2.738-1.61,31.379-20.642,31.379-20.642l-6.388-10.616-26.914,11.714c-4.165-20.045-10.926-50.823-19.224-54.575-14.1-6.374-37.166-9.044-40.37,3.772-2.269,9.073-.761,67.037,6.773,69.065,2.5.673,7.834-1.392,7.834-1.392C714.954,672.5,715.865,675.723,718.29,678.821Z" transform="translate(-678.662 -538.344)" fill="#6979d6"/>
          <path id="Path_563" data-name="Path 563" d="M701.7,484.585s2.279,3.133,5.412,2.278,10.2-.885,10.544,6.2c.284,5.877-5.726,4.716-6.3,6.425s-.853,10.371-4.248,7.6c-4.516-3.69-9.135,2.35-6.571,5.7s7.14,1.132,7.425,3.411-4.272,5.7-1.994,8.545,6.415,9.009,3.918,19.652c-1.727,7.363-9.045,10.966-16.494,7.363,0,0-2.282,11.435-12.2,11.435-11.184,0-17.891-11.948-5.127-39.3,3.007-6.443-2.474-10.488-.274-18.1,1.656-5.733,7.11-5.822,7.679-8.527S683.473,478.034,701.7,484.585Z" transform="translate(-662.969 -483.061)" fill="#9b4a3a"/>
          <g id="Group_30215" data-name="Group 30215" transform="translate(8.321 4.9)" opacity="0.4" style="mix-blend-mode: multiply;isolation: isolate">
            <path id="Path_564" data-name="Path 564" d="M710.254,550.628c-.108-.859-.826-1.079-1.817-1.2-.672,2.216-3.87,5.127-1.886,7.607,2.278,2.848,6.415,9.009,3.918,19.652-1.727,7.363-9.045,10.965-16.494,7.363,0,0-2.282,11.435-12.2,11.435a11.423,11.423,0,0,1-8.152-3.022c2.148,3.5,5.693,5.158,9.861,5.158,9.921,0,12.2-11.435,12.2-11.435,7.449,3.6,14.767,0,16.494-7.363,2.5-10.643-1.64-16.8-3.918-19.652S710.538,552.907,710.254,550.628Z" transform="translate(-673.62 -522.389)" fill="#9b4a3a"/>
            <path id="Path_565" data-name="Path 565" d="M748.794,498.346a6.427,6.427,0,0,0-2.39-5.1,7.851,7.851,0,0,1,.681,2.967c.284,5.876-5.726,4.715-6.3,6.424s-.854,10.371-4.249,7.6c-4.516-3.69-9.134,2.35-6.571,5.7a4.829,4.829,0,0,0,1.16,1.092c-1.115-3.392,3.043-7.99,7.12-4.659,3.4,2.774,3.679-5.888,4.249-7.6S749.077,504.223,748.794,498.346Z" transform="translate(-702.47 -493.243)" fill="#9b4a3a"/>
          </g>
          <path id="Path_566" data-name="Path 566" d="M770.851,654.929s15.914,53.44,22,50.725-7.16,4.011-7.16,4.011Z" transform="translate(-715.738 -572.217)" fill="#6979d6" opacity="0.4" style="mix-blend-mode: multiply;isolation: isolate"/>
          <path id="Path_567" data-name="Path 567" d="M711.415,828.267l-1.566-.112,15.562-67.82c-1.693-3.839-19.787-45.811-9.338-61.453,2.67-4,6.973-5.95,12.807-5.787,11.382.306,21.234,11.434,29.28,33.076a198.7,198.7,0,0,1,8.659,32.2l-1.424.236c-.1-.634-10.787-63.377-36.554-64.07-5.3-.134-9.192,1.59-11.568,5.146-10.282,15.391,9.354,59.837,9.553,60.284l.1.22Z" transform="translate(-684.093 -592.012)" fill="#131e44"/>
          <path id="Path_568" data-name="Path 568" d="M731.88,768.618a39.084,39.084,0,0,1-9.159-.787l.372-1.4c.063.016,6.456,1.645,20.579-.019,16.1-1.9,20.393-3.9,20.435-3.92l.635,1.3c-.173.086-4.436,2.117-20.9,4.057A102.553,102.553,0,0,1,731.88,768.618Z" transform="translate(-690.771 -628.018)" fill="#131e44"/>
          <path id="Path_569" data-name="Path 569" d="M730.483,749.282a105.208,105.208,0,0,1-11.29-.573l.168-1.434c.246.029,24.714,2.79,38.4-4.58l.685,1.271C750.345,748.328,738.924,749.282,730.483,749.282Z" transform="translate(-688.94 -617.747)" fill="#131e44"/>
          <path id="Path_570" data-name="Path 570" d="M881.148,684.1s2.951-5.4,5.155-5.228-.4,8.452-.4,8.452,3.943-7.354,6.041-5.654-3.694,8.734-3.694,8.734,7.1-3.086,7.1-.184-7.817,4.5-7.817,4.5Z" transform="translate(-772.954 -584.634)" fill="#fff"/>
          <path id="Path_571" data-name="Path 571" d="M725.422,713.568l-5.864-32.594,2.5,33.448Z" transform="translate(-689.13 -585.728)" fill="#6979d6" opacity="0.4" style="mix-blend-mode: multiply;isolation: isolate"/>
          <path id="Path_572" data-name="Path 572" d="M744.09,771.655s10.661,3.768,29.188-4.832c4.506-2.092-8.085,8.785-19.827,9.887C747.322,777.286,744.09,771.655,744.09,771.655Z" transform="translate(-701.856 -630.124)" fill="#e0624c" opacity="0.4" style="mix-blend-mode: multiply;isolation: isolate"/>
        </g>
      </g>
      <g id="Group_30219" data-name="Group 30219" transform="translate(128.904 288.21)">
        <path id="Path_573" data-name="Path 573" d="M335.042,822.278h54.787s-2.859-13.732-27.393-13.732S335.042,822.278,335.042,822.278Z" transform="translate(-302.707 -652.416)" fill="#131e44"/>
        <path id="Path_574" data-name="Path 574" d="M328.6,748.546s3.516,14.187,20.141,15.294,60.479-20.05,60.479-20.05l9.745,79.839H436.24s-2.658-115.3-7.087-118.9S338.969,735.368,328.6,748.546Z" transform="translate(-299.365 -598.423)" fill="#1e2d56"/>
        <path id="Path_575" data-name="Path 575" d="M550.211,867.444l3.687,9.133,38.171-10.314-24.713-4.892Z" transform="translate(-414.326 -679.82)"/>
        <path id="Path_576" data-name="Path 576" d="M496.122,783.25l3.544-2.464-2.1,14.3Z" transform="translate(-386.267 -638.016)" fill="#131e44" opacity="0.4" style="mix-blend-mode: multiply;isolation: isolate"/>
        <rect id="Rectangle_3341" data-name="Rectangle 3341" width="0.481" height="90.499" transform="matrix(0.936, -0.353, 0.353, 0.936, 107.251, 112.242)" fill="#0c0c0c"/>
        <path id="Path_577" data-name="Path 577" d="M441.782,688.772l2.992,2.333v-6.771Z" transform="translate(-358.079 -587.981)" fill="#182c66" opacity="0.4" style="mix-blend-mode: multiply;isolation: isolate"/>
        <ellipse id="Ellipse_743" data-name="Ellipse 743" cx="78.434" cy="4.723" rx="78.434" ry="4.723" transform="translate(12.679 229.813)" fill="#ebebfc" style="mix-blend-mode: multiply;isolation: isolate"/>
        <path id="Path_578" data-name="Path 578" d="M277.18,618.04s-14.2,64.295-7.557,68.122,17.94-9.07,17.94-9.07S274.105,636.507,277.18,618.04Z" transform="translate(-267.853 -553.591)" fill="#5a97ff"/>
        <path id="Path_579" data-name="Path 579" d="M376.594,703.319s56.391-55.516,61.51-54.11c11.96,3.285,39.3,102.079,39.3,102.079l-17.152,6.19L431.738,681.9,389.6,698.81Z" transform="translate(-324.262 -569.747)" fill="#243c70"/>
        <path id="Path_580" data-name="Path 580" d="M300.447,535.356s-5.608-33.774.976-39.09a78.946,78.946,0,0,1,12.793-8.414s3.994,11.777,6.825,16.73c1.772,3.1,6.642,4.425,9.078,6.954,1.11,1.152-7.31,2.563-7.31,2.563s3.152,10.85,0,12.624c-6.2,3.488-11.876-1.039-11.876-1.039l3.621,11.365H300.521" transform="translate(-283.606 -486.057)" fill="#f9b39d"/>
        <path id="Path_581" data-name="Path 581" d="M303.986,689.261h0s27.66,1.691,37.627-12.939c2.7-3.956-17.9-47.231-17.9-47.231s29.563,33.021,37.315,28.831c6.6-3.566,11.985-13.964,17.554-34.82l-9.6-1.081-10.829,16.06s-38.621-49.936-52.528-49.936c-18.4,0-14.337-3.44-16.36,0C283.53,597.889,268.056,602.19,303.986,689.261Z" transform="translate(-274.672 -537.29)" fill="#5a97ff"/>
        <path id="Path_582" data-name="Path 582" d="M287.013,524.787a8.267,8.267,0,0,0,7.269-5.316c.966-2.362,2.476-7.309,2.476-7.309s-5.537-8.033,0-10.676c4.174-1.992,5.184,5.714,5.184,5.714h2.79s-4.873-14.855,1.772-20.75-17.276,1.432-23.92-.033-5.759-.017-5.759-.017l3.543,4.075S264.421,508.4,287.013,524.787Z" transform="translate(-271.511 -484.121)" fill="#a52f0f"/>
        <g id="Group_30218" data-name="Group 30218" transform="translate(5.272 0.124)" opacity="0.4" style="mix-blend-mode: multiply;isolation: isolate">
          <path id="Path_583" data-name="Path 583" d="M332.223,484.473c-5.415,6.357-.567,16.971-.193,22,.06.8-2.581-2.081-2.581-2.081a15.523,15.523,0,0,1,.788,2.946h2.79s-4.873-14.855,1.772-20.75C337.214,484.442,335.588,484.192,332.223,484.473Z" transform="translate(-305.078 -484.379)" fill="#a52f0f"/>
          <path id="Path_584" data-name="Path 584" d="M279.319,487.817c-.7.16-.466.54-.466.54l3.543,4.056c.281-.361-1.771-3.1-1.771-3.1Z" transform="translate(-278.812 -486.162)" fill="#a52f0f"/>
          <path id="Path_585" data-name="Path 585" d="M297.676,515.682c-5.762,2.109-.332,11.739-.332,11.739a39.218,39.218,0,0,1-2.215,5.869c-2.436,4.873-4.612,6.977-7.863,4.54-4.887-3.663-6.577-5.628-8.458-8.412,1.763,3.754,4.94,7.675,10.23,11.513a8.267,8.267,0,0,0,7.269-5.316c.966-2.362,2.476-7.309,2.476-7.309s-5.33-7.483,0-10.521c1.943-1.107,2.718.323,3.442.94C301.55,516.619,301.608,514.242,297.676,515.682Z" transform="translate(-278.808 -500.389)" fill="#a52f0f"/>
        </g>
        <path id="Path_586" data-name="Path 586" d="M516,952.08v10.588h42.261L533.454,952.08Z" transform="translate(-396.579 -726.874)"/>
        <path id="Path_587" data-name="Path 587" d="M297.279,580.912l-4.312,7.866s20.249-1.088,31.51,3.039c3.929,1.439-13.548-9.83-13.548-9.83Z" transform="translate(-280.881 -534.331)" fill="#5a97ff"/>
        <path id="Path_588" data-name="Path 588" d="M321.916,563.933l-2.521-2.215,4.772,9.237Z" transform="translate(-294.59 -524.375)" fill="#f9b39d" opacity="0.4" style="mix-blend-mode: multiply;isolation: isolate"/>
        <path id="Path_589" data-name="Path 589" d="M356.241,662.09l-12.531-11.862,16.7,20.851Z" transform="translate(-307.203 -570.289)" fill="#182c66" opacity="0.4" style="mix-blend-mode: multiply;isolation: isolate"/>
        <path id="Path_590" data-name="Path 590" d="M322.632,531.086c.338.611.319,1.268-.042,1.468s-.928-.134-1.266-.745-.319-1.269.042-1.468S322.294,530.475,322.632,531.086Z" transform="translate(-295.465 -508.068)" fill="#f9b39d" opacity="0.4" style="mix-blend-mode: multiply;isolation: isolate"/>
        <path id="Path_591" data-name="Path 591" d="M340.227,521.368c.243.853.227,1.606-.038,1.682s-.677-.555-.921-1.408-.227-1.606.038-1.682S339.983,520.514,340.227,521.368Z" transform="translate(-304.81 -502.709)" fill="#070100"/>
        <path id="Path_592" data-name="Path 592" d="M344.36,549.463c-.843,0-1.7-1.188-1.805-1.332l.394-.277c.34.483,1.048,1.215,1.488,1.12.322-.068.493-.6.579-1.029l.472.094c-.167.835-.487,1.308-.952,1.406A.838.838,0,0,1,344.36,549.463Z" transform="translate(-306.605 -517.182)" fill="#070100"/>
        <path id="Path_593" data-name="Path 593" d="M399.155,902.153h-1.53L409.764,834.5l1.421.287Z" transform="translate(-335.172 -665.879)" fill="#131e44"/>
        <path id="Path_594" data-name="Path 594" d="M355.4,903.035l-7.835-66.713L349,836.2l7.835,66.837Z" transform="translate(-309.205 -666.761)" fill="#131e44"/>
        <path id="Path_595" data-name="Path 595" d="M441.241,903.035l-7.835-66.713,1.434-.124,7.835,66.837Z" transform="translate(-353.734 -666.761)" fill="#131e44"/>
        <path id="Path_596" data-name="Path 596" d="M485.265,713.764l-.723-3.163-4.765,5.365Z" transform="translate(-377.789 -601.608)" fill="#091538" opacity="0.4" style="mix-blend-mode: multiply;isolation: isolate"/>
        <path id="Path_597" data-name="Path 597" d="M463.809,649.013s5.855-10.062,9.26-10.336c6.29-.507,12.271,5.9,12.271,5.9s-7.915,1.127-11.949,5.9Z" transform="translate(-369.505 -564.282)" fill="#f9b39d"/>
        <path id="Path_598" data-name="Path 598" d="M331.532,791.333s10.929,0,18.363-2.025a38.2,38.2,0,0,0,13.231-6.044c-2.1,1.539-6.18,10.216-20.331,10.057A49.381,49.381,0,0,1,331.532,791.333Z" transform="translate(-300.886 -639.301)" fill="#1e2d56" opacity="0.4" style="mix-blend-mode: multiply;isolation: isolate"/>
        <path id="Path_599" data-name="Path 599" d="M363.817,736.662l12.037-3.38s9.1,16.358,1.509,19.512C366.435,757.336,363.817,736.662,363.817,736.662Z" transform="translate(-317.634 -613.373)" fill="#182c66" opacity="0.2" style="mix-blend-mode: multiply;isolation: isolate"/>
        <path id="Path_600" data-name="Path 600" d="M308.755,828.759l-1.407-.323,15.6-67.982c-1.692-3.839-19.787-45.81-9.337-61.453,2.67-4,6.981-5.95,12.807-5.787,11.382.306,21.233,11.434,29.28,33.075a198.726,198.726,0,0,1,8.66,32.2l-1.424.236c-.1-.634-10.787-63.377-36.554-64.07-5.289-.135-9.192,1.589-11.568,5.146-10.282,15.391,9.354,59.838,9.553,60.284l.1.22Z" transform="translate(-288.341 -592.583)" fill="#131e44"/>
        <path id="Path_601" data-name="Path 601" d="M329.455,767.332a39.042,39.042,0,0,1-9.159-.788l.373-1.4c.064.017,6.455,1.646,20.579-.019,15.984-1.885,20.253-5.191,20.294-5.224l.918,1.114c-.176.146-4.49,3.592-21.043,5.543A102.562,102.562,0,0,1,329.455,767.332Z" transform="translate(-295.058 -627.184)" fill="#131e44"/>
        <path id="Path_602" data-name="Path 602" d="M322.093,748.23c-2.927,0-4.891-.062-5.2-.072l.048-1.443c.312.01,31.321.972,39.177-5.2l.892,1.136C350.711,747.6,331.468,748.23,322.093,748.23Z" transform="translate(-293.293 -617.645)" fill="#131e44"/>
        <path id="Path_603" data-name="Path 603" d="M295.668,674.88c-.165-.46-16.5-46.187-15.045-62.614.725-8.167,5.646-15.227,5.7-15.3l.393.278c-.049.069-4.9,7.027-5.609,15.062-1.45,16.323,14.853,61.95,15.018,62.409Z" transform="translate(-274.43 -542.66)" fill="#2b76ff"/>
      </g>
    </g>
  </g>
</svg>
