<svg xmlns="http://www.w3.org/2000/svg" width="744.871" height="523.333" viewBox="0 0 744.871 523.333">
  <g id="top-img" transform="translate(-960 -234.667)">
    <ellipse id="Ellipse_32" data-name="Ellipse 32" cx="340" cy="19.5" rx="340" ry="19.5" transform="translate(1004 719)" fill="#f0efff"/>
    <g id="Group_89" data-name="Group 89" transform="translate(960 234.667)">
      <path id="Path_59" data-name="Path 59" d="M690.193,514.032H113.705c12.066-25.819,17.394-56.262,16.731-84.753-.56-23.991-5.763-47.733-5.737-71.731s6.3-49.6,24.324-65.449c26.468-23.267,66.778-17.485,101.152-9.716s73.931,15.143,101.984-6.187c26.819-20.392,31.274-57.971,40.383-90.408C400.433,157.7,414,130.173,436.667,111.8c20.616-16.712,47.036-24.534,73.2-29.009,27.508-4.705,55.962-6.106,83.177.07s53.2,20.468,69.937,42.8c12.822,17.1,19.678,38,23.694,58.992,5.571,29.129,5.9,60.074-5.1,87.615-4.636,11.6-11.209,22.444-14.709,34.437s-3.417,26.01,4.36,35.789c11.3,14.2,32.6,13.559,49.659,19.759,32.435,11.791,48.555,55.282,31.639,85.364-6.508,11.573-16.633,20.6-26.572,29.407C711.84,489.51,704.3,501.541,690.193,514.032Z" transform="translate(-48.114 -14.311)" fill="#92c2ff" opacity="0.3"/>
      <line id="Line_1" data-name="Line 1" x2="70.658" transform="translate(127.005 434.908)" fill="none" stroke="#bc5406" stroke-miterlimit="10" stroke-width="1.627"/>
      <line id="Line_2" data-name="Line 2" x2="51.202" transform="translate(127.005 456.413)" fill="none" stroke="#bc5406" stroke-miterlimit="10" stroke-width="1.627"/>
      <line id="Line_3" data-name="Line 3" x1="27.292" transform="translate(153.63 476.211)" fill="none" stroke="#bc5406" stroke-miterlimit="10" stroke-width="1.627"/>
      <line id="Line_4" data-name="Line 4" x2="13.313" transform="translate(112.669 478.091)" fill="none" stroke="#bc5406" stroke-miterlimit="10" stroke-width="1.627"/>
      <line id="Line_5" data-name="Line 5" x2="326.223" y2="0.937" transform="translate(119.99 498.709)" fill="none" stroke="#2d1a14" stroke-linejoin="round" stroke-width="1.627"/>
      <rect id="Rectangle_100" data-name="Rectangle 100" width="61.87" height="61.87" transform="translate(0 277.477)" fill="#5a97ff"/>
      <text id="_" data-name="#" transform="translate(15.783 317.863)" fill="#fff8f3" font-size="34" font-family="Montserrat-Bold, Montserrat" font-weight="700"><tspan x="0" y="0">#</tspan></text>
      <g id="Group_50" data-name="Group 50" transform="translate(261.541 164.714)">
        <rect id="Rectangle_101" data-name="Rectangle 101" width="167.221" height="42.935" transform="translate(3.39)" fill="#5a97ff"/>
        <path id="Path_60" data-name="Path 60" d="M307.513,196.185,283.786,223.3l51.974-21.468Z" transform="translate(-283.786 -161.159)" fill="#5a97ff"/>
        <line id="Line_6" data-name="Line 6" x2="134.455" transform="translate(19.208 14.688)" fill="none" stroke="#fff8f3" stroke-linecap="round" stroke-linejoin="round" stroke-width="1.961"/>
        <line id="Line_7" data-name="Line 7" x2="62.143" transform="translate(18.078 28.247)" fill="none" stroke="#fff8f3" stroke-linecap="round" stroke-linejoin="round" stroke-width="1.961"/>
      </g>
      <circle id="Ellipse_11" data-name="Ellipse 11" cx="4.218" cy="4.218" r="4.218" transform="translate(27.185 374.032)" fill="none" stroke="#2d1a14" stroke-linejoin="round" stroke-width="0.814"/>
      <circle id="Ellipse_12" data-name="Ellipse 12" cx="4.218" cy="4.218" r="4.218" transform="translate(332.785 265.291)" fill="none" stroke="#2d1a14" stroke-linejoin="round" stroke-width="0.814"/>
      <circle id="Ellipse_13" data-name="Ellipse 13" cx="4.218" cy="4.218" r="4.218" transform="translate(736.028 72.009)" fill="none" stroke="#2d1a14" stroke-linejoin="round" stroke-width="0.814"/>
      <path id="Path_61" data-name="Path 61" d="M384.856,417.123a3.749,3.749,0,1,1-3.749-3.749A3.749,3.749,0,0,1,384.856,417.123Z" transform="translate(-8.013 36.589)" fill="none" stroke="#2d1a14" stroke-linejoin="round" stroke-width="0.814"/>
      <path id="Path_62" data-name="Path 62" d="M209.476,108.524a5.156,5.156,0,1,1-5.156-5.156A5.156,5.156,0,0,1,209.476,108.524Z" transform="translate(-35.116 -10.563)" fill="none" stroke="#2d1a14" stroke-linejoin="round" stroke-width="0.814"/>
      <path id="Path_63" data-name="Path 63" d="M613.819,56.942a5.156,5.156,0,1,1-5.156-5.156A5.156,5.156,0,0,1,613.819,56.942Z" transform="translate(26.385 -18.408)" fill="none" stroke="#2d1a14" stroke-linejoin="round" stroke-width="0.814"/>
      <path id="Path_64" data-name="Path 64" d="M687.91,318.856a5.156,5.156,0,1,1-5.156-5.156A5.155,5.155,0,0,1,687.91,318.856Z" transform="translate(37.655 21.429)" fill="none" stroke="#2d1a14" stroke-linejoin="round" stroke-width="0.814"/>
      <circle id="Ellipse_14" data-name="Ellipse 14" cx="4.218" cy="4.218" r="4.218" transform="translate(39.372 57.183)" fill="none" stroke="#2d1a14" stroke-linejoin="round" stroke-width="0.814"/>
      <path id="Path_65" data-name="Path 65" d="M227.643,424.253l123.74-124.677c5.625,1.874,113.428,63.745,113.428,63.745L580.115,212.4l70.306,61.87,89.993-104.991" transform="translate(-30.784 -0.538)" fill="none" stroke="#2b76ff" stroke-linecap="round" stroke-linejoin="round" stroke-width="17.901"/>
      <circle id="Ellipse_15" data-name="Ellipse 15" cx="25.779" cy="25.779" r="25.779" transform="translate(285.547 304.194) rotate(-45)" fill="#5a97ff"/>
      <circle id="Ellipse_16" data-name="Ellipse 16" cx="25.779" cy="25.779" r="25.779" transform="translate(514.279 217.014) rotate(-45)" fill="#5a97ff"/>
      <circle id="Ellipse_17" data-name="Ellipse 17" cx="25.779" cy="25.779" r="25.779" transform="translate(407.233 382.418) rotate(-76.718)" fill="#5a97ff"/>
      <circle id="Ellipse_18" data-name="Ellipse 18" cx="25.779" cy="25.779" r="25.779" transform="translate(589.006 282.668) rotate(-60.482)" fill="#5a97ff"/>
      <path id="Path_66" data-name="Path 66" d="M711.016,130.759l-4.96,38.087-4.96,38.087-30.5-23.339-30.5-23.339,35.464-14.748Z" transform="translate(31.949 -6.397)" fill="#5a97ff"/>
      <g id="Group_51" data-name="Group 51" transform="translate(300.913 0)">
        <path id="Path_67" data-name="Path 67" d="M546.868,112.591a62.549,62.549,0,0,1-2.606,17.932c-.085.281-.169.562-.254.835A62.67,62.67,0,1,1,484.1,49.943h.122a62.653,62.653,0,0,1,62.648,62.648Z" transform="translate(-302.201 -18.689)" fill="#7bacff"/>
        <path id="Path_68" data-name="Path 68" d="M522.03,70.135l-46.064,50.734-.122-70.926h.122A62.476,62.476,0,0,1,522.03,70.135Z" transform="translate(-293.946 -18.689)" fill="#2369eb"/>
        <path id="Path_69" data-name="Path 69" d="M479.051,120.869,455.558,54.508a62.291,62.291,0,0,1,23.37-4.565h.018Z" transform="translate(-297.031 -18.689)" fill="#2b76ff"/>
        <path id="Path_70" data-name="Path 70" d="M538.6,109.925a62.553,62.553,0,0,1-2.606,17.932c-.085.281-.169.562-.254.835L475.949,118.2l46.064-50.734A62.437,62.437,0,0,1,538.6,109.925Z" transform="translate(-293.93 -16.023)" fill="#5a97ff"/>
        <path id="Path_71" data-name="Path 71" d="M542.279,121.16c-.085.281-.169.562-.254.835a62.669,62.669,0,0,1-107.42,21.935l47.631-32.425Z" transform="translate(-300.218 -9.325)" fill="#5485de"/>
        <path id="Path_72" data-name="Path 72" d="M447.219,121.674l-21.561-21.561h-94.68" transform="translate(-315.98 -11.058)" fill="none" stroke="#2d1a14" stroke-linejoin="round" stroke-width="0.814"/>
        <path id="Path_73" data-name="Path 73" d="M327.334,98.291a4.687,4.687,0,1,1-4.687-4.687A4.687,4.687,0,0,1,327.334,98.291Z" transform="translate(-317.96 -12.048)" fill="#2d1a14"/>
        <circle id="Ellipse_19" data-name="Ellipse 19" cx="4.687" cy="4.687" r="4.687" transform="translate(279.352 19.686)" fill="#2d1a14"/>
        <path id="Path_74" data-name="Path 74" d="M407.072,27.5a4.687,4.687,0,1,1-4.687-4.688A4.687,4.687,0,0,1,407.072,27.5Z" transform="translate(-305.832 -22.815)" fill="#2d1a14"/>
        <circle id="Ellipse_20" data-name="Ellipse 20" cx="4.687" cy="4.687" r="4.687" transform="translate(297.163 88.118)" fill="#2d1a14"/>
        <path id="Path_75" data-name="Path 75" d="M505.916,133.817h58.12l21.092-21.092" transform="translate(-289.372 -9.14)" fill="none" stroke="#2d1a14" stroke-miterlimit="10" stroke-width="0.814"/>
        <path id="Path_76" data-name="Path 76" d="M495.338,63.533l18.749-18.748h51.558" transform="translate(-290.981 -19.473)" fill="none" stroke="#2d1a14" stroke-miterlimit="10" stroke-width="0.814"/>
        <path id="Path_77" data-name="Path 77" d="M477.274,65.194,463.213,27.7h-52.5" transform="translate(-303.852 -22.072)" fill="none" stroke="#2d1a14" stroke-miterlimit="10" stroke-width="0.814"/>
      </g>
      <g id="Group_53" data-name="Group 53" transform="translate(76.816 83.557)">
        <rect id="Rectangle_102" data-name="Rectangle 102" width="61.87" height="61.87" fill="#5a97ff"/>
        <g id="Group_52" data-name="Group 52" transform="translate(15.391 12.186)">
          <rect id="Rectangle_103" data-name="Rectangle 103" width="6.188" height="14.187" transform="translate(22.158 18.622)" fill="#fff8f3"/>
          <rect id="Rectangle_104" data-name="Rectangle 104" width="6.774" height="25.151" transform="translate(11.432 7.659)" fill="#fff8f3"/>
          <rect id="Rectangle_105" data-name="Rectangle 105" width="6.774" height="32.81" fill="#fff8f3"/>
        </g>
        <line id="Line_8" data-name="Line 8" x2="42.184" transform="translate(8.437 49.683)" fill="none" stroke="#fff8f3" stroke-linecap="round" stroke-linejoin="round" stroke-width="1.961"/>
      </g>
      <g id="Group_54" data-name="Group 54" transform="translate(0.865 106.794)">
        <circle id="Ellipse_21" data-name="Ellipse 21" cx="18.28" cy="18.28" r="18.28" transform="translate(0 25.852) rotate(-45)" fill="#fa5b41"/>
        <path id="Path_78" data-name="Path 78" d="M73.657,139.673l4.687,6.562,10.312-15" transform="translate(-55.071 -113.118)" fill="none" stroke="#fff8f3" stroke-linecap="round" stroke-linejoin="round" stroke-width="1.961"/>
      </g>
      <g id="Group_55" data-name="Group 55" transform="translate(396.692 422.471)">
        <circle id="Ellipse_22" data-name="Ellipse 22" cx="18.28" cy="18.28" r="18.28" transform="translate(0 25.852) rotate(-45)" fill="#fa5b41"/>
        <path id="Path_79" data-name="Path 79" d="M417.227,413.674l4.687,6.562,10.312-15" transform="translate(-398.64 -387.119)" fill="none" stroke="#fff8f3" stroke-linecap="round" stroke-linejoin="round" stroke-width="1.961"/>
      </g>
      <g id="Group_56" data-name="Group 56" transform="translate(199.671 31.404)">
        <ellipse id="Ellipse_23" data-name="Ellipse 23" cx="18.28" cy="18.28" rx="18.28" ry="18.28" transform="translate(0 0)" fill="#fa5b41"/>
        <line id="Line_9" data-name="Line 9" x2="11.718" y2="18.28" transform="translate(12.655 9.843)" fill="none" stroke="#fff8f3" stroke-linecap="round" stroke-linejoin="round" stroke-width="1.961"/>
        <line id="Line_10" data-name="Line 10" x1="11.718" y2="18.28" transform="translate(12.655 9.843)" fill="none" stroke="#fff8f3" stroke-linecap="round" stroke-linejoin="round" stroke-width="1.961"/>
      </g>
      <g id="Group_57" data-name="Group 57" transform="translate(695.658 246.633)">
        <circle id="Ellipse_24" data-name="Ellipse 24" cx="18.28" cy="18.28" r="18.28" transform="translate(0 13.755) rotate(-22.1)" fill="#fa5b41"/>
        <line id="Line_11" data-name="Line 11" x2="11.718" y2="18.28" transform="translate(18.189 15.377)" fill="none" stroke="#fff8f3" stroke-linecap="round" stroke-linejoin="round" stroke-width="1.961"/>
        <line id="Line_12" data-name="Line 12" x1="11.718" y2="18.28" transform="translate(18.189 15.377)" fill="none" stroke="#fff8f3" stroke-linecap="round" stroke-linejoin="round" stroke-width="1.961"/>
      </g>
      <g id="Group_58" data-name="Group 58" transform="translate(544.68 279.44)">
        <path id="Path_80" data-name="Path 80" d="M536.963,279.386h0a7.033,7.033,0,0,1-7.013-7.012h0a7.033,7.033,0,0,1,7.013-7.012h0a7.033,7.033,0,0,1,7.012,7.012h0A7.033,7.033,0,0,1,536.963,279.386Z" transform="translate(-529.483 -265.363)" fill="#c2c0f2"/>
        <path id="Path_81" data-name="Path 81" d="M536.557,301.7h0a7.031,7.031,0,0,1-7.012-7.012h0a7.032,7.032,0,0,1,7.012-7.012h0a7.033,7.033,0,0,1,7.012,7.012h0A7.032,7.032,0,0,1,536.557,301.7Z" transform="translate(-529.545 -261.969)" fill="#c2c0f2"/>
        <path id="Path_82" data-name="Path 82" d="M542.325,324.8h0a7.032,7.032,0,0,1-9.916,0h0a7.032,7.032,0,0,1,0-9.916h0a7.032,7.032,0,0,1,9.916,0h0A7.032,7.032,0,0,1,542.325,324.8Z" transform="translate(-529.421 -258.141)" fill="#c2c0f2"/>
      </g>
      <g id="Group_59" data-name="Group 59" transform="translate(673.951 41.364)">
        <path id="Path_83" data-name="Path 83" d="M649.167,72.741h0a7.033,7.033,0,0,1-7.012-7.012h0a7.033,7.033,0,0,1,7.012-7.012h0a7.032,7.032,0,0,1,7.012,7.012h0A7.032,7.032,0,0,1,649.167,72.741Z" transform="translate(-641.687 -58.718)" fill="#c2c0f2"/>
        <path id="Path_84" data-name="Path 84" d="M648.761,95.057h0a7.032,7.032,0,0,1-7.012-7.012h0a7.033,7.033,0,0,1,7.012-7.012h0a7.033,7.033,0,0,1,7.013,7.012h0A7.032,7.032,0,0,1,648.761,95.057Z" transform="translate(-641.749 -55.324)" fill="#c2c0f2"/>
        <path id="Path_85" data-name="Path 85" d="M654.529,118.159h0a7.032,7.032,0,0,1-9.916,0h0a7.032,7.032,0,0,1,0-9.916h0a7.032,7.032,0,0,1,9.916,0h0A7.03,7.03,0,0,1,654.529,118.159Z" transform="translate(-641.625 -51.496)" fill="#c2c0f2"/>
      </g>
      <g id="Group_60" data-name="Group 60" transform="translate(222.189 100.304)">
        <path id="Path_86" data-name="Path 86" d="M257.047,123.9h0a7.033,7.033,0,0,1-7.012-7.013h0a7.033,7.033,0,0,1,7.012-7.012h0a7.033,7.033,0,0,1,7.013,7.012h0A7.033,7.033,0,0,1,257.047,123.9Z" transform="translate(-249.567 -109.877)" fill="#c2c0f2"/>
        <path id="Path_87" data-name="Path 87" d="M256.642,146.218h0a7.033,7.033,0,0,1-7.013-7.012h0a7.033,7.033,0,0,1,7.013-7.013h0a7.033,7.033,0,0,1,7.012,7.013h0A7.033,7.033,0,0,1,256.642,146.218Z" transform="translate(-249.629 -106.483)" fill="#c2c0f2"/>
        <path id="Path_88" data-name="Path 88" d="M262.41,169.319h0a7.034,7.034,0,0,1-9.917,0h0a7.034,7.034,0,0,1,0-9.917h0a7.036,7.036,0,0,1,9.917,0h0A7.034,7.034,0,0,1,262.41,169.319Z" transform="translate(-249.504 -102.655)" fill="#c2c0f2"/>
      </g>
      <g id="Group_67" data-name="Group 67" transform="translate(470.586 371.22)">
        <g id="Group_61" data-name="Group 61" transform="translate(27.649 43.121)">
          <rect id="Rectangle_106" data-name="Rectangle 106" width="155.653" height="21.505" transform="translate(155.653 21.505) rotate(180)" fill="#ffc05a"/>
          <rect id="Rectangle_107" data-name="Rectangle 107" width="18.433" height="21.505" transform="translate(87.043 0)" fill="#f9a813"/>
          <rect id="Rectangle_108" data-name="Rectangle 108" width="19.457" height="21.505" transform="translate(54.274 0)" fill="#f9a813"/>
          <rect id="Rectangle_109" data-name="Rectangle 109" width="34.817" height="21.505" transform="translate(0 0)" fill="#f9a813"/>
          <line id="Line_13" data-name="Line 13" y2="19.457" transform="translate(139.268 0)" fill="none" stroke="#bc5406" stroke-miterlimit="10" stroke-width="0.889"/>
          <line id="Line_14" data-name="Line 14" y2="19.457" transform="translate(129.028 0)" fill="none" stroke="#bc5406" stroke-miterlimit="10" stroke-width="0.889"/>
          <line id="Line_15" data-name="Line 15" y2="19.457" transform="translate(119.812 0)" fill="none" stroke="#bc5406" stroke-miterlimit="10" stroke-width="0.889"/>
        </g>
        <g id="Group_62" data-name="Group 62" transform="translate(11.713 21.561)">
          <rect id="Rectangle_110" data-name="Rectangle 110" width="155.653" height="21.505" transform="translate(155.653 21.505) rotate(180)" fill="#ffc05a"/>
          <rect id="Rectangle_111" data-name="Rectangle 111" width="18.433" height="21.505" transform="translate(87.043 0)" fill="#f9a813"/>
          <rect id="Rectangle_112" data-name="Rectangle 112" width="19.457" height="21.505" transform="translate(54.274 0)" fill="#f9a813"/>
          <rect id="Rectangle_113" data-name="Rectangle 113" width="34.817" height="21.505" transform="translate(0 0)" fill="#f9a813"/>
          <line id="Line_16" data-name="Line 16" y2="19.457" transform="translate(139.268 0)" fill="none" stroke="#bc5406" stroke-miterlimit="10" stroke-width="0.889"/>
          <line id="Line_17" data-name="Line 17" y2="19.457" transform="translate(129.028 0)" fill="none" stroke="#bc5406" stroke-miterlimit="10" stroke-width="0.889"/>
          <line id="Line_18" data-name="Line 18" y2="19.457" transform="translate(119.812 0)" fill="none" stroke="#bc5406" stroke-miterlimit="10" stroke-width="0.889"/>
        </g>
        <g id="Group_63" data-name="Group 63" transform="translate(48.272 0)">
          <rect id="Rectangle_114" data-name="Rectangle 114" width="155.653" height="21.505" transform="translate(155.653 21.505) rotate(180)" fill="#ffc05a"/>
          <rect id="Rectangle_115" data-name="Rectangle 115" width="18.433" height="21.505" transform="translate(87.043 0)" fill="#f9a813"/>
          <rect id="Rectangle_116" data-name="Rectangle 116" width="19.457" height="21.505" transform="translate(54.274 0)" fill="#f9a813"/>
          <rect id="Rectangle_117" data-name="Rectangle 117" width="34.817" height="21.505" transform="translate(0 0)" fill="#f9a813"/>
          <line id="Line_19" data-name="Line 19" y2="19.457" transform="translate(139.268 0)" fill="none" stroke="#bc5406" stroke-miterlimit="10" stroke-width="0.889"/>
          <line id="Line_20" data-name="Line 20" y2="19.457" transform="translate(129.028 0)" fill="none" stroke="#bc5406" stroke-miterlimit="10" stroke-width="0.889"/>
          <line id="Line_21" data-name="Line 21" y2="19.457" transform="translate(119.812 0)" fill="none" stroke="#bc5406" stroke-miterlimit="10" stroke-width="0.889"/>
        </g>
        <g id="Group_64" data-name="Group 64" transform="translate(0 64.626)">
          <rect id="Rectangle_118" data-name="Rectangle 118" width="155.653" height="21.505" transform="translate(155.653 21.505) rotate(180)" fill="#ffc05a"/>
          <rect id="Rectangle_119" data-name="Rectangle 119" width="18.433" height="21.505" transform="translate(87.043)" fill="#f9a813"/>
          <rect id="Rectangle_120" data-name="Rectangle 120" width="19.457" height="21.505" transform="translate(54.274)" fill="#f9a813"/>
          <rect id="Rectangle_121" data-name="Rectangle 121" width="34.817" height="21.505" fill="#f9a813"/>
          <line id="Line_22" data-name="Line 22" y2="19.457" transform="translate(139.268)" fill="none" stroke="#bc5406" stroke-miterlimit="10" stroke-width="0.889"/>
          <line id="Line_23" data-name="Line 23" y2="19.457" transform="translate(129.028)" fill="none" stroke="#bc5406" stroke-miterlimit="10" stroke-width="0.889"/>
          <path id="Path_89" data-name="Path 89" d="M500.763,401.169h76.869V419.6" transform="translate(-459.829 -401.113)" fill="none" stroke="#bc5406" stroke-miterlimit="10" stroke-width="0.889"/>
        </g>
        <g id="Group_65" data-name="Group 65" transform="translate(24.577 86.217)">
          <rect id="Rectangle_122" data-name="Rectangle 122" width="155.653" height="21.505" transform="translate(155.653 21.505) rotate(180)" fill="#ffc05a"/>
          <rect id="Rectangle_123" data-name="Rectangle 123" width="18.433" height="21.505" transform="translate(87.043 0)" fill="#f9a813"/>
          <rect id="Rectangle_124" data-name="Rectangle 124" width="19.457" height="21.505" transform="translate(54.274 0)" fill="#f9a813"/>
          <rect id="Rectangle_125" data-name="Rectangle 125" width="34.817" height="21.505" transform="translate(0 0)" fill="#f9a813"/>
          <line id="Line_24" data-name="Line 24" y2="19.457" transform="translate(139.268 0)" fill="none" stroke="#bc5406" stroke-miterlimit="10" stroke-width="0.889"/>
          <line id="Line_25" data-name="Line 25" y2="19.457" transform="translate(129.028 0)" fill="none" stroke="#bc5406" stroke-miterlimit="10" stroke-width="0.889"/>
          <line id="Line_26" data-name="Line 26" y2="19.457" transform="translate(119.812 0)" fill="none" stroke="#bc5406" stroke-miterlimit="10" stroke-width="0.889"/>
        </g>
        <g id="Group_66" data-name="Group 66" transform="translate(32.769 107.809)">
          <rect id="Rectangle_126" data-name="Rectangle 126" width="155.653" height="21.505" transform="translate(155.653 21.505) rotate(180)" fill="#ffc05a"/>
          <rect id="Rectangle_127" data-name="Rectangle 127" width="18.433" height="21.505" transform="translate(87.043 0)" fill="#f9a813"/>
          <rect id="Rectangle_128" data-name="Rectangle 128" width="19.457" height="21.505" transform="translate(54.274 0)" fill="#f9a813"/>
          <rect id="Rectangle_129" data-name="Rectangle 129" width="34.817" height="21.505" transform="translate(0 0)" fill="#f9a813"/>
          <line id="Line_27" data-name="Line 27" y2="19.457" transform="translate(139.268 0)" fill="none" stroke="#bc5406" stroke-miterlimit="10" stroke-width="0.889"/>
          <line id="Line_28" data-name="Line 28" y2="19.457" transform="translate(129.028 0)" fill="none" stroke="#bc5406" stroke-miterlimit="10" stroke-width="0.889"/>
          <line id="Line_29" data-name="Line 29" y2="19.457" transform="translate(119.812 0)" fill="none" stroke="#bc5406" stroke-miterlimit="10" stroke-width="0.889"/>
        </g>
        <line id="Line_30" data-name="Line 30" x2="38.913" transform="translate(34.817 86.131)" fill="none" stroke="#bc5406" stroke-miterlimit="10" stroke-width="0.889"/>
        <line id="Line_31" data-name="Line 31" x2="20.715" transform="translate(46.871 107.804)" fill="none" stroke="#bc5406" stroke-miterlimit="10" stroke-width="0.889"/>
        <line id="Line_32" data-name="Line 32" x2="40.961" transform="translate(78.85 107.722)" fill="none" stroke="#bc5406" stroke-miterlimit="10" stroke-width="0.889"/>
        <line id="Line_33" data-name="Line 33" x1="34.099" transform="translate(83.089 21.561)" fill="none" stroke="#bc5406" stroke-miterlimit="10" stroke-width="0.889"/>
        <line id="Line_34" data-name="Line 34" x2="45.134" transform="translate(40.309 44.059)" fill="none" stroke="#bc5406" stroke-miterlimit="10" stroke-width="0.889"/>
      </g>
      <g id="Group_68" data-name="Group 68" transform="translate(594.364 405.707)">
        <path id="Path_90" data-name="Path 90" d="M596.569,383.539h16.053V374.96A55.283,55.283,0,0,0,596.569,383.539Z" transform="translate(-569.034 -374.96)" fill="#2d1a14"/>
        <path id="Path_91" data-name="Path 91" d="M629.121,441.365v-21.5H574.689a92.14,92.14,0,0,0-1.99,21.5Z" transform="translate(-572.669 -368.13)" fill="#2d1a14"/>
        <path id="Path_92" data-name="Path 92" d="M631.924,382.454H599.861c-13.232,10.367-21.771,26.414-25.423,43.746h29.837V404.328h27.649Z" transform="translate(-572.4 -373.82)" fill="#2d1a14"/>
        <path id="Path_93" data-name="Path 93" d="M572.7,437.512a94.16,94.16,0,0,0,3.311,22.76h61.3v-22.76Z" transform="translate(-572.665 -365.446)" fill="#2d1a14"/>
      </g>
      <g id="Group_75" data-name="Group 75" transform="translate(616.199 378.951)">
        <g id="Group_74" data-name="Group 74" transform="translate(0.659 0)">
          <g id="Group_70" data-name="Group 70">
            <g id="Group_69" data-name="Group 69">
              <ellipse id="Ellipse_25" data-name="Ellipse 25" cx="56.629" cy="56.14" rx="56.629" ry="56.14" transform="translate(0 9.282)" fill="#f9a813"/>
              <ellipse id="Ellipse_26" data-name="Ellipse 26" cx="52.599" cy="52.599" rx="52.599" ry="52.599" transform="matrix(0.974, -0.226, 0.226, 0.974, 0.02, 23.758)" fill="#ffc05a"/>
              <line id="Line_35" data-name="Line 35" x2="10.624" transform="translate(1.997 50.076)" fill="none" stroke="#bc5406" stroke-miterlimit="10" stroke-width="0.889"/>
            </g>
            <text id="_2" data-name="$" transform="translate(50.802 74.881)" fill="#bc5406" stroke="#bc5406" stroke-miterlimit="10" stroke-width="1.205" font-size="41" font-family="Montserrat-Medium, Montserrat" font-weight="500"><tspan x="0" y="0">$</tspan></text>
          </g>
          <path id="Path_94" data-name="Path 94" d="M683.151,393.3l-32.81,54.683s27.185,2.188,36.56-35.622C686.9,412.365,687.213,398.615,683.151,393.3Z" transform="translate(-583.349 -345.414)" fill="#2d1a14"/>
          <g id="Group_73" data-name="Group 73" transform="translate(22.598 21.716)">
            <g id="Group_71" data-name="Group 71" transform="translate(18.57)">
              <path id="Path_95" data-name="Path 95" d="M650.557,372.474a38.917,38.917,0,0,0-21.331,6.347q-.643-.705-1.3-1.4a40.764,40.764,0,0,1,22.631-6.837,41.452,41.452,0,0,1,24.953,74.36l-1.567-1.175a39.569,39.569,0,0,0-23.386-71.3Z" transform="translate(-627.926 -370.586)" fill="#bc5406"/>
            </g>
            <g id="Group_72" data-name="Group 72" transform="translate(0 21.282)">
              <path id="Path_96" data-name="Path 96" d="M618.531,390.246a39.547,39.547,0,0,0,34.478,58.5,38.9,38.9,0,0,0,15.411-3.168l1.721,1.29a40.75,40.75,0,0,1-17.132,3.766,41.44,41.44,0,0,1-35.981-61.572Q617.782,389.647,618.531,390.246Z" transform="translate(-611.808 -389.058)" fill="#bc5406"/>
            </g>
          </g>
          <line id="Line_36" data-name="Line 36" x1="36.559" y2="59.526" transform="translate(62.305 43.827)" fill="none" stroke="#2d1a14" stroke-miterlimit="10" stroke-width="0.814"/>
        </g>
        <line id="Line_37" data-name="Line 37" x2="10.937" transform="translate(0.312 63.513)" fill="none" stroke="#bc5406" stroke-miterlimit="10" stroke-width="0.889"/>
        <line id="Line_38" data-name="Line 38" x2="11.249" transform="translate(0 72.262)" fill="none" stroke="#bc5406" stroke-miterlimit="10" stroke-width="0.889"/>
      </g>
      <line id="Line_39" data-name="Line 39" x2="237.637" transform="translate(475.742 499.647)" fill="none" stroke="#2d1a14" stroke-linejoin="round" stroke-width="1.627"/>
      <rect id="Rectangle_130" data-name="Rectangle 130" width="106.861" height="22.497" transform="translate(367.897 242.412)" fill="none" stroke="#fff" stroke-linecap="round" stroke-linejoin="round" stroke-width="1.627"/>
      <rect id="Rectangle_131" data-name="Rectangle 131" width="106.861" height="22.497" transform="translate(549.279 148.206)" fill="none" stroke="#fff" stroke-linecap="round" stroke-linejoin="round" stroke-width="1.627"/>
      <rect id="Rectangle_132" data-name="Rectangle 132" width="106.861" height="22.497" transform="translate(583.024 321.152)" fill="none" stroke="#fff" stroke-linecap="round" stroke-linejoin="round" stroke-width="1.627"/>
      <g id="Group_76" data-name="Group 76" transform="translate(49.179 413.404)">
        <rect id="Rectangle_133" data-name="Rectangle 133" width="155.653" height="21.505" fill="#ffc05a"/>
        <rect id="Rectangle_134" data-name="Rectangle 134" width="18.433" height="21.505" transform="translate(50.178)" fill="#f9a813"/>
        <rect id="Rectangle_135" data-name="Rectangle 135" width="19.457" height="21.505" transform="translate(81.923)" fill="#f9a813"/>
        <rect id="Rectangle_136" data-name="Rectangle 136" width="34.817" height="21.505" transform="translate(120.836)" fill="#f9a813"/>
        <line id="Line_40" data-name="Line 40" y2="19.457" transform="translate(16.385)" fill="none" stroke="#bc5406" stroke-miterlimit="10" stroke-width="0.889"/>
        <line id="Line_41" data-name="Line 41" y2="19.457" transform="translate(26.625)" fill="none" stroke="#bc5406" stroke-miterlimit="10" stroke-width="0.889"/>
        <line id="Line_42" data-name="Line 42" y2="19.457" transform="translate(35.841)" fill="none" stroke="#bc5406" stroke-miterlimit="10" stroke-width="0.889"/>
      </g>
      <g id="Group_77" data-name="Group 77" transform="translate(76.828 434.908)">
        <rect id="Rectangle_137" data-name="Rectangle 137" width="155.653" height="21.505" fill="#ffc05a"/>
        <rect id="Rectangle_138" data-name="Rectangle 138" width="18.433" height="21.505" transform="translate(50.178)" fill="#f9a813"/>
        <rect id="Rectangle_139" data-name="Rectangle 139" width="19.457" height="21.505" transform="translate(81.923)" fill="#f9a813"/>
        <rect id="Rectangle_140" data-name="Rectangle 140" width="34.817" height="21.505" transform="translate(120.836)" fill="#f9a813"/>
        <line id="Line_43" data-name="Line 43" y2="19.457" transform="translate(16.384)" fill="none" stroke="#bc5406" stroke-miterlimit="10" stroke-width="0.889"/>
        <line id="Line_44" data-name="Line 44" y2="19.457" transform="translate(26.625)" fill="none" stroke="#bc5406" stroke-miterlimit="10" stroke-width="0.889"/>
        <line id="Line_45" data-name="Line 45" y2="19.457" transform="translate(35.841)" fill="none" stroke="#bc5406" stroke-miterlimit="10" stroke-width="0.889"/>
      </g>
      <g id="Group_78" data-name="Group 78" transform="translate(52.251 456.5)">
        <rect id="Rectangle_141" data-name="Rectangle 141" width="155.653" height="21.505" fill="#ffc05a"/>
        <rect id="Rectangle_142" data-name="Rectangle 142" width="18.433" height="21.505" transform="translate(50.178)" fill="#f9a813"/>
        <rect id="Rectangle_143" data-name="Rectangle 143" width="19.457" height="21.505" transform="translate(81.923)" fill="#f9a813"/>
        <rect id="Rectangle_144" data-name="Rectangle 144" width="34.817" height="21.505" transform="translate(120.836)" fill="#f9a813"/>
        <line id="Line_46" data-name="Line 46" y2="19.457" transform="translate(16.385)" fill="none" stroke="#bc5406" stroke-miterlimit="10" stroke-width="0.889"/>
        <line id="Line_47" data-name="Line 47" y2="19.457" transform="translate(26.625)" fill="none" stroke="#bc5406" stroke-miterlimit="10" stroke-width="0.889"/>
        <line id="Line_48" data-name="Line 48" y2="19.457" transform="translate(35.841)" fill="none" stroke="#bc5406" stroke-miterlimit="10" stroke-width="0.889"/>
      </g>
      <g id="Group_79" data-name="Group 79" transform="translate(44.059 478.091)">
        <rect id="Rectangle_145" data-name="Rectangle 145" width="155.653" height="21.505" fill="#ffc05a"/>
        <rect id="Rectangle_146" data-name="Rectangle 146" width="18.433" height="21.505" transform="translate(50.178)" fill="#f9a813"/>
        <rect id="Rectangle_147" data-name="Rectangle 147" width="19.457" height="21.505" transform="translate(81.923)" fill="#f9a813"/>
        <rect id="Rectangle_148" data-name="Rectangle 148" width="34.817" height="21.505" transform="translate(120.836)" fill="#f9a813"/>
        <line id="Line_49" data-name="Line 49" y2="19.457" transform="translate(16.385)" fill="none" stroke="#bc5406" stroke-miterlimit="10" stroke-width="0.889"/>
        <line id="Line_50" data-name="Line 50" y2="19.457" transform="translate(26.625)" fill="none" stroke="#bc5406" stroke-miterlimit="10" stroke-width="0.889"/>
        <line id="Line_51" data-name="Line 51" y2="19.457" transform="translate(35.841)" fill="none" stroke="#bc5406" stroke-miterlimit="10" stroke-width="0.889"/>
      </g>
      <g id="Group_88" data-name="Group 88" transform="translate(71.523 187.667)">
        <circle id="Ellipse_27" data-name="Ellipse 27" cx="15.487" cy="15.487" r="15.487" transform="translate(47.823 7.61)" fill="#2d1a14"/>
        <circle id="Ellipse_31" data-name="Ellipse 31" cx="15.487" cy="15.487" r="15.487" transform="translate(7.543 9.485)" fill="#2d1a14"/>
        <path id="Path_97" data-name="Path 97" d="M265.734,241.393l-18.287,51.548a10.693,10.693,0,0,1-16.915,4.637l-.5-.425-61.44-51.62a5.924,5.924,0,0,1,6.917-9.581l68.335,42.069-17.419,4.212,30.936-45.107a4.74,4.74,0,0,1,8.377,4.266Z" transform="translate(-111.611 -178.198)" fill="#fa5b41"/>
        <g id="Group_80" data-name="Group 80" transform="translate(237.071 167.537)">
          <path id="Path_98" data-name="Path 98" d="M333.331,352.948c5.339,3.741,13.446,3.668,19.219-.172,3.912-2.6,6.574-6.551,9.879-9.838a36.415,36.415,0,0,1,24.676-10.41l-29.373,50.286-33.106-15.961Z" transform="translate(-324.627 -330.911)" fill="#ae4e3e"/>
          <path id="Path_99" data-name="Path 99" d="M333.331,352.948c5.339,3.741,13.446,3.668,19.219-.172,3.912-2.6,6.574-6.551,9.879-9.838a36.415,36.415,0,0,1,24.676-10.41l-29.373,50.286-33.106-15.961Z" transform="translate(-324.627 -330.911)" fill="#2d1a14"/>
          <path id="Path_100" data-name="Path 100" d="M385.15,335.187l-28.6,48.954a3.2,3.2,0,0,1-4.06,1.289h0a2.643,2.643,0,0,1-1.1-3.777l28.6-48.954a3.2,3.2,0,0,1,4.059-1.288h0A2.64,2.64,0,0,1,385.15,335.187Z" transform="translate(-320.615 -331.124)" fill="#2d1a14"/>
        </g>
        <path id="Path_101" data-name="Path 101" d="M197.616,293.406a543.365,543.365,0,0,0,37.016,73.873l-81.82,25.275c-7.853-12.364-9.485-29.25-5.252-43.638,2.34-7.953,6.492-15.464,9.042-23.373s3.348-16.731-.864-23.637Z" transform="translate(-114.834 -169.325)" fill="#ae4e3e"/>
        <path id="Path_102" data-name="Path 102" d="M145.1,344.353c2.34-7.952,9.4-13.013,11.945-20.922q.228-.705.436-1.422,6.911-2.053,13.785-4.236,2.969-.945,5.928-1.918l27.714-8.561a544.163,544.163,0,0,0,30.169,57.874l-52.658,34.587C135.2,400.87,140.866,358.742,145.1,344.353Z" transform="translate(-115.278 -167.212)" fill="#2d1a14"/>
        <path id="Path_103" data-name="Path 103" d="M120.539,269.193c.167-8.549,2.88-16.885,8.948-23.521,9.967-10.9,25.512-18.416,40.341-18.9,20.3-.658,31.076,16.571,32.236,35.2.977,15.693,2.264,31.447,5.293,46.9,2.323,11.848,3.206,23.792-9.613,29.588-24.58,11.115-48.543-3.331-59.424-25.813-3.548-7.333-9.037-13.586-12.619-20.921A49.86,49.86,0,0,1,120.539,269.193Z" transform="translate(-118.599 -179.462)" fill="#dcdcff"/>
        <path id="Path_104" data-name="Path 104" d="M145.838,232.673c2.622-2.7,1.957-21.961.214-25.3l11.576,8.789c.677,2.486,1.65,8.079,3.639,9.716a5.759,5.759,0,0,0,3.567,1.677,10.564,10.564,0,0,1-6.716,6.08C155.165,234.633,148.448,234.379,145.838,232.673Z" transform="translate(-114.75 -182.41)" fill="#fa5b41"/>
        <path id="Path_105" data-name="Path 105" d="M155.635,223.493a18.879,18.879,0,0,0,8.49,4.211c.073-.167.141-.336.2-.508a5.759,5.759,0,0,1-3.567-1.677c-1.991-1.637-2.962-7.229-3.639-9.716l-7.944-6.031C149.835,214.93,151.637,219.927,155.635,223.493Z" transform="translate(-114.242 -182.046)" fill="#2d1a14"/>
        <path id="Path_106" data-name="Path 106" d="M168.1,196.457l.079,15.682a10.814,10.814,0,0,1-19.936,5.865c0-.01-.012-.022-.012-.033a10.632,10.632,0,0,1-1.688-5.723l-.079-15.681a10.818,10.818,0,0,1,21.635-.111Z" transform="translate(-114.655 -185.706)" fill="#fa5b41"/>
        <path id="Path_107" data-name="Path 107" d="M168.155,208.022l-.06-11.565a10.818,10.818,0,0,0-21.635.111l.059,11.454Z" transform="translate(-114.655 -185.706)" fill="#2d1a14"/>
        <path id="Path_108" data-name="Path 108" d="M139,206.6a5.579,5.579,0,1,0,5.551-5.607A5.581,5.581,0,0,0,139,206.6Z" transform="translate(-115.79 -183.38)" fill="#fa5b41"/>
        <path id="Path_109" data-name="Path 109" d="M156.492,208.638a4.04,4.04,0,0,0,8.052.032Z" transform="translate(-113.129 -182.218)" fill="#fff"/>
        <g id="Group_81" data-name="Group 81" transform="translate(49.944 168.083)">
          <path id="Path_110" data-name="Path 110" d="M317.375,459.229c9.276-3.7,18.6-7.256,28.077-10.387l-51.9-107.693c-3.523-7.311-11.173-11.1-18.1-8.956L174.705,363.314c-7.841,2.423-14.607,12.406-11.89,21.208s13.894,13.088,21.734,10.665L273.3,367.772Z" transform="translate(-162.204 -331.598)" fill="#2d1a14"/>
        </g>
        <g id="Group_82" data-name="Group 82" transform="translate(46.367 142.28)">
          <path id="Path_111" data-name="Path 111" d="M363.153,346.521l-97.623-36.31a16.094,16.094,0,0,0-14.43,1.622l-84.724,55.512a16.093,16.093,0,1,0,17.639,26.922l77.921-51.052,88.7,32.99C355.03,366.42,358.758,356.316,363.153,346.521Z" transform="translate(-159.1 -309.202)" fill="#2d1a14"/>
        </g>
        <g id="Group_83" data-name="Group 83" transform="translate(207.086 283.304)">
          <path id="Path_112" data-name="Path 112" d="M313.467,431.608c.982,5.967,6.289,11.3,12.58,12.633,4.264.907,8.608.109,12.932.169a33.78,33.78,0,0,1,22.908,9.609l-52.4,13.143L298.6,434.856Z" transform="translate(-298.6 -431.608)" fill="#ae4e3e"/>
          <path id="Path_113" data-name="Path 113" d="M313.467,431.608c.982,5.967,6.289,11.3,12.58,12.633,4.264.907,8.608.109,12.932.169a33.78,33.78,0,0,1,22.908,9.609l-52.4,13.143L298.6,434.856Z" transform="translate(-298.6 -431.608)" fill="#2d1a14"/>
          <path id="Path_114" data-name="Path 114" d="M360.5,454.3l-51.009,12.8A2.97,2.97,0,0,1,306,465.235h0a2.449,2.449,0,0,1,1.789-3.18L358.8,449.261a2.969,2.969,0,0,1,3.487,1.856h0A2.451,2.451,0,0,1,360.5,454.3Z" transform="translate(-297.495 -428.936)" fill="#2d1a14"/>
        </g>
        <path id="Path_115" data-name="Path 115" d="M215.38,331.049c-5.263,3.711-34.891,20.813-40.154,24.525" transform="translate(-110.28 -163.599)" fill="none" stroke="#a595fa" stroke-linecap="round" stroke-linejoin="round" stroke-width="0.571"/>
        <path id="Path_116" data-name="Path 116" d="M292.853,354.705l-6.368-11.4a12.787,12.787,0,0,0-18.366-4.327L218.6,372.749" transform="translate(-103.683 -162.731)" fill="none" stroke="#a595fa" stroke-linecap="round" stroke-linejoin="round" stroke-width="0.571"/>
        <path id="Path_117" data-name="Path 117" d="M251.4,225.649c2.7-2.442,6.651-5.949,9.355-8.393,1.977-1.785,6.78-6.876,7.994-4.273,1.215,1.735-5.123,7.188-7.807,9.369,1.414-.169,3.391-.2,4.338.868,1.387,1.562.518,2.818-.433,3.878a9.87,9.87,0,0,1,2.931,3.773,4.166,4.166,0,0,1-.809,4.475c-.35.318-.793.586-.946,1.033-.177.52.1,1.122-.117,1.627a1.808,1.808,0,0,1-.69.7c-4.612,3.217-9.5,6.54-15.1,7.061-1.976.183-4.375-.259-5.142-2.089a5.44,5.44,0,0,1-.222-2.478,202.43,202.43,0,0,1,3.28-25.21,4.013,4.013,0,0,1,.811-2.031c.5-.54,2.21-1.326,2.556-.112C254.08,215.306,251.454,221.849,251.4,225.649Z" transform="translate(-99.71 -181.668)" fill="#fa5b41"/>
        <path id="Path_118" data-name="Path 118" d="M196.326,292.191l22.208-38.863s-38.864-22.671-44.416-22.671S196.326,292.191,196.326,292.191Z" transform="translate(-110.56 -178.869)" fill="#dcdcff"/>
        <path id="Path_119" data-name="Path 119" d="M193.867,287.724c-.012-.056-.024-.113-.037-.168-.059-.258-.122-.515-.183-.772-.719-3.11-1.55-6.191-2.446-9.259l20.976-26.258a4.69,4.69,0,0,1,6.572-.735l.294.235a4.69,4.69,0,0,1,.735,6.572l-23.2,29.039a4.653,4.653,0,0,1-2.652,1.642C193.907,287.921,193.89,287.822,193.867,287.724Z" transform="translate(-107.85 -176)" fill="#9b9be0"/>
        <g id="Group_84" data-name="Group 84" transform="translate(76.86 81.282)">
          <path id="Path_120" data-name="Path 120" d="M194.473,289.338a1.04,1.04,0,0,1-1.008-.785l-7.865-31a1.041,1.041,0,0,1,2.017-.513l7.865,31a1.042,1.042,0,0,1-1.009,1.3Z" transform="translate(-185.567 -256.257)" fill="#9b9be0"/>
        </g>
        <g id="Group_85" data-name="Group 85" transform="translate(62.437 79.098)">
          <path id="Path_121" data-name="Path 121" d="M290.784,316.979H178.015a4.981,4.981,0,0,1-4.967-4.967h0a4.981,4.981,0,0,1,4.967-4.967H290.784a4.981,4.981,0,0,1,4.967,4.967h0A4.981,4.981,0,0,1,290.784,316.979Z" transform="translate(-173.048 -246.348)" fill="#2d1a14"/>
          <path id="Path_122" data-name="Path 122" d="M283.526,322.048,207.7,321.63l31.017-55.764a22.387,22.387,0,0,1,19.688-11.5l53.4.294a8.364,8.364,0,0,1,7.263,12.429L290.881,317.75A8.362,8.362,0,0,1,283.526,322.048Z" transform="translate(-167.778 -254.362)" fill="#2d1a14"/>
          <path id="Path_123" data-name="Path 123" d="M267.6,287.884a4.675,4.675,0,1,1-4.675-4.674A4.674,4.674,0,0,1,267.6,287.884Z" transform="translate(-160.089 -249.974)" fill="none" stroke="#a595fa" stroke-linecap="round" stroke-linejoin="round" stroke-width="0.571"/>
        </g>
        <path id="Path_124" data-name="Path 124" d="M144,269.445l15.268,45.8-13.707-7.8,77.594-10.9a5.925,5.925,0,0,1,2.518,11.545l-75.082,22.41a10.883,10.883,0,0,1-13.432-6.969l-.275-.826-15.269-45.8A11.8,11.8,0,0,1,144,269.445Z" transform="translate(-118.526 -174.196)" fill="#fa5b41"/>
        <path id="Path_125" data-name="Path 125" d="M216.529,290.891a59.767,59.767,0,0,1,12.127-7.241,13.16,13.16,0,0,1,5.019-1.4,4.674,4.674,0,0,1,4.813,6.642,12.7,12.7,0,0,1-2.559,3.884c-6.091,6.924-15.041,12.279-24.166,10.939-1.936-.285-4.075-1.08-4.78-2.9a4.409,4.409,0,0,1,.717-4.013C209.734,293.9,213.772,293.015,216.529,290.891Z" transform="translate(-105.483 -171.022)" fill="#fa5b41"/>
        <path id="Path_126" data-name="Path 126" d="M125.414,294.316a3.592,3.592,0,0,1-1.992-.542,3.478,3.478,0,0,1-1-1.823,82.754,82.754,0,0,1-3.551-25.525,23.258,23.258,0,0,1,1.409-8.606,13.909,13.909,0,0,1,15.046-8.011c6.479,1.281,11.073,7.032,14.258,12.818,4.739,8.6,11.81,25.085,8.967,35.183-1.6,5.7-8.233,1-13.141-.245A115.777,115.777,0,0,0,125.414,294.316Z" transform="translate(-118.854 -175.991)" fill="#dcdcff"/>
        <g id="Group_86" data-name="Group 86" transform="translate(2.406 115.199)">
          <path id="Path_127" data-name="Path 127" d="M124.306,293.094l30.581,2.705a3.7,3.7,0,0,0,4-3.348l0-.036a3.7,3.7,0,0,0-3.349-4l-30.581-2.705a3.7,3.7,0,0,0-4,3.348l0,.036A3.7,3.7,0,0,0,124.306,293.094Z" transform="translate(-120.943 -285.697)" fill="#9b9be0"/>
        </g>
        <g id="Group_87" data-name="Group 87" transform="translate(28.743 94.238)">
          <path id="Path_128" data-name="Path 128" d="M149.226,291.329a1.041,1.041,0,0,1-1.02-.835l-4.384-21.744a1.041,1.041,0,0,1,2.042-.412l4.384,21.745a1.043,1.043,0,0,1-.816,1.227A1.141,1.141,0,0,1,149.226,291.329Z" transform="translate(-143.802 -267.502)" fill="#9b9be0"/>
        </g>
        <path id="Path_129" data-name="Path 129" d="M227.678,295.905a4.955,4.955,0,0,1,2.807-1.8,6,6,0,0,1,1.648.166,11.532,11.532,0,0,0,4.687-.127,5.062,5.062,0,0,0,1.911-.839,2.532,2.532,0,0,0,1.028-1.763,28.429,28.429,0,0,1-7.747-.51,2.676,2.676,0,0,0-1.474-.036" transform="translate(-102.302 -169.705)" fill="#ae4e3e"/>
        <path id="Path_130" data-name="Path 130" d="M233.854,291.97l1.3-1.474a2.338,2.338,0,0,1,.672-.589,2.468,2.468,0,0,1,1.035-.175,21.244,21.244,0,0,0,6.332-1.189,14.2,14.2,0,0,0,5.8-3.641,1.632,1.632,0,0,0-1.211-2.725h-18.8c-.732-.114-1.268.478-1.849.938a18.58,18.58,0,0,0-3.328,3.416,4.889,4.889,0,0,0-.676,1.122,3.846,3.846,0,0,0,1.3,4.091,11.264,11.264,0,0,0,4.084,1.978" transform="translate(-103.024 -171.035)" fill="#fa5b41"/>
      </g>
      <path id="Path_131" data-name="Path 131" d="M158.131,454.871c4.37,7.917,36.03,14.061,74.46,14.061s70.09-6.144,74.46-14.061Z" transform="translate(-41.357 42.901)" fill="#2d1a14"/>
    </g>
  </g>
</svg>
