<svg xmlns="http://www.w3.org/2000/svg" width="339.527" height="194.349" viewBox="0 0 339.527 194.349">
  <g id="cloud-hero-2" transform="matrix(0.999, -0.052, 0.052, 0.999, -208.676, -187.748)" opacity="0.24">
    <path id="Path_24781" data-name="Path 24781" d="M528.1,349.424c.736,4.638-.032,9.114-3.242,12.752-4.924,5.584-15.8,5.49-21.664,1.795-1.238-.78-7.873-5.152-10.733-10.913-6.463,9.118-16.121,16.619-27.24,17.754-12.089,1.235-21.125-5.745-25.971-16.045-2.945,5.9-9.31,10.048-17.336,10.369-6.255.248-14.444-1.885-18-7-2.327,9.516-8.3,17.776-18.242,20.373a25.205,25.205,0,0,1-25.9-9.066c-6.671,13.142-20.095,23.41-34.831,23.538s-29.4-11.821-29.757-26.554c-13.824,4.342-32.56-.034-39.021-8.342-9.846,10.639-30.57,6.607-35.71-6.947-4.866.47-9.916.92-14.524-.712s-8.642-5.981-8.248-10.853c.364-4.512,4.244-11.327,9.068-15.365,8.274-6.927,18.782-9.18,27.67-3.061-1.291-12.766,7.061-25.879,19.174-30.109s26.812.834,33.749,11.629a22.074,22.074,0,0,1,24.531-9.742,19.483,19.483,0,0,1,22.38-28.957c-9.954-7.585-11.131-24.2-2.347-33.111s25.411-7.978,33.141,1.865c14.384-16.617,40.958-22.678,59.512-10.9,18.382,11.669,23.983,39.435,11.559,57.317a22.918,22.918,0,0,1,23.931,2.181c6.275,4.842,9.232,12.89,8.792,20.669a23.988,23.988,0,0,1,11.161-.044c3.307.89,5.753,3.86,6.833,7.111a25.035,25.035,0,0,1,.674,10.178c6.8-1.2,11.625.708,13.87,3.063,3.5,3.68,4.224,7.743,4.606,11.591,5.322-1.661,12.279,1.033,14.862,2.831C524.581,339.317,527.309,344.433,528.1,349.424Z" transform="translate(0 0)" fill="#e6f5ff"/>
    <path id="Path_24782" data-name="Path 24782" d="M492.216,293.19c-3.173,5.356-14.708,12.083-25.505,7.593-9.952-4.138-14.184-15.805-8.942-28.767a28.612,28.612,0,0,0,2.733-5.454A49.725,49.725,0,0,1,445.069,278.9a55.135,55.135,0,0,1-18.35,5.66,50.306,50.306,0,0,1-19.077-1.195,53.286,53.286,0,0,1-17.75-8.73,35.931,35.931,0,0,0,16.371,12.844,42.751,42.751,0,0,0,21.141,2.617c1.419-.172,2.821-.432,4.214-.738,1.653,4.682-1.507,10.329-9.564,12.546-9.064,2.491-23.112.112-28.721-6.4-1.821,5.585-6.285,14.586-21.544,15.483-11.057.652-23.939-4.768-22.028-17.456A29.872,29.872,0,0,0,369.3,278.075a59.336,59.336,0,0,1-11.819,7.393,39.552,39.552,0,0,1-12.686,3.486,28.413,28.413,0,0,1-12.714-1.541,22.808,22.808,0,0,1-10.565-8.216c4.726,19.9-11.947,27.452-22.04,25.567-9.18-1.717-16.619-7.513-16.313-15.731.136-.058.278-.1.412-.162A33.646,33.646,0,0,0,297.824,278a59.519,59.519,0,0,1-15.671,6.753,57.215,57.215,0,0,1-16.379,1.773,51.454,51.454,0,0,1-16.077-3.163,38.986,38.986,0,0,1-14.112-9.172c2.2,5.568,6.877,10.143,12.257,13.094a36.955,36.955,0,0,0,8.776,3.5c5.07,1.209.882,9.138-10.711,9.212-7.747.05-16.829-4.264-18.74-11.951-5.6,8.346-25.111,12.125-29.505,1.361.05,4.566,3.9,8.558,8.268,10.106,4.608,1.633,9.658,1.183,14.524.712,5.138,13.554,25.863,17.586,35.71,6.947,6.461,8.308,25.2,12.684,39.021,8.342.36,14.732,15.021,26.684,29.757,26.554s28.16-10.4,34.831-23.538a25.205,25.205,0,0,0,25.9,9.066c9.944-2.6,15.915-10.857,18.242-20.373,3.556,5.116,11.745,7.249,18,7,8.026-.32,14.39-4.464,17.336-10.369,4.846,10.3,13.882,17.28,25.971,16.045,11.119-1.134,20.777-8.636,27.24-17.754,2.859,5.761,9.494,10.132,10.733,10.913,5.863,3.7,16.739,3.788,21.664-1.795a14.1,14.1,0,0,0,3.484-9.748C523.662,315.854,498.395,307.744,492.216,293.19Z" transform="translate(0.003 50.911)" fill="#9cdaff"/>
    <path id="Path_24783" data-name="Path 24783" d="M321.407,240.558a63.8,63.8,0,0,1,15.5,4.7,33.552,33.552,0,0,0-14.526-8.788,38.7,38.7,0,0,0-33.5,4.984,33.651,33.651,0,0,0-11.347,12.626A63.567,63.567,0,0,1,291,245.068a50.247,50.247,0,0,1,30.411-4.51Z" transform="translate(79.948 19.004)" fill="#fff"/>
    <path id="Path_24784" data-name="Path 24784" d="M519.1,336.72c-2.583-1.8-9.54-4.492-14.862-2.831-.382-3.848-1.1-7.911-4.606-11.591-2.245-2.355-7.069-4.262-13.87-3.063a25.035,25.035,0,0,0-.674-10.178c-1.081-3.251-3.526-6.221-6.833-7.111a23.988,23.988,0,0,0-11.161.044c.44-7.779-2.517-15.827-8.792-20.669a22.918,22.918,0,0,0-23.93-2.181c12.423-17.882,6.823-45.648-11.559-57.317-18.554-11.779-45.128-5.719-59.512,10.9-7.729-9.842-24.357-10.777-33.141-1.865s-7.607,25.525,2.347,33.111a19.483,19.483,0,0,0-22.38,28.957,22.075,22.075,0,0,0-24.531,9.74c-6.937-10.793-21.635-15.857-33.749-11.627s-20.465,17.344-19.174,30.109c-8.888-6.119-19.4-3.866-27.67,3.061a28.578,28.578,0,0,0-5.584,6.529,36.573,36.573,0,0,1,33.633-8.774c3.928-12.565,14.59-19.369,25.693-20.677a36.014,36.014,0,0,1,30.275,11.271c1.589-4.954,6.589-9.916,12.81-11.575,4.5-1.2,11.353-.244,15.177,2.343a26.472,26.472,0,0,0-3.958,6.521,66.862,66.862,0,0,1,13.554-7.911,60.632,60.632,0,0,1,14.328-4.124,62.477,62.477,0,0,1,14.913-.588,59.553,59.553,0,0,1,15.3,3.309c-3.536-4.346-8.754-7.267-14.24-8.856a38.842,38.842,0,0,0-12.109-1.433,43.511,43.511,0,0,0-24.6,2.213c.018-12.241,11.621-23.218,23.845-22.556-5.6-7.359-4.284-19.038,2.805-24.973s18.82-5.166,25.077,1.639A32.558,32.558,0,0,1,430.8,256.977c2.163,9.168-.762,18.558-6.595,25.863a54.925,54.925,0,0,0-7.569,1.076,49.585,49.585,0,0,0-16.775,6.973c-5.05,3.373-9.5,7.935-11.871,13.448a65.039,65.039,0,0,1,14.578-8.516,87.353,87.353,0,0,1,15.611-4.894,106.994,106.994,0,0,1,16.309-2.255,88.765,88.765,0,0,1,16.99.518c5.476,1.453,13.368,10.791,10.263,19.757,3.682-3.768,8.7-5.128,12.952-2.017s8.74,12.788,1.709,22.66c5.763-1.513,12.576-6.5,18.144-4.39,4.914,1.865,6.933,6.971,7.737,11.271,9.78-2.591,18.02,1.607,22.942,8.78A18.125,18.125,0,0,0,519.1,336.72Z" transform="translate(1.756 0)" fill="#fff"/>
  </g>
</svg>
