<svg xmlns="http://www.w3.org/2000/svg" width="228.995" height="131.079" viewBox="0 0 228.995 131.079">
  <g id="cloud-hero-section" transform="matrix(0.999, -0.052, 0.052, 0.999, -208.676, -193.382)" opacity="0.24">
    <path id="Path_24781" data-name="Path 24781" d="M420.528,305.889a10.076,10.076,0,0,1-2.186,8.6c-3.321,3.766-10.657,3.7-14.611,1.211-.835-.526-5.31-3.475-7.239-7.36-4.359,6.15-10.873,11.209-18.372,11.974-8.154.833-14.248-3.874-17.516-10.822-1.987,3.982-6.279,6.777-11.692,6.993-4.219.167-9.742-1.271-12.14-4.722-1.569,6.418-5.6,11.989-12.3,13.741A17,17,0,0,1,307,319.389c-4.5,8.864-13.553,15.789-23.492,15.876s-19.827-7.973-20.07-17.909c-9.324,2.928-21.96-.023-26.318-5.626-6.641,7.175-20.618,4.456-24.085-4.685-3.282.317-6.688.621-9.8-.48s-5.828-4.034-5.563-7.32c.246-3.043,2.862-7.639,6.116-10.363,5.58-4.672,12.668-6.192,18.662-2.065a19.439,19.439,0,0,1,35.694-12.464,14.888,14.888,0,0,1,16.545-6.571,13.14,13.14,0,0,1,15.094-19.53c-6.714-5.116-7.507-16.319-1.583-22.331s17.139-5.38,22.352,1.258c9.7-11.208,27.624-15.3,40.138-7.351,12.4,7.87,16.175,26.6,7.8,38.658a15.457,15.457,0,0,1,16.14,1.471,16.4,16.4,0,0,1,5.93,13.94,16.179,16.179,0,0,1,7.528-.03,7.154,7.154,0,0,1,4.609,4.8,16.885,16.885,0,0,1,.455,6.865c4.587-.808,7.841.478,9.355,2.066,2.363,2.482,2.849,5.223,3.107,7.818,3.59-1.12,8.282.7,10.024,1.91C418.152,299.072,419.992,302.523,420.528,305.889Z" transform="translate(0 0)" fill="#e6f5ff"/>
    <path id="Path_24782" data-name="Path 24782" d="M396.324,284.521c-2.14,3.613-9.92,8.15-17.2,5.121-6.712-2.791-9.567-10.66-6.031-19.4a19.3,19.3,0,0,0,1.843-3.679,33.538,33.538,0,0,1-10.409,8.322A37.186,37.186,0,0,1,352.15,278.7a33.929,33.929,0,0,1-12.866-.806,35.939,35.939,0,0,1-11.971-5.888,24.234,24.234,0,0,0,11.042,8.662,28.833,28.833,0,0,0,14.259,1.765c.957-.116,1.9-.291,2.842-.5,1.115,3.158-1.016,6.966-6.451,8.461-6.113,1.68-15.588.076-19.371-4.314-1.228,3.766-4.239,9.838-14.53,10.442-7.457.44-16.145-3.216-14.857-11.773a20.147,20.147,0,0,0,13.174-10.428,40.02,40.02,0,0,1-7.971,4.986,26.677,26.677,0,0,1-8.556,2.351,19.163,19.163,0,0,1-8.575-1.039,15.383,15.383,0,0,1-7.125-5.541c3.188,13.423-8.058,18.515-14.865,17.244-6.192-1.158-11.209-5.067-11-10.61.092-.039.188-.07.278-.109a22.692,22.692,0,0,0,9.612-7.332,40.144,40.144,0,0,1-10.569,4.555,38.59,38.59,0,0,1-11.047,1.2,34.7,34.7,0,0,1-10.843-2.134,26.294,26.294,0,0,1-9.518-6.186,18.109,18.109,0,0,0,8.267,8.831,24.922,24.922,0,0,0,5.919,2.36c3.42.815.6,6.163-7.224,6.213-5.225.034-11.351-2.876-12.639-8.061-3.775,5.629-16.936,8.178-19.9.918.034,3.08,2.627,5.772,5.576,6.816,3.108,1.1,6.514.8,9.8.48,3.466,9.142,17.444,11.861,24.084,4.685,4.358,5.6,16.994,8.554,26.318,5.626.243,9.936,10.131,18,20.07,17.909S302.5,310.475,307,301.611a17,17,0,0,0,17.468,6.115c6.707-1.752,10.734-7.322,12.3-13.741,2.4,3.451,7.922,4.889,12.14,4.722,5.413-.216,9.706-3.011,11.692-6.993,3.269,6.947,9.363,11.654,17.517,10.822,7.5-.765,14.013-5.824,18.372-11.974,1.928,3.885,6.4,6.834,7.239,7.36,3.954,2.493,11.29,2.555,14.611-1.21a9.509,9.509,0,0,0,2.349-6.575C417.533,299.807,400.492,294.337,396.324,284.521Z" transform="translate(0.001 17.778)" fill="#9cdaff"/>
    <path id="Path_24783" data-name="Path 24783" d="M307.125,238.645a43.032,43.032,0,0,1,10.453,3.17,22.63,22.63,0,0,0-9.8-5.927,26.1,26.1,0,0,0-22.592,3.362,22.7,22.7,0,0,0-7.653,8.515,42.873,42.873,0,0,1,9.078-6.078,33.89,33.89,0,0,1,20.511-3.042Z" transform="translate(27.917 6.636)" fill="#fff"/>
    <path id="Path_24784" data-name="Path 24784" d="M415.024,297.321c-1.742-1.213-6.434-3.03-10.024-1.91-.258-2.6-.744-5.336-3.107-7.818-1.514-1.588-4.768-2.874-9.355-2.066a16.885,16.885,0,0,0-.455-6.865,7.154,7.154,0,0,0-4.609-4.8,16.178,16.178,0,0,0-7.527.03,16.4,16.4,0,0,0-5.93-13.94,15.457,15.457,0,0,0-16.14-1.471c8.379-12.06,4.6-30.787-7.8-38.658-12.514-7.945-30.437-3.857-40.138,7.351-5.213-6.638-16.427-7.268-22.352-1.258s-5.131,17.216,1.583,22.331a13.14,13.14,0,0,0-15.094,19.53,14.889,14.889,0,0,0-16.545,6.569,19.44,19.44,0,0,0-35.694,12.465c-5.994-4.127-13.082-2.607-18.662,2.065a19.276,19.276,0,0,0-3.766,4.4,24.667,24.667,0,0,1,22.684-5.918c2.649-8.475,9.841-13.063,17.329-13.946a24.289,24.289,0,0,1,20.419,7.6,12.744,12.744,0,0,1,8.639-7.807,14.276,14.276,0,0,1,10.236,1.58,17.854,17.854,0,0,0-2.669,4.4,45.093,45.093,0,0,1,9.141-5.336,40.893,40.893,0,0,1,9.664-2.781,42.137,42.137,0,0,1,10.058-.4,40.165,40.165,0,0,1,10.317,2.232,19.176,19.176,0,0,0-9.6-5.973,26.2,26.2,0,0,0-8.167-.966,29.346,29.346,0,0,0-16.593,1.493c.012-8.256,7.838-15.66,16.082-15.213a12.274,12.274,0,0,1,18.805-15.738,21.959,21.959,0,0,1,39.72,7.023c1.459,6.183-.514,12.517-4.448,17.444a37.049,37.049,0,0,0-5.105.726,33.444,33.444,0,0,0-11.314,4.7,21.54,21.54,0,0,0-8.007,9.07,43.863,43.863,0,0,1,9.832-5.743,58.913,58.913,0,0,1,10.529-3.3,72.16,72.16,0,0,1,11-1.521,59.865,59.865,0,0,1,11.459.35c3.694.98,9.016,7.278,6.922,13.325,2.483-2.541,5.868-3.459,8.735-1.36s5.895,8.625,1.152,15.283c3.887-1.02,8.482-4.387,12.237-2.961,3.314,1.258,4.676,4.7,5.219,7.6,6.6-1.748,12.154,1.084,15.473,5.922A12.224,12.224,0,0,0,415.024,297.321Z" transform="translate(0.613 0)" fill="#fff"/>
  </g>
</svg>
