<svg xmlns="http://www.w3.org/2000/svg" width="692.142" height="419.413" viewBox="0 0 692.142 419.413">
  <g id="high-img" transform="translate(-33.897 -55.35)">
    <ellipse id="Ellipse_711" data-name="Ellipse 711" cx="346.071" cy="8.766" rx="346.071" ry="8.766" transform="translate(33.897 457.231)" fill="#e1e3ff"/>
    <g id="Group_30018" data-name="Group 30018" transform="translate(96.353 149.959)">
      <circle id="Ellipse_712" data-name="Ellipse 712" cx="21.889" cy="21.889" r="21.889" transform="translate(0 43.649) rotate(-76.717)" fill="#a7b0d1"/>
      <circle id="Ellipse_713" data-name="Ellipse 713" cx="20.166" cy="20.166" r="20.166" transform="translate(2.074 42.367) rotate(-76.717)" fill="#deedff"/>
      <text id="_" data-name="$" transform="translate(16.934 37)" fill="#5a97ff" font-size="34" font-family="SourceSansPro-Bold, Source Sans Pro" font-weight="700"><tspan x="0" y="0">$</tspan></text>
    </g>
    <g id="Group_30019" data-name="Group 30019" transform="translate(129.694 116.1)">
      <circle id="Ellipse_714" data-name="Ellipse 714" cx="18.771" cy="18.771" r="18.771" transform="translate(0 4.108)" fill="#a7b0d1"/>
      <circle id="Ellipse_715" data-name="Ellipse 715" cx="17.293" cy="17.293" r="17.293" transform="translate(1.478 5.586)" fill="#e3e5ff"/>
      <text id="_2" data-name="£" transform="translate(10.712 30)" fill="#5a97ff" font-size="28" font-family="SourceSansPro-Bold, Source Sans Pro" font-weight="700"><tspan x="0" y="0">£</tspan></text>
    </g>
    <g id="Group_30020" data-name="Group 30020" transform="translate(67.723 184.02)">
      <circle id="Ellipse_716" data-name="Ellipse 716" cx="12.791" cy="12.791" r="12.791" transform="translate(0 18.968) rotate(-47.855)" fill="#a7b0d1"/>
      <circle id="Ellipse_717" data-name="Ellipse 717" cx="11.784" cy="11.784" r="11.784" transform="translate(6.283 6.283)" fill="#e3e5ff"/>
      <text id="_3" data-name="¥" transform="translate(12.575 20.28)" fill="#5a97ff" font-size="17" font-family="SourceSansPro-Bold, Source Sans Pro" font-weight="700"><tspan x="0" y="0">¥</tspan></text>
    </g>
    <g id="Group_30021" data-name="Group 30021" transform="translate(59.851 87.154)">
      <circle id="Ellipse_718" data-name="Ellipse 718" cx="23.487" cy="23.487" r="23.487" transform="matrix(0.634, -0.773, 0.773, 0.634, 0, 36.327)" fill="#a7b0d1"/>
      <circle id="Ellipse_719" data-name="Ellipse 719" cx="21.637" cy="21.637" r="21.637" transform="translate(11.416 11.416)" fill="#e3e5ff"/>
      <text id="_4" data-name="€" transform="translate(22.969 42.451)" fill="#5a97ff" font-size="36" font-family="SourceSansPro-Bold, Source Sans Pro" font-weight="700"><tspan x="0" y="0">€</tspan></text>
    </g>
    <g id="Group_30024" data-name="Group 30024" transform="translate(57.602 227.888)">
      <rect id="Rectangle_2800" data-name="Rectangle 2800" width="158.079" height="238.284" rx="7.089" fill="#5a97ff"/>
      <rect id="Rectangle_2801" data-name="Rectangle 2801" width="136.454" height="42.165" transform="translate(10.812 19.686)" fill="#e3e5ff"/>
      <g id="Group_30022" data-name="Group 30022" transform="translate(11.656 72.288)">
        <rect id="Rectangle_2802" data-name="Rectangle 2802" width="16.533" height="7.943" fill="#a7b0d1"/>
        <rect id="Rectangle_2803" data-name="Rectangle 2803" width="16.533" height="7.943" transform="translate(23.647)" fill="#a7b0d1"/>
        <rect id="Rectangle_2804" data-name="Rectangle 2804" width="16.533" height="7.943" transform="translate(47.294)" fill="#a7b0d1"/>
        <rect id="Rectangle_2805" data-name="Rectangle 2805" width="16.533" height="7.943" transform="translate(70.941)" fill="#a7b0d1"/>
        <rect id="Rectangle_2806" data-name="Rectangle 2806" width="16.533" height="7.943" transform="translate(94.588)" fill="#a7b0d1"/>
        <rect id="Rectangle_2807" data-name="Rectangle 2807" width="16.533" height="7.943" transform="translate(118.234)" fill="#a7b0d1"/>
      </g>
      <g id="Group_30023" data-name="Group 30023" transform="translate(11.497 90.767)">
        <rect id="Rectangle_2808" data-name="Rectangle 2808" width="26.548" height="26.548" rx="2.769" fill="#a7b0d1"/>
        <rect id="Rectangle_2809" data-name="Rectangle 2809" width="26.548" height="26.548" rx="2.769" transform="translate(36.179)" fill="#a7b0d1"/>
        <rect id="Rectangle_2810" data-name="Rectangle 2810" width="26.548" height="26.548" rx="2.769" transform="translate(72.358)" fill="#a7b0d1"/>
        <rect id="Rectangle_2811" data-name="Rectangle 2811" width="26.548" height="26.548" rx="2.769" transform="translate(108.536)" fill="#a7b0d1"/>
        <rect id="Rectangle_2812" data-name="Rectangle 2812" width="26.548" height="26.548" rx="2.769" transform="translate(0 35.43)" fill="#a7b0d1"/>
        <rect id="Rectangle_2813" data-name="Rectangle 2813" width="26.548" height="26.548" rx="2.769" transform="translate(36.179 35.43)" fill="#a7b0d1"/>
        <rect id="Rectangle_2814" data-name="Rectangle 2814" width="26.548" height="26.548" rx="2.769" transform="translate(72.358 35.43)" fill="#a7b0d1"/>
        <rect id="Rectangle_2815" data-name="Rectangle 2815" width="26.548" height="26.548" rx="2.769" transform="translate(108.536 35.43)" fill="#a7b0d1"/>
        <rect id="Rectangle_2816" data-name="Rectangle 2816" width="26.548" height="26.548" rx="2.769" transform="translate(0 70.861)" fill="#a7b0d1"/>
        <rect id="Rectangle_2817" data-name="Rectangle 2817" width="26.548" height="26.548" rx="2.769" transform="translate(36.179 70.861)" fill="#a7b0d1"/>
        <rect id="Rectangle_2818" data-name="Rectangle 2818" width="26.548" height="26.548" rx="2.769" transform="translate(72.358 70.861)" fill="#a7b0d1"/>
        <rect id="Rectangle_2819" data-name="Rectangle 2819" width="26.548" height="26.548" rx="2.769" transform="translate(108.536 70.861)" fill="#a7b0d1"/>
        <rect id="Rectangle_2820" data-name="Rectangle 2820" width="26.548" height="26.548" rx="2.769" transform="translate(0 106.291)" fill="#a7b0d1"/>
        <rect id="Rectangle_2821" data-name="Rectangle 2821" width="26.548" height="26.548" rx="2.769" transform="translate(36.179 106.291)" fill="#a7b0d1"/>
        <rect id="Rectangle_2822" data-name="Rectangle 2822" width="26.548" height="26.548" rx="2.769" transform="translate(72.358 106.291)" fill="#a7b0d1"/>
        <rect id="Rectangle_2823" data-name="Rectangle 2823" width="26.548" height="26.548" rx="2.769" transform="translate(108.536 106.291)" fill="#a7b0d1"/>
      </g>
    </g>
    <g id="Group_30042" data-name="Group 30042" transform="translate(178.921 84.342)">
      <rect id="Rectangle_2824" data-name="Rectangle 2824" width="329.997" height="286.168" rx="4.116" fill="#deedff"/>
      <g id="Group_30041" data-name="Group 30041" transform="translate(23.723 19.398)">
        <g id="Group_30025" data-name="Group 30025">
          <rect id="Rectangle_2825" data-name="Rectangle 2825" width="1.876" height="247.373" transform="translate(3.905)" fill="#a7b0d1"/>
          <path id="Path_151" data-name="Path 151" d="M205.052,196.82l-3.875,6.811h7.749Z" transform="translate(-200.208 -101.68)" fill="#686f9b"/>
          <rect id="Rectangle_2826" data-name="Rectangle 2826" width="9.687" height="13.793" transform="translate(0 110.118)" fill="#252a40"/>
        </g>
        <g id="Group_30026" data-name="Group 30026" transform="translate(19.491)">
          <rect id="Rectangle_2827" data-name="Rectangle 2827" width="1.876" height="247.373" transform="translate(3.905)" fill="#a7b0d1"/>
          <path id="Path_152" data-name="Path 152" d="M224.263,166.82l-3.875,6.811h7.749Z" transform="translate(-219.419 -102.117)" fill="#686f9b"/>
          <rect id="Rectangle_2828" data-name="Rectangle 2828" width="9.687" height="34.084" transform="translate(0 79.681)" fill="#252a40"/>
        </g>
        <g id="Group_30027" data-name="Group 30027" transform="translate(38.981)">
          <rect id="Rectangle_2829" data-name="Rectangle 2829" width="1.876" height="247.373" transform="translate(3.906)" fill="#a7b0d1"/>
          <path id="Path_153" data-name="Path 153" d="M243.474,240.275l3.875-6.811H239.6Z" transform="translate(-238.63 -101.146)" fill="#686f9b"/>
          <rect id="Rectangle_2830" data-name="Rectangle 2830" width="9.687" height="23.938" transform="translate(9.687 124.151) rotate(180)" fill="#ce364c"/>
        </g>
        <g id="Group_30028" data-name="Group 30028" transform="translate(58.472)">
          <rect id="Rectangle_2831" data-name="Rectangle 2831" width="1.876" height="247.373" transform="translate(3.905)" fill="#a7b0d1"/>
          <path id="Path_154" data-name="Path 154" d="M262.685,176.82l-3.875,6.811h7.749Z" transform="translate(-257.841 -101.971)" fill="#686f9b"/>
          <rect id="Rectangle_2832" data-name="Rectangle 2832" width="9.687" height="23.938" transform="translate(0 89.827)" fill="#252a40"/>
        </g>
        <g id="Group_30029" data-name="Group 30029" transform="translate(77.963)">
          <rect id="Rectangle_2833" data-name="Rectangle 2833" width="1.876" height="247.373" transform="translate(3.906)" fill="#a7b0d1"/>
          <path id="Path_155" data-name="Path 155" d="M281.9,241.429l3.875-6.811h-7.749Z" transform="translate(-277.052 -101.129)" fill="#686f9b"/>
          <rect id="Rectangle_2834" data-name="Rectangle 2834" width="9.687" height="15.091" transform="translate(9.687 125.322) rotate(180)" fill="#ce364c"/>
        </g>
        <g id="Group_30030" data-name="Group 30030" transform="translate(97.454)">
          <rect id="Rectangle_2835" data-name="Rectangle 2835" width="1.876" height="247.373" transform="translate(3.905)" fill="#a7b0d1"/>
          <path id="Path_156" data-name="Path 156" d="M301.107,176.82l-3.875,6.811h7.749Z" transform="translate(-296.263 -101.971)" fill="#686f9b"/>
          <rect id="Rectangle_2836" data-name="Rectangle 2836" width="9.687" height="23.938" transform="translate(0 89.827)" fill="#252a40"/>
        </g>
        <g id="Group_30031" data-name="Group 30031" transform="translate(116.944)">
          <rect id="Rectangle_2837" data-name="Rectangle 2837" width="1.876" height="247.373" transform="translate(3.905)" fill="#a7b0d1"/>
          <path id="Path_157" data-name="Path 157" d="M320.318,156.82l-3.875,6.811h7.749Z" transform="translate(-315.474 -102.262)" fill="#686f9b"/>
          <rect id="Rectangle_2838" data-name="Rectangle 2838" width="9.687" height="15.459" transform="translate(0 69.535)" fill="#252a40"/>
        </g>
        <g id="Group_30032" data-name="Group 30032" transform="translate(136.435)">
          <rect id="Rectangle_2839" data-name="Rectangle 2839" width="1.876" height="247.373" transform="translate(3.906)" fill="#a7b0d1"/>
          <path id="Path_158" data-name="Path 158" d="M339.529,207.228l3.875-6.811h-7.749Z" transform="translate(-334.685 -101.627)" fill="#686f9b"/>
          <rect id="Rectangle_2840" data-name="Rectangle 2840" width="9.687" height="9.687" transform="translate(9.687 90.623) rotate(180)" fill="#ce364c"/>
        </g>
        <g id="Group_30033" data-name="Group 30033" transform="translate(155.926)">
          <rect id="Rectangle_2841" data-name="Rectangle 2841" width="1.876" height="247.373" transform="translate(3.905)" fill="#a7b0d1"/>
          <path id="Path_159" data-name="Path 159" d="M358.739,160.82l-3.875,6.811h7.749Z" transform="translate(-353.896 -102.204)" fill="#686f9b"/>
          <rect id="Rectangle_2842" data-name="Rectangle 2842" width="9.687" height="32.26" transform="translate(0 73.594)" fill="#252a40"/>
        </g>
        <g id="Group_30034" data-name="Group 30034" transform="translate(175.417)">
          <rect id="Rectangle_2843" data-name="Rectangle 2843" width="1.876" height="247.373" transform="translate(3.906)" fill="#a7b0d1"/>
          <path id="Path_160" data-name="Path 160" d="M377.95,217.478l3.875-6.811h-7.749Z" transform="translate(-373.107 -101.478)" fill="#686f9b"/>
          <rect id="Rectangle_2844" data-name="Rectangle 2844" width="9.687" height="6.896" transform="translate(9.687 101.022) rotate(180)" fill="#ce364c"/>
        </g>
        <g id="Group_30035" data-name="Group 30035" transform="translate(194.907)">
          <rect id="Rectangle_2845" data-name="Rectangle 2845" width="1.876" height="247.373" transform="translate(3.905)" fill="#a7b0d1"/>
          <path id="Path_161" data-name="Path 161" d="M397.161,168.82l-3.875,6.811h7.749Z" transform="translate(-392.318 -102.087)" fill="#686f9b"/>
          <rect id="Rectangle_2846" data-name="Rectangle 2846" width="9.687" height="9.687" transform="translate(0 81.71)" fill="#252a40"/>
        </g>
        <g id="Group_30036" data-name="Group 30036" transform="translate(214.398)">
          <rect id="Rectangle_2847" data-name="Rectangle 2847" width="1.876" height="247.373" transform="translate(3.905)" fill="#a7b0d1"/>
          <path id="Path_162" data-name="Path 162" d="M416.372,218.478l3.875-6.811H412.5Z" transform="translate(-411.529 -101.463)" fill="#686f9b"/>
          <rect id="Rectangle_2848" data-name="Rectangle 2848" width="9.687" height="17.042" transform="translate(9.687 102.036) rotate(180)" fill="#ce364c"/>
        </g>
        <g id="Group_30037" data-name="Group 30037" transform="translate(233.889)">
          <rect id="Rectangle_2849" data-name="Rectangle 2849" width="1.876" height="247.373" transform="translate(3.906)" fill="#a7b0d1"/>
          <path id="Path_163" data-name="Path 163" d="M435.583,156.82l-3.875,6.811h7.749Z" transform="translate(-430.74 -102.262)" fill="#686f9b"/>
          <rect id="Rectangle_2850" data-name="Rectangle 2850" width="9.687" height="22.27" transform="translate(0 69.535)" fill="#252a40"/>
        </g>
        <g id="Group_30038" data-name="Group 30038" transform="translate(253.38)">
          <rect id="Rectangle_2851" data-name="Rectangle 2851" width="1.876" height="247.373" transform="translate(3.905)" fill="#a7b0d1"/>
          <path id="Path_164" data-name="Path 164" d="M454.794,146.82l-3.875,6.811h7.749Z" transform="translate(-449.951 -102.408)" fill="#686f9b"/>
          <rect id="Rectangle_2852" data-name="Rectangle 2852" width="9.687" height="38.958" transform="translate(0 59.39)" fill="#252a40"/>
        </g>
        <g id="Group_30039" data-name="Group 30039" transform="translate(272.87)">
          <rect id="Rectangle_2853" data-name="Rectangle 2853" width="1.876" height="247.373" transform="translate(3.906)" fill="#a7b0d1"/>
          <path id="Path_165" data-name="Path 165" d="M474.005,126.82l-3.875,6.811h7.749Z" transform="translate(-469.162 -102.699)" fill="#686f9b"/>
          <rect id="Rectangle_2854" data-name="Rectangle 2854" width="9.687" height="18.865" transform="translate(0 39.099)" fill="#252a40"/>
        </g>
        <g id="Group_30040" data-name="Group 30040" transform="translate(2.437 98.96)">
          <path id="Path_166" data-name="Path 166" d="M207.437,272.343a2.407,2.407,0,1,1-2.407-2.407A2.407,2.407,0,0,1,207.437,272.343Z" transform="translate(-202.624 -199.575)" fill="#686f9b"/>
          <path id="Path_167" data-name="Path 167" d="M226.648,262.343a2.407,2.407,0,1,1-2.407-2.407A2.407,2.407,0,0,1,226.648,262.343Z" transform="translate(-202.344 -199.72)" fill="#686f9b"/>
          <path id="Path_168" data-name="Path 168" d="M245.859,282.343a2.407,2.407,0,1,1-2.407-2.407A2.407,2.407,0,0,1,245.859,282.343Z" transform="translate(-202.064 -199.429)" fill="#686f9b"/>
          <path id="Path_169" data-name="Path 169" d="M265.07,272.343a2.407,2.407,0,1,1-2.407-2.407A2.407,2.407,0,0,1,265.07,272.343Z" transform="translate(-201.785 -199.575)" fill="#686f9b"/>
          <path id="Path_170" data-name="Path 170" d="M284.281,286.343a2.407,2.407,0,1,1-2.407-2.407A2.407,2.407,0,0,1,284.281,286.343Z" transform="translate(-201.505 -199.371)" fill="#686f9b"/>
          <path id="Path_171" data-name="Path 171" d="M303.492,262.343a2.407,2.407,0,1,1-2.407-2.407A2.407,2.407,0,0,1,303.492,262.343Z" transform="translate(-201.225 -199.72)" fill="#686f9b"/>
          <path id="Path_172" data-name="Path 172" d="M322.7,235.343a2.407,2.407,0,1,1-2.407-2.407A2.407,2.407,0,0,1,322.7,235.343Z" transform="translate(-200.945 -200.113)" fill="#686f9b"/>
          <path id="Path_173" data-name="Path 173" d="M341.914,252.343a2.407,2.407,0,1,1-2.407-2.407A2.407,2.407,0,0,1,341.914,252.343Z" transform="translate(-200.666 -199.866)" fill="#686f9b"/>
          <path id="Path_174" data-name="Path 174" d="M361.124,246.343a2.406,2.406,0,1,1-2.406-2.407A2.406,2.406,0,0,1,361.124,246.343Z" transform="translate(-200.386 -199.953)" fill="#686f9b"/>
          <path id="Path_175" data-name="Path 175" d="M380.335,262.343a2.406,2.406,0,1,1-2.406-2.407A2.406,2.406,0,0,1,380.335,262.343Z" transform="translate(-200.106 -199.72)" fill="#686f9b"/>
          <path id="Path_176" data-name="Path 176" d="M399.546,252.343a2.406,2.406,0,1,1-2.406-2.407A2.406,2.406,0,0,1,399.546,252.343Z" transform="translate(-199.826 -199.866)" fill="#686f9b"/>
          <path id="Path_177" data-name="Path 177" d="M418.757,266.343a2.406,2.406,0,1,1-2.406-2.407A2.406,2.406,0,0,1,418.757,266.343Z" transform="translate(-199.546 -199.662)" fill="#686f9b"/>
          <path id="Path_178" data-name="Path 178" d="M437.968,242.343a2.406,2.406,0,1,1-2.406-2.407A2.406,2.406,0,0,1,437.968,242.343Z" transform="translate(-199.267 -200.012)" fill="#686f9b"/>
          <path id="Path_179" data-name="Path 179" d="M457.179,236.343a2.406,2.406,0,1,1-2.406-2.407A2.406,2.406,0,0,1,457.179,236.343Z" transform="translate(-198.987 -200.099)" fill="#686f9b"/>
          <circle id="Ellipse_720" data-name="Ellipse 720" cx="2.406" cy="2.406" r="2.406" transform="translate(272.871)" fill="#686f9b"/>
          <path id="Path_180" data-name="Path 180" d="M205,273.318l19.491-10.146,19.491,20.291,19.491-10.146,19.491,14.2,19.491-24.349,19.491-27.393,19.491,17.248,19.491-6.087,19.491,16.233L399.9,253.027l19.491,14.2,19.491-24.35,19.491-6.087,19.491-33.837" transform="translate(-202.589 -200.55)" fill="none" stroke="#686f9b" stroke-miterlimit="10" stroke-width="1"/>
        </g>
      </g>
    </g>
    <g id="Group_30050" data-name="Group 30050" transform="translate(634.857 357.063)">
      <path id="Path_181" data-name="Path 181" d="M655.909,370.053s-2.718-6.135-6.5-.823,3.835,10.264,3.835,10.264,6.837-6.027,5.711-8.626S655.909,370.053,655.909,370.053Z" transform="translate(-625.908 -352.523)" fill="#ce364c"/>
      <path id="Path_182" data-name="Path 182" d="M681.588,422.441s6.531-1.54,2.007-6.233-10.8,1.877-10.8,1.877,4.663,7.831,7.425,7.2S681.588,422.441,681.588,422.441Z" transform="translate(-625.552 -351.832)" fill="#ce364c"/>
      <path id="Path_183" data-name="Path 183" d="M672.53,383.937a2.948,2.948,0,0,1,.131-2,7.55,7.55,0,0,0,.229-1.473,1.324,1.324,0,0,0-.2-.936,1.238,1.238,0,0,0-1.313-.2,3.4,3.4,0,0,1-1.365.306,1.186,1.186,0,0,1-.936-.722c-.089-.222-.107-.469-.212-.685a1.325,1.325,0,0,0-1.888-.319,3.84,3.84,0,0,0-1.211,1.766,10.327,10.327,0,0,0-1.2,4.611,31.437,31.437,0,0,0,.633,3.171l.291-.359,2.487.515a3.141,3.141,0,0,0,.951.1,4.465,4.465,0,0,0,1.588-.719,10.237,10.237,0,0,0,1.686-.925,1.525,1.525,0,0,0,.576-1.7C672.7,384.214,672.6,384.083,672.53,383.937Z" transform="translate(-625.673 -352.369)" fill="#ce364c"/>
      <path id="Path_184" data-name="Path 184" d="M649.972,386.262a2,2,0,0,1,.334-.992c.281-.316.752-.36,1.128-.552a2.063,2.063,0,0,0,1-1.691,6.105,6.105,0,0,0-.284-2.024.614.614,0,0,0-.189-.361.563.563,0,0,0-.408-.059,3.376,3.376,0,0,0-2.131,1.17.954.954,0,0,1-.379.333c-.34.117-.661-.234-.777-.573-.149-.438-.143-.917-.29-1.355s-.537-.862-1-.8c-.51.066-.763.664-.8,1.176a3.31,3.31,0,0,1-.225,1.509.582.582,0,0,1-.225.229c-.343.173-.693-.194-1.03-.38a1.432,1.432,0,0,0-1.758.47,2.34,2.34,0,0,0-.314,1.9,6.955,6.955,0,0,0,.788,1.815l1.8,3.257-.215.333A4.432,4.432,0,0,0,649.972,386.262Z" transform="translate(-625.993 -352.344)" fill="#ce364c"/>
      <path id="Path_185" data-name="Path 185" d="M636.115,397.646c-.6-.42-.561-1.474-1.233-1.777a1.282,1.282,0,0,0-.943.041,2.008,2.008,0,0,0-1.47,1.8c.047.89.951,1.707.624,2.536a2.746,2.746,0,0,1-.659.8,2.329,2.329,0,0,0-.641,2.129,1.571,1.571,0,0,0,1.749,1.165,1.755,1.755,0,0,1,.583-.112c.762.087.613,1.512,1.352,1.717a1.147,1.147,0,0,0,.908-.3q1.521-1.062,3.029-2.141l-.186.112a1.8,1.8,0,0,0,.439-1.372,24.13,24.13,0,0,0-.1-2.7c-.065-.7-.245-1.519-.893-1.8C637.875,397.413,636.833,398.146,636.115,397.646Z" transform="translate(-626.151 -352.105)" fill="#ce364c"/>
      <path id="Path_186" data-name="Path 186" d="M659.569,405.79c-.468-.569-.141-1.572-.706-2.044a1.278,1.278,0,0,0-.918-.216,2.01,2.01,0,0,0-1.9,1.338c-.2.87.455,1.9-.084,2.61a2.766,2.766,0,0,1-.852.595,2.328,2.328,0,0,0-1.194,1.876,1.571,1.571,0,0,0,1.369,1.594,1.766,1.766,0,0,1,.591.05c.71.291.182,1.621.838,2.019a1.144,1.144,0,0,0,.955-.042q1.752-.61,3.494-1.241l-.208.058a1.8,1.8,0,0,0,.793-1.2,24.028,24.028,0,0,0,.638-2.622,2.019,2.019,0,0,0-.373-1.971C661.326,406.042,660.126,406.465,659.569,405.79Z" transform="translate(-625.828 -351.992)" fill="#ce364c"/>
      <path id="Path_187" data-name="Path 187" d="M683.839,385.671c.348-.619,1.251-.712,1.66-1.293a1.3,1.3,0,0,0-.058-1.468,1.965,1.965,0,0,0-1.332-.742c-.549-.076-1.2-.013-1.56-.43a1.811,1.811,0,0,1-.317-.783,7.466,7.466,0,0,0-.8-1.957.839.839,0,0,0-.362-.383.9.9,0,0,0-.668.083,4.136,4.136,0,0,0-3.389,3.6q-.239,1.033-.477,2.068a3.325,3.325,0,0,0-.119,1.394l-.7-.455a1.368,1.368,0,0,0,1.19,1.371c.194.019.39-.005.583.009a2.974,2.974,0,0,1,1.331.569l1.8,1.155a4.274,4.274,0,0,0,1.673.756,1.461,1.461,0,0,0,1.555-.739C684.216,387.56,683.379,386.488,683.839,385.671Z" transform="translate(-625.51 -352.355)" fill="#ce364c"/>
      <path id="Path_188" data-name="Path 188" d="M683.4,407.317a1.88,1.88,0,0,0-.656-.326,6.473,6.473,0,0,1-1.172-.406,1.222,1.222,0,0,1-.695-.963c-.016-.513.414-1.067.125-1.492a.665.665,0,0,0-.415-.259,1.774,1.774,0,0,0-1.286.436l-1.8,1.21a1.631,1.631,0,0,0-.622.609,2.045,2.045,0,0,0-.073.944,3.892,3.892,0,0,1-1.028,2.761l.146.5a1.493,1.493,0,0,1,.891.387,4.578,4.578,0,0,0,4.613.26,1.007,1.007,0,0,0,.453-.388c.192-.372-.024-.945.327-1.172a1.18,1.18,0,0,1,.552-.091,1.139,1.139,0,0,0,.64-2.007Z" transform="translate(-625.509 -351.987)" fill="#ce364c"/>
      <path id="Path_189" data-name="Path 189" d="M672.928,399.99a1.9,1.9,0,0,0-.655-.326,6.383,6.383,0,0,1-1.173-.4,1.222,1.222,0,0,1-.694-.964c-.017-.513.413-1.067.124-1.491a.662.662,0,0,0-.415-.26,1.778,1.778,0,0,0-1.285.436l-1.8,1.211a1.63,1.63,0,0,0-.622.609,2.04,2.04,0,0,0-.073.943,3.887,3.887,0,0,1-1.028,2.761l.146.5a1.48,1.48,0,0,1,.891.387,4.583,4.583,0,0,0,4.613.26,1.01,1.01,0,0,0,.452-.389c.192-.372-.024-.945.327-1.172a1.166,1.166,0,0,1,.552-.09,1.14,1.14,0,0,0,.64-2.008Z" transform="translate(-625.662 -352.094)" fill="#ce364c"/>
      <path id="Path_190" data-name="Path 190" d="M639.4,394.423a1.9,1.9,0,0,0,.315.661,6.56,6.56,0,0,1,.671,1.044,1.225,1.225,0,0,1-.052,1.187c-.3.414-.985.582-1.021,1.095a.664.664,0,0,0,.166.461,1.775,1.775,0,0,0,1.279.453l2.163.162a1.631,1.631,0,0,0,.865-.093,2.061,2.061,0,0,0,.641-.695,3.885,3.885,0,0,1,2.515-1.533l.194-.482a1.478,1.478,0,0,1-.461-.854,4.582,4.582,0,0,0-3.465-3.059.988.988,0,0,0-.595.025c-.382.173-.565.757-.982.717a1.155,1.155,0,0,1-.49-.27,1.14,1.14,0,0,0-1.745,1.181Z" transform="translate(-626.04 -352.149)" fill="#ce364c"/>
      <g id="Group_30043" data-name="Group 30043" transform="translate(4.971 38.4)">
        <path id="Path_191" data-name="Path 191" d="M661.273,436.9c-1.236-4.982-3.7-12.12-8.4-17.836a36.655,36.655,0,0,0-5.192-4.876,34.3,34.3,0,0,1-6.238-6.14,32.032,32.032,0,0,1-3.342-6.31c-.451-1.039-.919-2.115-1.448-3.158a22.438,22.438,0,0,0-4.144-5.047c-.481-.487-.951-.962-1.383-1.423l1.63-1.53c.42.448.876.909,1.343,1.382a24.4,24.4,0,0,1,4.549,5.61c.557,1.1,1.038,2.207,1.5,3.276a29.8,29.8,0,0,0,3.1,5.887,32.115,32.115,0,0,0,5.854,5.731,38.961,38.961,0,0,1,5.494,5.18c4.966,6.039,7.547,13.512,8.838,18.718Z" transform="translate(-631.13 -390.58)" fill="#686f9b"/>
      </g>
      <g id="Group_30044" data-name="Group 30044" transform="translate(30.328 8.36)">
        <path id="Path_192" data-name="Path 192" d="M657.431,433.744c-2.991-7.291-.32-15.45,2.689-22.469l.493-1.148c2.768-6.425,5.629-13.07,4.46-19.678-.12-.678-.281-1.351-.441-2.024a17.652,17.652,0,0,1-.68-4.713,17.848,17.848,0,0,1,1.851-6.438l7.072-16.3,2.052.89-7.073,16.3a15.909,15.909,0,0,0-1.667,5.622,15.75,15.75,0,0,0,.619,4.12c.171.716.342,1.434.47,2.155,1.284,7.267-1.712,14.224-4.609,20.951l-.491,1.144c-2.826,6.593-5.353,14.213-2.675,20.741Z" transform="translate(-656.123 -360.972)" fill="#686f9b"/>
      </g>
      <g id="Group_30045" data-name="Group 30045" transform="translate(35.805 39.231)">
        <path id="Path_193" data-name="Path 193" d="M663.6,431.882l-2.076-.829a45.917,45.917,0,0,1,4.431-8.424,6.731,6.731,0,0,1,1.643-1.851,7.063,7.063,0,0,1,1.786-.848c.2-.072.4-.145.6-.226a6.4,6.4,0,0,0,3.434-3.408,14.123,14.123,0,0,0,.8-3.7,10.986,10.986,0,0,1,4.584-8.728L692.619,391.4l1.5,1.661L680.3,405.533a8.885,8.885,0,0,0-3.863,7.35,16,16,0,0,1-.955,4.281,8.648,8.648,0,0,1-4.643,4.607c-.229.1-.464.179-.7.263a5.333,5.333,0,0,0-1.245.565,4.855,4.855,0,0,0-1.08,1.271A43.738,43.738,0,0,0,663.6,431.882Z" transform="translate(-661.522 -391.4)" fill="#686f9b"/>
      </g>
      <g id="Group_30046" data-name="Group 30046" transform="translate(17.972 25.84)">
        <path id="Path_194" data-name="Path 194" d="M654.009,434.078c-1.145-5.71-2.33-11.615-1.829-17.619.035-.429.079-.862.123-1.3.249-2.5.506-5.092-.719-6.982a10.508,10.508,0,0,0-1.269-1.487q-.253-.26-.5-.525a18.906,18.906,0,0,1-4.976-13.587,36,36,0,0,1,.4-3.627,33.984,33.984,0,0,0,.382-3.418c.076-1.76-.153-4.192-1.677-5.786l1.616-1.546c2.068,2.164,2.389,5.234,2.295,7.429a36.338,36.338,0,0,1-.4,3.643,34.224,34.224,0,0,0-.381,3.4,16.66,16.66,0,0,0,4.385,11.97c.153.164.31.328.468.492a12.272,12.272,0,0,1,1.534,1.82c1.654,2.548,1.343,5.668,1.068,8.422-.042.424-.084.847-.119,1.263-.474,5.689.679,11.436,1.794,16.994Z" transform="translate(-643.945 -378.201)" fill="#686f9b"/>
      </g>
      <g id="Group_30047" data-name="Group 30047" transform="translate(36.499 16.249)">
        <path id="Path_195" data-name="Path 195" d="M668.192,434.162c-6.822-12.036-7.88-25.2-2.831-35.219,2.284-4.531,5.727-8.308,9.059-11.963.841-.922,1.681-1.844,2.5-2.778,3.5-3.974,7.607-9.321,8.321-15.456l2.221.259c-.786,6.75-5.15,12.457-8.864,16.674-.83.943-1.679,1.875-2.529,2.808-3.229,3.541-6.568,7.205-8.714,11.462-4.713,9.347-3.674,21.725,2.779,33.109Z" transform="translate(-662.206 -368.747)" fill="#686f9b"/>
      </g>
      <g id="Group_30048" data-name="Group 30048" transform="translate(21.161 8.629)">
        <path id="Path_196" data-name="Path 196" d="M655.774,436.291c-1.8-9.52-3.847-20.31-1.943-30.638.195-1.06.431-2.113.668-3.165a44.566,44.566,0,0,0,1-5.5c.632-6.583-1.661-12.8-4.088-19.388-1.919-5.2-3.9-10.585-4.323-16.192l2.23-.166c.4,5.294,2.325,10.526,4.191,15.586,2.407,6.531,4.9,13.284,4.215,20.376a46.988,46.988,0,0,1-1.044,5.78c-.23,1.025-.461,2.049-.651,3.08-1.828,9.918.174,20.489,1.942,29.817Z" transform="translate(-647.088 -361.237)" fill="#686f9b"/>
      </g>
      <path id="Path_197" data-name="Path 197" d="M651.414,355.72s-2.718-6.135-6.5-.824,3.835,10.265,3.835,10.265,6.837-6.027,5.711-8.626S651.414,355.72,651.414,355.72Z" transform="translate(-625.974 -352.732)" fill="#f24052"/>
      <path id="Path_198" data-name="Path 198" d="M678.277,361.4a2.949,2.949,0,0,1-.326-1.979,7.625,7.625,0,0,0-.11-1.487,1.329,1.329,0,0,0-.413-.865,1.237,1.237,0,0,0-1.325.1,3.413,3.413,0,0,1-1.259.607,1.189,1.189,0,0,1-1.077-.491c-.137-.2-.211-.433-.361-.62a1.326,1.326,0,0,0-1.911.118,3.85,3.85,0,0,0-.78,1.995,10.338,10.338,0,0,0-.128,4.764,31.237,31.237,0,0,0,1.335,2.945l.2-.416,2.538-.062a3.1,3.1,0,0,0,.949-.121,4.47,4.47,0,0,0,1.384-1.06,10.281,10.281,0,0,0,1.433-1.282,1.527,1.527,0,0,0,.177-1.784C678.507,361.626,678.379,361.522,678.277,361.4Z" transform="translate(-625.588 -352.68)" fill="#f24052"/>
      <path id="Path_199" data-name="Path 199" d="M656.29,390.188c-.437-.078-.717-.492-1-.836a4.806,4.806,0,0,0-.684-.686.864.864,0,0,0-.569-.253c-.3.019-.509.323-.61.611a2.211,2.211,0,0,1-.363.832.771.771,0,0,1-.739.213c-.15-.039-.287-.124-.439-.152-.463-.086-.872.4-.892.867a2.485,2.485,0,0,0,.46,1.312,6.717,6.717,0,0,0,1.954,2.4,20.668,20.668,0,0,0,1.9.885l-.076-.29,1.225-1.1a2.01,2.01,0,0,0,.415-.461,2.9,2.9,0,0,0,.233-1.108,6.7,6.7,0,0,0,.162-1.238.991.991,0,0,0-.668-.954C656.5,390.206,656.394,390.208,656.29,390.188Z" transform="translate(-625.87 -352.212)" fill="#f24052"/>
      <path id="Path_200" data-name="Path 200" d="M667.829,416.285c-.4-.194-.557-.668-.735-1.075a4.889,4.889,0,0,0-.473-.845.862.862,0,0,0-.48-.4.8.8,0,0,0-.753.422,2.2,2.2,0,0,1-.574.7.769.769,0,0,1-.768.006c-.135-.078-.244-.2-.383-.265a.861.861,0,0,0-1.094.592,2.494,2.494,0,0,0,.088,1.388,6.705,6.705,0,0,0,1.231,2.84,20.176,20.176,0,0,0,1.594,1.368l.005-.3,1.477-.732a2.013,2.013,0,0,0,.525-.331,2.9,2.9,0,0,0,.524-1,6.727,6.727,0,0,0,.491-1.147.991.991,0,0,0-.384-1.1C668.028,416.358,667.925,416.332,667.829,416.285Z" transform="translate(-625.702 -351.84)" fill="#f24052"/>
      <path id="Path_201" data-name="Path 201" d="M674.892,386.059c-.4-.195-.558-.669-.736-1.076a4.888,4.888,0,0,0-.472-.845.862.862,0,0,0-.48-.4.8.8,0,0,0-.753.422,2.191,2.191,0,0,1-.575.7.769.769,0,0,1-.768.007c-.134-.078-.242-.2-.383-.266a.861.861,0,0,0-1.093.594,2.5,2.5,0,0,0,.087,1.388,6.718,6.718,0,0,0,1.232,2.84,20.581,20.581,0,0,0,1.593,1.368l.005-.3,1.478-.732a2.014,2.014,0,0,0,.524-.332,2.9,2.9,0,0,0,.523-1,6.74,6.74,0,0,0,.492-1.147.991.991,0,0,0-.385-1.1C675.09,386.132,674.987,386.105,674.892,386.059Z" transform="translate(-625.6 -352.28)" fill="#f24052"/>
      <path id="Path_202" data-name="Path 202" d="M667.7,376.2c-.4-.195-.558-.669-.734-1.075a4.9,4.9,0,0,0-.473-.846.861.861,0,0,0-.48-.4.8.8,0,0,0-.753.422,2.212,2.212,0,0,1-.574.7.771.771,0,0,1-.769.006c-.134-.078-.242-.2-.383-.266a.862.862,0,0,0-1.093.593,2.494,2.494,0,0,0,.088,1.388,6.716,6.716,0,0,0,1.231,2.84,20.568,20.568,0,0,0,1.593,1.368l.005-.3,1.478-.732a2.04,2.04,0,0,0,.525-.331,2.9,2.9,0,0,0,.524-1,6.664,6.664,0,0,0,.491-1.147.99.99,0,0,0-.385-1.1C667.9,376.272,667.792,376.245,667.7,376.2Z" transform="translate(-625.704 -352.424)" fill="#f24052"/>
      <path id="Path_203" data-name="Path 203" d="M644.731,375.825a2,2,0,0,1-.833-.635c-.209-.366-.1-.827-.161-1.245a2.064,2.064,0,0,0-1.281-1.492,6.107,6.107,0,0,0-2.009-.378.614.614,0,0,0-.4.064.56.56,0,0,0-.186.367,3.381,3.381,0,0,0,.426,2.393.946.946,0,0,1,.194.466c0,.358-.433.552-.791.553-.463,0-.914-.158-1.377-.159a1.042,1.042,0,0,0-1.08.687c-.1.5.385.934.86,1.13a3.3,3.3,0,0,1,1.356.7.581.581,0,0,1,.146.286c.055.381-.406.6-.69.854a1.432,1.432,0,0,0-.119,1.816,2.34,2.34,0,0,0,1.7.9,6.949,6.949,0,0,0,1.971-.165l3.661-.666.247.31A4.432,4.432,0,0,0,644.731,375.825Z" transform="translate(-626.071 -352.45)" fill="#f24052"/>
      <path id="Path_204" data-name="Path 204" d="M684.176,384.351a1.77,1.77,0,0,1,.921-.15c.366.09.6.442.906.659a1.841,1.841,0,0,0,1.752.088,5.454,5.454,0,0,0,1.477-1.068.55.55,0,0,0,.207-.3.5.5,0,0,0-.124-.346,3.012,3.012,0,0,0-1.811-1.192.842.842,0,0,1-.42-.161c-.233-.218-.091-.619.128-.851.283-.3.664-.5.949-.793a.931.931,0,0,0,.218-1.12c-.265-.374-.841-.325-1.26-.137a2.945,2.945,0,0,1-1.283.45.522.522,0,0,1-.275-.081c-.28-.2-.136-.628-.129-.971a1.278,1.278,0,0,0-1.1-1.191,2.087,2.087,0,0,0-1.628.545,6.214,6.214,0,0,0-1.1,1.378l-1.817,2.778-.352-.03A3.953,3.953,0,0,0,684.176,384.351Z" transform="translate(-625.456 -352.376)" fill="#f24052"/>
      <path id="Path_205" data-name="Path 205" d="M653.207,421.2a1.88,1.88,0,0,1-.787-.6c-.2-.347-.1-.782-.154-1.178a1.951,1.951,0,0,0-1.211-1.411,5.754,5.754,0,0,0-1.9-.358.585.585,0,0,0-.38.06.529.529,0,0,0-.177.348,3.2,3.2,0,0,0,.4,2.264.892.892,0,0,1,.183.441c0,.339-.409.521-.749.522-.437,0-.864-.149-1.3-.151a.988.988,0,0,0-1.021.65c-.094.477.364.884.814,1.069a3.118,3.118,0,0,1,1.283.658.545.545,0,0,1,.138.271c.052.36-.384.563-.652.808a1.355,1.355,0,0,0-.112,1.718,2.216,2.216,0,0,0,1.607.856,6.572,6.572,0,0,0,1.865-.157l3.464-.629.233.292A4.191,4.191,0,0,0,653.207,421.2Z" transform="translate(-625.941 -351.786)" fill="#f24052"/>
      <path id="Path_206" data-name="Path 206" d="M631.755,386.665c-.486-.554-.191-1.566-.77-2.021a1.279,1.279,0,0,0-.924-.187,2.007,2.007,0,0,0-1.861,1.4c-.168.876.513,1.885,0,2.611a2.725,2.725,0,0,1-.833.621A2.326,2.326,0,0,0,626.231,391a1.57,1.57,0,0,0,1.417,1.55,1.81,1.81,0,0,1,.594.031c.718.269.232,1.615.9,1.992a1.149,1.149,0,0,0,.954-.071q1.73-.667,3.454-1.35l-.207.064a1.8,1.8,0,0,0,.756-1.227,23.94,23.94,0,0,0,.555-2.641,2.018,2.018,0,0,0-.435-1.958C633.52,386.862,632.333,387.323,631.755,386.665Z" transform="translate(-626.231 -352.27)" fill="#f24052"/>
      <path id="Path_207" data-name="Path 207" d="M664.356,398.6c-.318-.665.24-1.559-.194-2.154a1.285,1.285,0,0,0-.84-.43,2.01,2.01,0,0,0-2.169.841c-.4.8-.015,1.954-.709,2.514a2.743,2.743,0,0,1-.97.372,2.329,2.329,0,0,0-1.609,1.535,1.571,1.571,0,0,0,.947,1.876,1.763,1.763,0,0,1,.562.191c.619.452-.214,1.617.328,2.161a1.149,1.149,0,0,0,.937.189q1.846-.172,3.69-.365l-.216.005a1.8,1.8,0,0,0,1.059-.976,24.083,24.083,0,0,0,1.249-2.391,2.017,2.017,0,0,0,.111-2C666,399.265,664.734,399.389,664.356,398.6Z" transform="translate(-625.771 -352.102)" fill="#f24052"/>
      <path id="Path_208" data-name="Path 208" d="M689.362,366.879c-.308-.64.13-1.434-.112-2.1a1.3,1.3,0,0,0-1.239-.79,1.952,1.952,0,0,0-1.369.669c-.378.406-.7.974-1.246,1.035a1.83,1.83,0,0,1-.823-.188,7.472,7.472,0,0,0-2.065-.461.852.852,0,0,0-.521.078.9.9,0,0,0-.312.6,4.133,4.133,0,0,0,1.016,4.837q.711.787,1.423,1.573a3.333,3.333,0,0,0,1.076.894l-.773.315a1.367,1.367,0,0,0,1.8-.193c.126-.148.218-.323.341-.474a2.972,2.972,0,0,1,1.228-.766l1.978-.821a4.293,4.293,0,0,0,1.577-.94,1.463,1.463,0,0,0,.282-1.7C691.128,367.649,689.769,367.723,689.362,366.879Z" transform="translate(-625.428 -352.568)" fill="#f24052"/>
      <path id="Path_209" data-name="Path 209" d="M645.107,403.158c-.4-.543-.251-1.416-.6-2a.994.994,0,0,0-1.15-.463,1.6,1.6,0,0,0-.894.979c-.191.484-.3,1.11-.708,1.3a1.2,1.2,0,0,1-.682.019,4.871,4.871,0,0,0-1.708.058.589.589,0,0,0-.383.2,1.038,1.038,0,0,0-.1.651,6.742,6.742,0,0,0,.774,3.243,5.2,5.2,0,0,0,1.2,1.185l1.486,1.173a2.678,2.678,0,0,0,1.051.6l-.521.492a.982.982,0,0,0,1.347-.626c.061-.173.089-.364.147-.541a2.592,2.592,0,0,1,.76-1.039l1.326-1.273a3.678,3.678,0,0,0,.987-1.294,1.75,1.75,0,0,0-.2-1.71C646.661,403.473,645.63,403.875,645.107,403.158Z" transform="translate(-626.046 -352.034)" fill="#f24052"/>
      <path id="Path_210" data-name="Path 210" d="M678.221,407.62c-.234-.63.141-1.433-.039-2.092a.993.993,0,0,0-.982-.757,1.608,1.608,0,0,0-1.125.7c-.315.415-.586.988-1.034,1.062a1.2,1.2,0,0,1-.661-.165,4.889,4.889,0,0,0-1.66-.407.585.585,0,0,0-.424.091,1.029,1.029,0,0,0-.268.6,6.76,6.76,0,0,0-.133,3.332,5.22,5.22,0,0,0,.833,1.464l1.113,1.532a2.68,2.68,0,0,0,.849.863l-.634.334a.982.982,0,0,0,1.466-.238c.105-.151.185-.327.287-.481a2.61,2.61,0,0,1,1.014-.794l1.621-.867a3.682,3.682,0,0,0,1.3-.977,1.752,1.752,0,0,0,.271-1.7C679.63,408.342,678.53,408.451,678.221,407.62Z" transform="translate(-625.568 -351.974)" fill="#f24052"/>
      <path id="Path_211" data-name="Path 211" d="M697.992,391.968a1.875,1.875,0,0,0-.655-.326,6.515,6.515,0,0,1-1.173-.406,1.223,1.223,0,0,1-.694-.963c-.017-.514.413-1.067.125-1.492a.664.664,0,0,0-.416-.259,1.771,1.771,0,0,0-1.285.436l-1.8,1.21a1.626,1.626,0,0,0-.623.609,2.075,2.075,0,0,0-.073.944,3.888,3.888,0,0,1-1.028,2.761l.146.5a1.481,1.481,0,0,1,.891.386,4.58,4.58,0,0,0,4.614.26,1,1,0,0,0,.451-.388c.193-.372-.024-.945.328-1.173a1.176,1.176,0,0,1,.552-.09,1.138,1.138,0,0,0,.639-2.007Z" transform="translate(-625.297 -352.211)" fill="#f24052"/>
      <path id="Path_212" data-name="Path 212" d="M683.658,394.547a1.875,1.875,0,0,0-.684.261,6.46,6.46,0,0,1-1.094.586,1.223,1.223,0,0,1-1.179-.143c-.388-.336-.5-1.027-1.012-1.1a.661.661,0,0,0-.472.13,1.775,1.775,0,0,0-.552,1.241q-.164,1.071-.33,2.143a1.622,1.622,0,0,0,.025.871,2.041,2.041,0,0,0,.643.693,3.893,3.893,0,0,1,1.332,2.628l.465.23a1.479,1.479,0,0,1,.888-.393,4.58,4.58,0,0,0,3.32-3.215.994.994,0,0,0,.021-.595c-.143-.395-.71-.623-.639-1.036a1.177,1.177,0,0,1,.307-.467,1.139,1.139,0,0,0-1.041-1.831Z" transform="translate(-625.473 -352.129)" fill="#f24052"/>
      <g id="Group_30049" data-name="Group 30049" transform="translate(15.733 74.491)">
        <path id="Path_213" data-name="Path 213" d="M678.282,426.153H642.973l3.513,34.618h28.282Z" transform="translate(-641.72 -426.153)" fill="#5a97ff"/>
        <path id="Path_214" data-name="Path 214" d="M679.553,426.153H641.738l.616,5.666h36.583Z" transform="translate(-641.738 -426.153)" fill="#a7b0d1"/>
      </g>
    </g>
    <g id="Group_30052" data-name="Group 30052" transform="translate(123.949 202.797)">
      <path id="Path_215" data-name="Path 215" d="M202.578,460.516l-1.572-.734-.734.734h-5.994c-.6-1.724-2.625-8.279-.793-12.825,2.123-5.273,8.694-3.864,8.694-3.864s4.459,6.219,7.04,7.333,12.437,5.1,13.61,7.684c.35.772-.248,1.293-.075,1.672Z" transform="translate(-121.636 -197.141)" fill="#233c5b"/>
      <path id="Path_216" data-name="Path 216" d="M143.437,460.535v-3.466c0-3.993,3.728-11.24,3.728-13.9s10.3,2.162,10.3,2.162a12.83,12.83,0,0,0,3.543,7.747,9.872,9.872,0,0,1,2.5,7.459Z" transform="translate(-122.354 -197.16)" fill="#233c5b"/>
      <path id="Path_217" data-name="Path 217" d="M128.482,289.041c0,21.124,2.08,42.636,2.614,48.093s9.645,68.522,10.44,92.1c.407,12.08,2.119,26.1,2.119,26.1a107.623,107.623,0,0,0,16.381-1.5l1.984-11.818-3.055-7.422s3.265-6.138.594-10.908-3.49-106.722-3.49-106.722l3.021-.33L187.868,434.9l.419,6.609s5.338,9.319,5.385,14.781l14.007-6.525-2.671-7.744.721-4.491-3.816-20.661S185.179,298.833,179.88,291.138Z" transform="translate(-122.572 -199.393)" fill="#252a40"/>
      <path id="Path_218" data-name="Path 218" d="M187.547,236.333c-15.251.661-52.716,3.823-63.869,11.437-5,3.417,10,34.8,10,34.8l7.3-3.766-4.637-23.9,40.184-6.76,12.467-11.818" transform="translate(-122.657 -200.161)" fill="#ff8b66"/>
      <path id="Path_219" data-name="Path 219" d="M194.111,236.706c-20.858-4.531-47.8,3.9-47.8,3.9s8.63,4.263,3.5,12.323l10.453,1.721Z" transform="translate(-122.312 -200.175)" fill="#c11f3e"/>
      <path id="Path_220" data-name="Path 220" d="M224.029,238.44s16.328,38.789,12.906,51.948c-3.614,13.9-10.065-1.917-15.245-6.3s-3.468-43.24-3.468-43.24Z" transform="translate(-121.269 -200.13)" fill="#ef6e4b"/>
      <path id="Path_221" data-name="Path 221" d="M224.445,234.793c0,5.687-1.1,10.709-4.646,8.309s-3.729-7.612,1.252-13.074C221.051,230.029,224.445,232.5,224.445,234.793Z" transform="translate(-121.28 -200.253)" fill="#ef6e4b"/>
      <g id="Group_30051" data-name="Group 30051" transform="translate(65.397)">
        <path id="Path_222" data-name="Path 222" d="M223.1,210.7c-1.607-8.023-20-3.284-21.5,1.837s-3.162,21.809,8.35,25.636C222,242.175,224.563,217.988,223.1,210.7Z" transform="translate(-186.92 -200.597)" fill="#ff8b66"/>
        <path id="Path_223" data-name="Path 223" d="M214.753,226.98s2.068,10.164-2.65,11.331S200.722,224.092,214.753,226.98Z" transform="translate(-186.835 -200.302)" fill="#ef6e4b"/>
        <path id="Path_224" data-name="Path 224" d="M212.249,236.293s-4.991,3.588-5.516,9.575c0,0-11.5.73-19.618-7.578,0,0,14.1-4.005,13.748-8.692l1.005-.89A10.636,10.636,0,0,1,212.249,236.293Z" transform="translate(-187.115 -200.272)" fill="#ff8b66"/>
        <path id="Path_225" data-name="Path 225" d="M224.819,203.894s.155,1.258-.965,1.258c0,0-1.062-2.376-6.332-4.472a11.872,11.872,0,0,1,0,1.945s-8.346-2.219-14.5.643-8.411,9.337-6.022,16.722l0,.005c.023.32.049.635.083.941-.289,4.121.876,7.81,3.643,9.07,9.332,4.249,14.169-2.649,14.169-2.649-.736-1.792.541-6.723,2.323-6.278a1.718,1.718,0,0,1,1.48,1.966,26.516,26.516,0,0,0,3.471-9.1,5.217,5.217,0,0,1,1.361,2.162S229,212.56,224.819,203.894Z" transform="translate(-186.985 -200.68)" fill="#ffb878"/>
      </g>
      <path id="Path_226" data-name="Path 226" d="M212.431,242.265s-4.741-8.38-13.045-9.85-11.352,6.116-11.352,6.116Z" transform="translate(-121.704 -200.221)" fill="#c11f3e"/>
      <path id="Path_227" data-name="Path 227" d="M223.415,236.387a5.743,5.743,0,0,0,.6-2.491c0-1.394-1.85-3.814-1.85-3.814s-1.252-.643-.923,2.527c.161,1.561-1.909,4.019-2.108,6.836s1.892,5.291,3.188,3.656S223.415,236.387,223.415,236.387Z" transform="translate(-121.252 -200.253)" fill="#ff8b66"/>
      <path id="Path_228" data-name="Path 228" d="M222.438,246.872c-14.932-15.014-43.315-13.777-51.951-6.1-7.485,6.657-46.546,30.846-42.912,60.591,0,0,26.416-8.386,56.494,5.84,1.821.861.494-9.317.494-9.317S232.789,257.28,222.438,246.872Z" transform="translate(-122.588 -200.177)" fill="#ce364c"/>
      <path id="Path_229" data-name="Path 229" d="M239.958,280.049h-.048a4.022,4.022,0,0,1,.3.419Z" transform="translate(-120.949 -199.524)" fill="#ef6e4b"/>
      <path id="Path_230" data-name="Path 230" d="M222.091,251.993c-5.286-6.337-9.337-1.158-9.992,8.651s17.657,45.724,24.923,32.276C239.9,287.592,231.441,263.2,222.091,251.993Z" transform="translate(-121.354 -199.973)" fill="#ff8b66"/>
      <path id="Path_231" data-name="Path 231" d="M216.558,243.43s8.314,2.576,17.485,28.114c0,0-2.855,14.19-13.634,14.022,0,0-9.208-12.391-11.682-16.715S208.141,248.345,216.558,243.43Z" transform="translate(-121.418 -200.057)" fill="#c11f3e"/>
    </g>
    <g id="Group_30059" data-name="Group 30059" transform="translate(518.725 204.527)">
      <path id="Path_232" data-name="Path 232" d="M582.615,241.651s-10.793,5.1-11.681,6.088S556.2,262.678,556.2,262.678l-2.91,14.148,13.456-1.056Z" transform="translate(-511.161 -201.814)" fill="#8bbddb"/>
      <path id="Path_233" data-name="Path 233" d="M551.288,321.609c5.035-5.332,47.059-1.667,51.641,3.152s-6.774-63.6-6.774-63.6-20.71-1.906-21.87,3.508C568.2,293.084,551.288,321.609,551.288,321.609Z" transform="translate(-511.19 -201.534)" fill="#528daa"/>
      <path id="Path_234" data-name="Path 234" d="M587.805,239.119s7.786-3.442,14.736-.875l1.2,9.9s-16.532,6.029-21.878,4.254S575.083,246.389,587.805,239.119Z" transform="translate(-510.802 -201.877)" fill="#528daa"/>
      <path id="Path_235" data-name="Path 235" d="M531.546,460.637c1.9-1.535,6.773-8.108,7.776-11.413,1.416-4.668,3.093-11.084,4.8-18.075h7.3c-2.393,7.626-3.925,14.005-4.611,16.879a5.538,5.538,0,0,0,.269,1.347c.2.7.611,11.323.611,11.323H531.35c.064-.019.115-.033.146-.042A.178.178,0,0,0,531.546,460.637Z" transform="translate(-511.481 -199.054)" fill="#ef6e4b"/>
      <path id="Path_236" data-name="Path 236" d="M585.6,431.149h8.628c-1.611,8.889-2.872,16.436-2.872,16.436V460.7h-9.4c.9-3.925,3.52-15.69,3.52-20.651C585.469,437.133,585.516,434.155,585.6,431.149Z" transform="translate(-510.744 -199.054)" fill="#ff8b66"/>
      <path id="Path_237" data-name="Path 237" d="M541.944,441.18c5.128-19.732,11.476-49.6,12.3-54.551.533-3.2,1.01-13.345,2.268-25.8.329-14.206,1.965-46.685,9.944-65.122l18.784.438c-.76,14.641,13.436,30.442-3.849,47.375-2.251,6.324-9.71,27.767-10.792,37.21-1.277,11.144-3.044,18.469-8.816,33.279-4.4,11.293-9.031,28.5-9.031,28.5C550.492,444.022,541.944,441.18,541.944,441.18Z" transform="translate(-511.327 -201.027)" fill="#252a40"/>
      <path id="Path_238" data-name="Path 238" d="M605.255,359.942c-3.431,17.341-1.766,35.165-3.944,49.25-.933,6.043-6.46,35.158-6.46,35.158-6.534,1.166-10.755-1.147-10.743-1.243,1.874-14.364,3.135-57.851,2.6-69.589-.224-4.947-2.688-36.918-5.378-38.473-11.018-6.367-15.231-39.339-15.231-39.339l28.115,1.308s16.376,13.607,12.076,37.829c0,0,.017.249.04.684C607.019,346.929,606.441,353.949,605.255,359.942Z" transform="translate(-510.975 -201.027)" fill="#333951"/>
      <path id="Path_239" data-name="Path 239" d="M548.61,460.452s.72-9.721-1.179-12.26c0,0-2.1,3.338-4.977,3.338-1.871,0-2.625-4.306-4.227-3.338-1.4.849-2.349,3.278-6.121,5.766s-6.837,1.78-7.073,6.494Z" transform="translate(-511.573 -198.808)" fill="#1a4850"/>
      <path id="Path_240" data-name="Path 240" d="M592.714,450.323s-.118-3.228-4.6-2.852-4.158,3.625-4.158,3.625a1.017,1.017,0,0,0-1.264,0c-.589.524-.09,5-1.224,5.946s-.779,3.418-.779,3.418h13.085s.707-3.183-.589-4.362S595.19,450.677,592.714,450.323Z" transform="translate(-510.763 -198.817)" fill="#1a4850"/>
      <path id="Path_241" data-name="Path 241" d="M602.732,298.341s-15.524,7.759-31.177,6.02c-7.978-.887-6.973-6.02-6.973-6.02,2.812-10.183,4.67-16.776,4.67-16.776-12.966-22.138,9.689-37.64,9.689-37.64s.162-.061.467-.162c2.973-.994,19.459-6.037,30.224.852a17.093,17.093,0,0,1,2.039,1.512c11.6,9.943-12.946,40.674-12.946,40.674C599.663,289.106,601.15,293.033,602.732,298.341Z" transform="translate(-510.997 -201.822)" fill="#ffb878"/>
      <g id="Group_30057" data-name="Group 30057" transform="translate(62.371)">
        <path id="Path_242" data-name="Path 242" d="M597.1,208.9a7.325,7.325,0,0,1,7.726-4.079c5.62.768,7.826,7.7,6.221,15.373s.3,11.025-.6,14.215-3.211,3.289-3.211,3.289,3.511-.987,2.508-7.065c0,0-.091,6.865-5.414,7.065a7.322,7.322,0,0,0,1.6-8.228c-2.107-4.917-.9-8.353-.9-8.353a15.691,15.691,0,0,0-.2,7.8c1,4.163,0,5.969,0,5.969s.3-3.608-.9-5.969a31.347,31.347,0,0,1-2.14-14.883C602.515,208.395,597.1,208.9,597.1,208.9Z" transform="translate(-572.895 -202.351)" fill="#ce364c"/>
        <path id="Path_243" data-name="Path 243" d="M576.605,210.578c-5.527.827-3.76,12.951,3.974,18.2S585.627,209.228,576.605,210.578Z" transform="translate(-573.24 -202.267)" fill="#ce364c"/>
        <path id="Path_244" data-name="Path 244" d="M595.121,206.164s-17.376-2.6-18.641,9.538,3.887,23.789,11.444,21.614C598.559,234.257,609.013,210.412,595.121,206.164Z" transform="translate(-573.198 -202.334)" fill="#ff8b66"/>
        <path id="Path_245" data-name="Path 245" d="M589.575,223.6a1.64,1.64,0,1,1-1.891-.787A1.467,1.467,0,0,1,589.575,223.6Z" transform="translate(-573.05 -202.089)" fill="#db614d"/>
        <g id="Group_30053" data-name="Group 30053" transform="translate(11.08 13.2)">
          <path id="Path_246" data-name="Path 246" d="M587.084,216.853a.349.349,0,0,1-.3-.11,2.3,2.3,0,0,0-2.184-.584.346.346,0,0,1-.192-.666,2.979,2.979,0,0,1,2.885.781.346.346,0,0,1-.214.578Z" transform="translate(-584.163 -215.396)" fill="#ce364c"/>
        </g>
        <g id="Group_30054" data-name="Group 30054" transform="translate(3.122 13.242)">
          <path id="Path_247" data-name="Path 247" d="M579.326,216.434a.347.347,0,0,1-.21-.044,2.278,2.278,0,0,0-2.259.111.346.346,0,0,1-.384-.575,2.974,2.974,0,0,1,2.986-.137.347.347,0,0,1-.133.645Z" transform="translate(-576.32 -215.437)" fill="#ce364c"/>
        </g>
        <path id="Path_248" data-name="Path 248" d="M589.444,213.182a18.981,18.981,0,0,1,5.5,10.368s2.157-3.859,4.114-1.182-3.053,7.978-3.053,7.978,9.379-1.116,8.349-13.318C603.925,211.887,596.541,208.426,589.444,213.182Z" transform="translate(-573.006 -202.261)" fill="#ce364c"/>
        <path id="Path_249" data-name="Path 249" d="M595.4,227.547c-.66,3.612-4.449,10.337-9.857,9.562,0,0,2.176,4.827.377,7.045,0,0-1.555,4.308,3.654,3.962,6.518-.432,9.167-6.225,9.167-6.225-3.882-5.712-1.406-14.041-1.406-14.041A1.13,1.13,0,0,1,595.4,227.547Z" transform="translate(-573.063 -202.019)" fill="#ef6e4b"/>
        <g id="Group_30055" data-name="Group 30055" transform="translate(5.437 20.969)">
          <path id="Path_250" data-name="Path 250" d="M580.278,226.865l.183-.739c-.135-.034-1.311-.368-1.062-1.5a1,1,0,0,1,.435-.7,1.227,1.227,0,0,1,.883-.047l.247-.72a2.013,2.013,0,0,0-1.5.1,1.716,1.716,0,0,0-.81,1.2A2.027,2.027,0,0,0,580.278,226.865Z" transform="translate(-578.601 -223.054)" fill="#db614d"/>
        </g>
        <path id="Path_251" data-name="Path 251" d="M586.665,221.116c.082.747-.234,1.394-.707,1.447s-.923-.511-1.005-1.258.234-1.394.707-1.446S586.583,220.369,586.665,221.116Z" transform="translate(-573.072 -202.131)" fill="#233c5b"/>
        <path id="Path_252" data-name="Path 252" d="M587.1,220.859s-.691-1.629-1.3-1.563-1.417,1.376-1.417,1.376l-1.248-.61,1.139.229s.691-1.456,1.575-1.339S587.1,220.859,587.1,220.859Z" transform="translate(-573.098 -202.144)" fill="#233c5b"/>
        <path id="Path_253" data-name="Path 253" d="M579.746,221.262c.082.747-.235,1.394-.708,1.447s-.923-.511-1.005-1.258.234-1.394.708-1.447S579.663,220.515,579.746,221.262Z" transform="translate(-573.172 -202.129)" fill="#233c5b"/>
        <path id="Path_254" data-name="Path 254" d="M580.182,221.005s-.69-1.629-1.3-1.563-1.417,1.376-1.417,1.376l-1.247-.61,1.138.229s.691-1.456,1.575-1.34S580.182,221.005,580.182,221.005Z" transform="translate(-573.199 -202.142)" fill="#233c5b"/>
        <path id="Path_255" data-name="Path 255" d="M593.45,205.173s-3.307-4.995-12.424-1.612c-4.947,1.835-8.68,8.044-7.6,13.188l2.831,1.78c0-2.642,5.087-7.885,10.985-6.622,0,0,.841,8.852,7.938,11.768,0,0,2.55-6.833,8.124-3.35C603.308,220.324,605.954,205.295,593.45,205.173Z" transform="translate(-573.242 -202.386)" fill="#ce364c"/>
        <g id="Group_30056" data-name="Group 30056" transform="translate(6.932 26.857)">
          <path id="Path_256" data-name="Path 256" d="M580.292,229.622a.249.249,0,0,1-.112-.046.252.252,0,0,1-.059-.353c.617-.866,3.252.04,4.047.339a.253.253,0,0,1-.177.475c-1.46-.548-3.194-.886-3.458-.519A.254.254,0,0,1,580.292,229.622Z" transform="translate(-580.074 -228.858)" fill="#233c5b"/>
        </g>
      </g>
      <path id="Path_257" data-name="Path 257" d="M609.453,244.614c-.355.192-.72.4-1.106.587-.761.4-1.6.8-2.506,1.228-.457.214-.923.426-1.41.65l-1.491.67c-14.894,6.564-23.071,6.614-23.3,6.614a9.242,9.242,0,0,1-2.5-6.188v-.091c0-.133.01-.265.02-.4a4.987,4.987,0,0,1,.254-1.166,6.284,6.284,0,0,1,.73-1.452,7.626,7.626,0,0,1,1.086-1.309c2.912-.974,18.78-5.834,29.544.446C609.006,244.33,609.23,244.471,609.453,244.614Z" transform="translate(-510.814 -201.823)" fill="#ef6e4b"/>
      <path id="Path_258" data-name="Path 258" d="M609.453,244.569c-.355.192-.72.4-1.106.587-.771.406-1.6.813-2.506,1.228-.457.214-.923.426-1.41.65l-1.491.67c-14.894,6.564-23.071,6.614-23.3,6.614a9.242,9.242,0,0,1-2.5-6.188v-.091c0-.133.01-.265.02-.4a4.987,4.987,0,0,1,.254-1.166,6.283,6.283,0,0,1,.73-1.452,42.943,42.943,0,0,0,4.819,2.01l.568,2.191,3.044-1.969a79.689,79.689,0,0,0,22.2-3.094C609.006,244.285,609.23,244.426,609.453,244.569Z" transform="translate(-510.814 -201.777)" fill="#ff8b66"/>
      <path id="Path_259" data-name="Path 259" d="M602.443,241.051a53.226,53.226,0,0,0-16.468,21.5c-6.088,14.308,10.906,74.226,10.906,74.226s10.907-2.849,19.277-8.175l-12.428-42.1s13.443-27.9,13.7-32.466C617.425,254.03,615.108,244.051,602.443,241.051Z" transform="translate(-510.704 -201.823)" fill="#a8d8ef"/>
      <path id="Path_260" data-name="Path 260" d="M606.757,241.99s1.574,4.989.421,15.511c0,0-2.675-1.992-7.748-1.7a59.309,59.309,0,0,0-12.763,35.965s-5.368-20.715-1.5-31.236,17.291-22.3,17.291-22.3Z" transform="translate(-510.717 -201.864)" fill="#8bbddb"/>
      <path id="Path_261" data-name="Path 261" d="M581.67,242.73s-11.188,16.15-11.441,21.7,0,23.518,0,23.518l-18.769,38.6s-3.7-8.609,14.381-37.659c0,0-2.207-18.634-1.192-24.475S570.736,247.054,581.67,242.73Z" transform="translate(-511.192 -201.798)" fill="#a8d8ef"/>
      <path id="Path_262" data-name="Path 262" d="M569.973,287.992s-.177-23.085,3.527-32.446,13.069-15.66,13.069-15.66-12.081,3.615-17.229,15.049a7.484,7.484,0,0,1,2.536-.254S566.3,260.047,569.973,287.992Z" transform="translate(-510.936 -201.839)" fill="#8bbddb"/>
      <path id="Path_263" data-name="Path 263" d="M567.864,292.536l-6.737-.521s-7.124,1.405-7.826,1.3-8.83-4.941-12.342-5.079-1.806-.939-1.806-.939,19.466.2,22.276.2,8.385.741,8.385.741Z" transform="translate(-511.373 -201.149)" fill="#ff8b66"/>
      <path id="Path_264" data-name="Path 264" d="M615.375,248.885c-4.082-3.772-14.523,38.979-14.523,38.979h-35.3s-2.964,5.945-1,8.527c0,0,38.509,7.525,42.495,6.121S626.285,258.964,615.375,248.885Z" transform="translate(-511.007 -201.712)" fill="#8bbddb"/>
      <path id="Path_265" data-name="Path 265" d="M581.329,233.084c-.429-.343-3.747.1-5.033.229s-11.619,8.124-11.619,8.124c-.84,1.606,3.926,5.686,3.926,5.686l3.047-3.035a21.9,21.9,0,0,0,4.071-.85s.1.84.427.819a13.56,13.56,0,0,0,2.656-1.252c.5-.294.366-1.811.366-1.811.935-.758,1.651-.914.753-2.76,0,0,.9-1.045.863-1.363-.05-.429-2.686-1.591-2.686-1.591l2.356-.632s.2,1.642,1.061,1.45A6.632,6.632,0,0,0,581.329,233.084Z" transform="translate(-510.997 -201.94)" fill="#ef6e4b"/>
      <path id="Path_266" data-name="Path 266" d="M571.064,244.872s-1.467-4.016-4.987-5.231c0,0-21.536,25.676-21.7,30.239s5.6,7.03,9.035,5.432S571.064,244.872,571.064,244.872Z" transform="translate(-511.291 -201.843)" fill="#8bbddb"/>
      <g id="Group_30058" data-name="Group 30058" transform="translate(0 52.588)">
        <path id="Rectangle_2855" data-name="Rectangle 2855" d="M0,0H47.845a0,0,0,0,1,0,0V2.019a1.276,1.276,0,0,1-1.276,1.276H1.276A1.276,1.276,0,0,1,0,2.019V0A0,0,0,0,1,0,0Z" transform="translate(30.766 30.519)" fill="#a5a7aa"/>
        <path id="Rectangle_2856" data-name="Rectangle 2856" d="M0,0H47.845a0,0,0,0,1,0,0V2.019a1.276,1.276,0,0,1-1.276,1.276H1.276A1.276,1.276,0,0,1,0,2.019V0A0,0,0,0,1,0,0Z" transform="translate(11.868 30.519)" fill="#6d6e70"/>
        <path id="Path_267" data-name="Path 267" d="M569.149,286.385H524.156A2.215,2.215,0,0,1,522.2,285l-10.358-29.4a.972.972,0,0,1,.979-1.383h44.993a2.215,2.215,0,0,1,1.954,1.383L570.128,285A.971.971,0,0,1,569.149,286.385Z" transform="translate(-511.766 -254.219)" fill="#919396"/>
      </g>
    </g>
    <path id="Path_268" data-name="Path 268" d="M503.743,321.306v45.331h-114.5v-41.01a4.321,4.321,0,0,1,4.322-4.321Z" transform="translate(5.175 3.873)" fill="#252a40" opacity="0.2"/>
    <g id="Group_30070" data-name="Group 30070" transform="translate(409.015 335.208)">
      <rect id="Rectangle_2857" data-name="Rectangle 2857" width="140.811" height="96.309" rx="2.542" transform="translate(0 0)" fill="#f6cdc8"/>
      <g id="Group_30069" data-name="Group 30069" transform="translate(13.44 19.405)">
        <g id="Group_30067" data-name="Group 30067" transform="translate(0.286)">
          <g id="Group_30060" data-name="Group 30060" transform="translate(0 62.185)">
            <rect id="Rectangle_2858" data-name="Rectangle 2858" width="114.006" height="2.073" fill="#fff"/>
          </g>
          <g id="Group_30061" data-name="Group 30061" transform="translate(0 51.821)">
            <rect id="Rectangle_2859" data-name="Rectangle 2859" width="114.006" height="2.073" fill="#fff"/>
          </g>
          <g id="Group_30062" data-name="Group 30062" transform="translate(0 41.457)">
            <rect id="Rectangle_2860" data-name="Rectangle 2860" width="114.006" height="2.073" fill="#fff"/>
          </g>
          <g id="Group_30063" data-name="Group 30063" transform="translate(0 31.092)">
            <rect id="Rectangle_2861" data-name="Rectangle 2861" width="114.006" height="2.073" fill="#fff"/>
          </g>
          <g id="Group_30064" data-name="Group 30064" transform="translate(0 20.728)">
            <rect id="Rectangle_2862" data-name="Rectangle 2862" width="114.006" height="2.073" fill="#fff"/>
          </g>
          <g id="Group_30065" data-name="Group 30065" transform="translate(0 10.364)">
            <rect id="Rectangle_2863" data-name="Rectangle 2863" width="114.006" height="2.073" fill="#fff"/>
          </g>
          <g id="Group_30066" data-name="Group 30066">
            <rect id="Rectangle_2864" data-name="Rectangle 2864" width="114.006" height="2.073" fill="#fff"/>
          </g>
        </g>
        <g id="Group_30068" data-name="Group 30068" transform="translate(0 17.623)">
          <path id="Path_269" data-name="Path 269" d="M416.877,414.326V393.6l8.179-8.179a6.021,6.021,0,0,1,8.515,0h0a6.022,6.022,0,0,0,8.28.223h0a15.672,15.672,0,0,1,19.41-1.206l2.491,1.731a19.5,19.5,0,0,0,25.446-2.773l5.637-6.092a10.028,10.028,0,0,1,13.625-1.02h0a10.027,10.027,0,0,0,12.843-.264l9.579-8.33v46.638Z" transform="translate(-416.877 -367.688)" fill="#007cff"/>
          <path id="Path_270" data-name="Path 270" d="M416.877,414.326V393.6l8.179-8.179a6.021,6.021,0,0,1,8.515,0h0a6.022,6.022,0,0,0,8.28.223h0a15.672,15.672,0,0,1,19.41-1.206l2.491,1.731a19.5,19.5,0,0,0,25.446-2.773l5.637-6.092a10.028,10.028,0,0,1,13.625-1.02h0a10.027,10.027,0,0,0,12.843-.264l9.579-8.33v46.638Z" transform="translate(-416.877 -367.688)" fill="#ce364c"/>
          <path id="Path_271" data-name="Path 271" d="M416.877,414.239l20.737-19.63a6.416,6.416,0,0,1,9.319.412h0a6.417,6.417,0,0,0,9.243.486l9.747-9.134a12.142,12.142,0,0,1,15.668-.792h0a12.141,12.141,0,0,0,15.89-1.007l.49-.483a6.417,6.417,0,0,1,8.954-.056h0a7.623,7.623,0,0,0,10.055.451l13.9-10.782v40.535Z" transform="translate(-416.877 -367.6)" fill="#2369eb"/>
        </g>
      </g>
    </g>
    <path id="Path_272" data-name="Path 272" d="M502.383,83.926v88.937H487.154a4.555,4.555,0,0,1-4.555-4.555V83.926Z" transform="translate(6.535 0.416)" fill="#252a40" opacity="0.2"/>
    <g id="Group_30074" data-name="Group 30074" transform="translate(497.887 55.35)">
      <rect id="Rectangle_2865" data-name="Rectangle 2865" width="158.393" height="102.524" rx="2.542" fill="#deedff"/>
      <g id="Group_30073" data-name="Group 30073" transform="translate(12.936 15.125)">
        <g id="Group_30071" data-name="Group 30071" transform="translate(0)">
          <circle id="Ellipse_721" data-name="Ellipse 721" cx="32.366" cy="32.366" r="32.366" transform="translate(0 64.23) rotate(-82.861)" fill="#5a97ff"/>
          <path id="Path_273" data-name="Path 273" d="M540.059,106.341l-.3-32.365a32.366,32.366,0,1,0,31.026,22.18Z" transform="translate(-503.922 -70.204)" fill="#2369eb"/>
          <path id="Path_274" data-name="Path 274" d="M540.059,106.341l.919-32.352a32.365,32.365,0,1,0,30.129,41.5Z" transform="translate(-503.922 -70.204)" fill="#fff"/>
        </g>
        <g id="Group_30072" data-name="Group 30072" transform="translate(86.343 10.868)">
          <rect id="Rectangle_2866" data-name="Rectangle 2866" width="10.364" height="10.364" rx="1.348" fill="#686f9b"/>
          <rect id="Rectangle_2867" data-name="Rectangle 2867" width="10.364" height="10.364" rx="1.348" transform="translate(0 20.087)" fill="#a7b0d1"/>
          <rect id="Rectangle_2868" data-name="Rectangle 2868" width="10.364" height="10.364" rx="1.348" transform="translate(0 40.173)" fill="#fff"/>
          <rect id="Rectangle_2869" data-name="Rectangle 2869" width="20.871" height="1.876" transform="translate(16.919 4.244)" fill="#a7b0d1"/>
          <rect id="Rectangle_2870" data-name="Rectangle 2870" width="20.871" height="1.876" transform="translate(16.919 24.331)" fill="#a7b0d1"/>
          <rect id="Rectangle_2871" data-name="Rectangle 2871" width="20.871" height="1.876" transform="translate(16.919 44.417)" fill="#a7b0d1"/>
        </g>
      </g>
    </g>
    <g id="Group_30084" data-name="Group 30084" transform="translate(243.331 391.818)">
      <g id="Group_30075" data-name="Group 30075" transform="translate(2.643 66.181)">
        <rect id="Rectangle_2872" data-name="Rectangle 2872" width="46.102" height="8.172" fill="#a7b0d1"/>
        <rect id="Rectangle_2873" data-name="Rectangle 2873" width="7.04" height="8.172" fill="#686f9b"/>
        <rect id="Rectangle_2874" data-name="Rectangle 2874" width="3.524" height="8.172" transform="translate(8.483)" fill="#686f9b"/>
        <rect id="Rectangle_2875" data-name="Rectangle 2875" width="1.762" height="8.172" transform="translate(14.445)" fill="#686f9b"/>
        <rect id="Rectangle_2876" data-name="Rectangle 2876" width="0.877" height="8.172" transform="translate(20.408)" fill="#686f9b"/>
        <rect id="Rectangle_2877" data-name="Rectangle 2877" width="0.438" height="8.172" transform="translate(27.292)" fill="#686f9b"/>
        <path id="Path_275" data-name="Path 275" d="M242.93,458.961v1.333h46.1Z" transform="translate(-242.93 -452.121)" fill="#686f9b"/>
      </g>
      <g id="Group_30076" data-name="Group 30076" transform="translate(0 57.909)">
        <rect id="Rectangle_2878" data-name="Rectangle 2878" width="46.102" height="8.172" fill="#a7b0d1"/>
        <rect id="Rectangle_2879" data-name="Rectangle 2879" width="7.04" height="8.172" fill="#686f9b"/>
        <rect id="Rectangle_2880" data-name="Rectangle 2880" width="3.524" height="8.172" transform="translate(8.483)" fill="#686f9b"/>
        <rect id="Rectangle_2881" data-name="Rectangle 2881" width="1.762" height="8.172" transform="translate(14.445)" fill="#686f9b"/>
        <rect id="Rectangle_2882" data-name="Rectangle 2882" width="0.877" height="8.172" transform="translate(20.408)" fill="#686f9b"/>
        <rect id="Rectangle_2883" data-name="Rectangle 2883" width="0.438" height="8.172" transform="translate(27.292)" fill="#686f9b"/>
        <path id="Path_276" data-name="Path 276" d="M240.324,450.807v1.333h46.1Z" transform="translate(-240.324 -443.967)" fill="#686f9b"/>
      </g>
      <g id="Group_30077" data-name="Group 30077" transform="translate(8.149 49.636)">
        <rect id="Rectangle_2884" data-name="Rectangle 2884" width="46.102" height="8.172" fill="#a7b0d1"/>
        <rect id="Rectangle_2885" data-name="Rectangle 2885" width="7.04" height="8.172" fill="#686f9b"/>
        <rect id="Rectangle_2886" data-name="Rectangle 2886" width="3.525" height="8.172" transform="translate(8.483)" fill="#686f9b"/>
        <rect id="Rectangle_2887" data-name="Rectangle 2887" width="1.762" height="8.172" transform="translate(14.445)" fill="#686f9b"/>
        <rect id="Rectangle_2888" data-name="Rectangle 2888" width="0.876" height="8.172" transform="translate(20.408)" fill="#686f9b"/>
        <rect id="Rectangle_2889" data-name="Rectangle 2889" width="0.438" height="8.172" transform="translate(27.292)" fill="#686f9b"/>
        <path id="Path_277" data-name="Path 277" d="M248.356,442.653v1.333h46.1Z" transform="translate(-248.356 -435.813)" fill="#686f9b"/>
      </g>
      <g id="Group_30078" data-name="Group 30078" transform="translate(4.241 41.363)">
        <rect id="Rectangle_2890" data-name="Rectangle 2890" width="46.102" height="8.172" fill="#a7b0d1"/>
        <rect id="Rectangle_2891" data-name="Rectangle 2891" width="7.04" height="8.172" fill="#686f9b"/>
        <rect id="Rectangle_2892" data-name="Rectangle 2892" width="3.524" height="8.172" transform="translate(8.483)" fill="#686f9b"/>
        <rect id="Rectangle_2893" data-name="Rectangle 2893" width="1.762" height="8.172" transform="translate(14.445)" fill="#686f9b"/>
        <rect id="Rectangle_2894" data-name="Rectangle 2894" width="0.876" height="8.172" transform="translate(20.408)" fill="#686f9b"/>
        <rect id="Rectangle_2895" data-name="Rectangle 2895" width="0.438" height="8.172" transform="translate(27.292)" fill="#686f9b"/>
        <path id="Path_278" data-name="Path 278" d="M244.5,434.5v1.333h46.1Z" transform="translate(-244.505 -427.659)" fill="#686f9b"/>
      </g>
      <g id="Group_30079" data-name="Group 30079" transform="translate(4.241 24.818)">
        <rect id="Rectangle_2896" data-name="Rectangle 2896" width="46.102" height="8.172" fill="#a7b0d1"/>
        <rect id="Rectangle_2897" data-name="Rectangle 2897" width="7.04" height="8.172" fill="#686f9b"/>
        <rect id="Rectangle_2898" data-name="Rectangle 2898" width="3.524" height="8.172" transform="translate(8.483)" fill="#686f9b"/>
        <rect id="Rectangle_2899" data-name="Rectangle 2899" width="1.762" height="8.172" transform="translate(14.445)" fill="#686f9b"/>
        <rect id="Rectangle_2900" data-name="Rectangle 2900" width="0.876" height="8.172" transform="translate(20.408)" fill="#686f9b"/>
        <rect id="Rectangle_2901" data-name="Rectangle 2901" width="0.438" height="8.172" transform="translate(27.292)" fill="#686f9b"/>
        <path id="Path_279" data-name="Path 279" d="M244.5,418.191v1.333h46.1Z" transform="translate(-244.505 -411.352)" fill="#686f9b"/>
      </g>
      <g id="Group_30080" data-name="Group 30080" transform="translate(0 16.545)">
        <rect id="Rectangle_2902" data-name="Rectangle 2902" width="46.102" height="8.172" fill="#a7b0d1"/>
        <rect id="Rectangle_2903" data-name="Rectangle 2903" width="7.04" height="8.172" fill="#686f9b"/>
        <rect id="Rectangle_2904" data-name="Rectangle 2904" width="3.524" height="8.172" transform="translate(8.483)" fill="#686f9b"/>
        <rect id="Rectangle_2905" data-name="Rectangle 2905" width="1.762" height="8.172" transform="translate(14.445)" fill="#686f9b"/>
        <rect id="Rectangle_2906" data-name="Rectangle 2906" width="0.877" height="8.172" transform="translate(20.408)" fill="#686f9b"/>
        <rect id="Rectangle_2907" data-name="Rectangle 2907" width="0.438" height="8.172" transform="translate(27.292)" fill="#686f9b"/>
        <path id="Path_280" data-name="Path 280" d="M240.324,410.037v1.333h46.1Z" transform="translate(-240.324 -403.198)" fill="#686f9b"/>
      </g>
      <g id="Group_30081" data-name="Group 30081" transform="translate(4.241 8.273)">
        <rect id="Rectangle_2908" data-name="Rectangle 2908" width="46.102" height="8.172" fill="#a7b0d1"/>
        <rect id="Rectangle_2909" data-name="Rectangle 2909" width="7.04" height="8.172" fill="#686f9b"/>
        <rect id="Rectangle_2910" data-name="Rectangle 2910" width="3.524" height="8.172" transform="translate(8.483)" fill="#686f9b"/>
        <rect id="Rectangle_2911" data-name="Rectangle 2911" width="1.762" height="8.172" transform="translate(14.445)" fill="#686f9b"/>
        <rect id="Rectangle_2912" data-name="Rectangle 2912" width="0.876" height="8.172" transform="translate(20.408)" fill="#686f9b"/>
        <rect id="Rectangle_2913" data-name="Rectangle 2913" width="0.438" height="8.172" transform="translate(27.292)" fill="#686f9b"/>
        <path id="Path_281" data-name="Path 281" d="M244.5,401.883v1.333h46.1Z" transform="translate(-244.505 -395.044)" fill="#686f9b"/>
      </g>
      <g id="Group_30082" data-name="Group 30082" transform="translate(0.877)">
        <rect id="Rectangle_2914" data-name="Rectangle 2914" width="46.102" height="8.172" fill="#a7b0d1"/>
        <rect id="Rectangle_2915" data-name="Rectangle 2915" width="7.04" height="8.172" fill="#686f9b"/>
        <rect id="Rectangle_2916" data-name="Rectangle 2916" width="3.524" height="8.172" transform="translate(8.483)" fill="#686f9b"/>
        <rect id="Rectangle_2917" data-name="Rectangle 2917" width="1.762" height="8.172" transform="translate(14.445)" fill="#686f9b"/>
        <rect id="Rectangle_2918" data-name="Rectangle 2918" width="0.876" height="8.172" transform="translate(20.408)" fill="#686f9b"/>
        <rect id="Rectangle_2919" data-name="Rectangle 2919" width="0.438" height="8.172" transform="translate(27.292)" fill="#686f9b"/>
        <path id="Path_282" data-name="Path 282" d="M241.188,393.729v1.333h46.1Z" transform="translate(-241.188 -386.89)" fill="#686f9b"/>
      </g>
      <g id="Group_30083" data-name="Group 30083" transform="translate(2.643 33.091)">
        <rect id="Rectangle_2920" data-name="Rectangle 2920" width="46.102" height="8.172" fill="#a7b0d1"/>
        <rect id="Rectangle_2921" data-name="Rectangle 2921" width="7.04" height="8.172" fill="#686f9b"/>
        <rect id="Rectangle_2922" data-name="Rectangle 2922" width="3.524" height="8.172" transform="translate(8.483)" fill="#686f9b"/>
        <rect id="Rectangle_2923" data-name="Rectangle 2923" width="1.762" height="8.172" transform="translate(14.445)" fill="#686f9b"/>
        <rect id="Rectangle_2924" data-name="Rectangle 2924" width="0.877" height="8.172" transform="translate(20.408)" fill="#686f9b"/>
        <rect id="Rectangle_2925" data-name="Rectangle 2925" width="0.438" height="8.172" transform="translate(27.292)" fill="#686f9b"/>
        <path id="Path_283" data-name="Path 283" d="M242.93,426.345v1.333h46.1Z" transform="translate(-242.93 -419.506)" fill="#686f9b"/>
      </g>
    </g>
    <g id="Group_30091" data-name="Group 30091" transform="translate(281.595 416.636)">
      <g id="Group_30085" data-name="Group 30085" transform="translate(5.707 41.363)">
        <rect id="Rectangle_2926" data-name="Rectangle 2926" width="46.102" height="8.172" fill="#a7b0d1"/>
        <rect id="Rectangle_2927" data-name="Rectangle 2927" width="7.04" height="8.172" fill="#686f9b"/>
        <rect id="Rectangle_2928" data-name="Rectangle 2928" width="3.525" height="8.172" transform="translate(8.483)" fill="#686f9b"/>
        <rect id="Rectangle_2929" data-name="Rectangle 2929" width="1.762" height="8.172" transform="translate(14.445)" fill="#686f9b"/>
        <rect id="Rectangle_2930" data-name="Rectangle 2930" width="0.876" height="8.172" transform="translate(20.408)" fill="#686f9b"/>
        <rect id="Rectangle_2931" data-name="Rectangle 2931" width="0.438" height="8.172" transform="translate(27.292)" fill="#686f9b"/>
        <path id="Path_284" data-name="Path 284" d="M283.664,458.961v1.333h46.1Z" transform="translate(-283.664 -452.121)" fill="#686f9b"/>
      </g>
      <g id="Group_30086" data-name="Group 30086" transform="translate(3.063 33.091)">
        <rect id="Rectangle_2932" data-name="Rectangle 2932" width="46.102" height="8.172" fill="#a7b0d1"/>
        <rect id="Rectangle_2933" data-name="Rectangle 2933" width="7.04" height="8.172" fill="#686f9b"/>
        <rect id="Rectangle_2934" data-name="Rectangle 2934" width="3.524" height="8.172" transform="translate(8.483)" fill="#686f9b"/>
        <rect id="Rectangle_2935" data-name="Rectangle 2935" width="1.762" height="8.172" transform="translate(14.445)" fill="#686f9b"/>
        <rect id="Rectangle_2936" data-name="Rectangle 2936" width="0.876" height="8.172" transform="translate(20.408)" fill="#686f9b"/>
        <rect id="Rectangle_2937" data-name="Rectangle 2937" width="0.438" height="8.172" transform="translate(27.292)" fill="#686f9b"/>
        <path id="Path_285" data-name="Path 285" d="M281.059,450.807v1.333h46.1Z" transform="translate(-281.059 -443.967)" fill="#686f9b"/>
      </g>
      <g id="Group_30087" data-name="Group 30087" transform="translate(3.907 24.818)">
        <rect id="Rectangle_2938" data-name="Rectangle 2938" width="46.102" height="8.172" fill="#a7b0d1"/>
        <rect id="Rectangle_2939" data-name="Rectangle 2939" width="7.04" height="8.172" fill="#686f9b"/>
        <rect id="Rectangle_2940" data-name="Rectangle 2940" width="3.524" height="8.172" transform="translate(8.483)" fill="#686f9b"/>
        <rect id="Rectangle_2941" data-name="Rectangle 2941" width="1.762" height="8.172" transform="translate(14.445)" fill="#686f9b"/>
        <rect id="Rectangle_2942" data-name="Rectangle 2942" width="0.876" height="8.172" transform="translate(20.408)" fill="#686f9b"/>
        <rect id="Rectangle_2943" data-name="Rectangle 2943" width="0.438" height="8.172" transform="translate(27.292)" fill="#686f9b"/>
        <path id="Path_286" data-name="Path 286" d="M281.891,442.653v1.333h46.1Z" transform="translate(-281.891 -435.813)" fill="#686f9b"/>
      </g>
      <g id="Group_30088" data-name="Group 30088" transform="translate(0 16.545)">
        <rect id="Rectangle_2944" data-name="Rectangle 2944" width="46.102" height="8.172" fill="#a7b0d1"/>
        <rect id="Rectangle_2945" data-name="Rectangle 2945" width="7.04" height="8.172" fill="#686f9b"/>
        <rect id="Rectangle_2946" data-name="Rectangle 2946" width="3.524" height="8.172" transform="translate(8.483)" fill="#686f9b"/>
        <rect id="Rectangle_2947" data-name="Rectangle 2947" width="1.762" height="8.172" transform="translate(14.445)" fill="#686f9b"/>
        <rect id="Rectangle_2948" data-name="Rectangle 2948" width="0.876" height="8.172" transform="translate(20.408)" fill="#686f9b"/>
        <rect id="Rectangle_2949" data-name="Rectangle 2949" width="0.438" height="8.172" transform="translate(27.292)" fill="#686f9b"/>
        <path id="Path_287" data-name="Path 287" d="M278.039,434.5v1.333h46.1Z" transform="translate(-278.039 -427.659)" fill="#686f9b"/>
      </g>
      <g id="Group_30089" data-name="Group 30089" transform="translate(7.305)">
        <rect id="Rectangle_2950" data-name="Rectangle 2950" width="46.102" height="8.172" fill="#a7b0d1"/>
        <rect id="Rectangle_2951" data-name="Rectangle 2951" width="7.04" height="8.172" fill="#686f9b"/>
        <rect id="Rectangle_2952" data-name="Rectangle 2952" width="3.524" height="8.172" transform="translate(8.483)" fill="#686f9b"/>
        <rect id="Rectangle_2953" data-name="Rectangle 2953" width="1.762" height="8.172" transform="translate(14.445)" fill="#686f9b"/>
        <rect id="Rectangle_2954" data-name="Rectangle 2954" width="0.877" height="8.172" transform="translate(20.408)" fill="#686f9b"/>
        <rect id="Rectangle_2955" data-name="Rectangle 2955" width="0.438" height="8.172" transform="translate(27.292)" fill="#686f9b"/>
        <path id="Path_288" data-name="Path 288" d="M285.239,418.191v1.333h46.1Z" transform="translate(-285.239 -411.352)" fill="#686f9b"/>
      </g>
      <g id="Group_30090" data-name="Group 30090" transform="translate(5.707 8.273)">
        <rect id="Rectangle_2956" data-name="Rectangle 2956" width="46.102" height="8.172" fill="#a7b0d1"/>
        <rect id="Rectangle_2957" data-name="Rectangle 2957" width="7.04" height="8.172" fill="#686f9b"/>
        <rect id="Rectangle_2958" data-name="Rectangle 2958" width="3.525" height="8.172" transform="translate(8.483)" fill="#686f9b"/>
        <rect id="Rectangle_2959" data-name="Rectangle 2959" width="1.762" height="8.172" transform="translate(14.445)" fill="#686f9b"/>
        <rect id="Rectangle_2960" data-name="Rectangle 2960" width="0.876" height="8.172" transform="translate(20.408)" fill="#686f9b"/>
        <rect id="Rectangle_2961" data-name="Rectangle 2961" width="0.438" height="8.172" transform="translate(27.292)" fill="#686f9b"/>
        <path id="Path_289" data-name="Path 289" d="M283.664,426.345v1.333h46.1Z" transform="translate(-283.664 -419.506)" fill="#686f9b"/>
      </g>
    </g>
    <g id="Group_30092" data-name="Group 30092" transform="translate(500.306 170.044)">
      <ellipse id="Ellipse_722" data-name="Ellipse 722" cx="33.88" cy="29.791" rx="33.88" ry="29.791" fill="#5a97ff"/>
      <text id="BUY_" data-name="BUY?" transform="translate(13.181 33.635)" fill="#fff" font-size="17" font-family="SourceSansPro-Regular, Source Sans Pro"><tspan x="0" y="0">BUY?</tspan></text>
      <path id="Path_290" data-name="Path 290" d="M535.026,216.855s7.652,12.119,18.773,13.443c0,0-5.783-1.88-10.362-18.028Z" transform="translate(-493.008 -167.759)" fill="#5a97ff"/>
    </g>
    <g id="Group_30093" data-name="Group 30093" transform="translate(618.364 144.973)">
      <ellipse id="Ellipse_723" data-name="Ellipse 723" cx="33.88" cy="29.791" rx="33.88" ry="29.791" fill="#5a97ff"/>
      <text id="SELL_" data-name="SELL?" transform="translate(31.952 33.635)" fill="#fff" font-size="17" font-family="SourceSansPro-Regular, Source Sans Pro"><tspan x="-20.621" y="0">SELL?</tspan></text>
      <path id="Path_291" data-name="Path 291" d="M635.614,192.144s-7.651,12.119-18.772,13.443c0,0,5.783-1.88,10.362-18.028Z" transform="translate(-609.874 -143.047)" fill="#5a97ff"/>
    </g>
  </g>
</svg>
