<svg xmlns="http://www.w3.org/2000/svg" xmlns:xlink="http://www.w3.org/1999/xlink" width="58" height="75" viewBox="0 0 58 75">
  <defs>
    <clipPath id="clip-path">
      <path id="Rectangle_3531" data-name="Rectangle 3531" d="M5,0H53a5,5,0,0,1,5,5V75a0,0,0,0,1,0,0H0a0,0,0,0,1,0,0V5A5,5,0,0,1,5,0Z" transform="translate(1721 6555)" fill="#c1d8ff"/>
    </clipPath>
  </defs>
  <g id="icon-scroll-up" transform="translate(-1721 -6555)">
    <path id="Rectangle_3515" data-name="Rectangle 3515" d="M5,0H53a5,5,0,0,1,5,5V75a0,0,0,0,1,0,0H0a0,0,0,0,1,0,0V5A5,5,0,0,1,5,0Z" transform="translate(1721 6555)" fill="#c1d8ff"/>
    <g id="Mask_Group_3" data-name="Mask Group 3" clip-path="url(#clip-path)">
      <g id="long-arrow-pointing-up" transform="translate(1736 6585.5)">
        <path id="Path_982" data-name="Path 982" d="M165.331,14.672,152.111.372A1.22,1.22,0,0,0,151.217,0a1.176,1.176,0,0,0-.857.372l-13.034,14.3a1.2,1.2,0,0,0-.187,1.3,1.08,1.08,0,0,0,1.08.707h8.342V63.158a1.146,1.146,0,0,0,1.192,1.19h7.15a1.146,1.146,0,0,0,1.192-1.19V16.683h8.342a1.122,1.122,0,0,0,1.079-.707A1.2,1.2,0,0,0,165.331,14.672Z" transform="translate(-137.027)" fill="#2b76ff"/>
      </g>
    </g>
  </g>
</svg>
