<svg xmlns="http://www.w3.org/2000/svg" xmlns:xlink="http://www.w3.org/1999/xlink" width="282.4" height="295.896" viewBox="0 0 282.4 295.896">
  <defs>
    <clipPath id="clip-path">
      <rect id="Rectangle_3514" data-name="Rectangle 3514" width="197" height="243" transform="translate(235 4501)" fill="#2da6d1"/>
    </clipPath>
  </defs>
  <g id="img-subscribe-1" transform="translate(-279 -5635)">
    <g id="Mask_Group_1" data-name="Mask Group 1" transform="translate(44 1134)" opacity="0.31" clip-path="url(#clip-path)">
      <path id="Path_673" data-name="Path 673" d="M3,9.882l301.617-8.3C329.388.9,348.92,21.066,348.238,46.629s-21.32,46.84-46.1,47.522L.526,102.456Z" transform="translate(89.428 4663.737) rotate(-30)" fill="#5a97ff"/>
      <path id="Path_674" data-name="Path 674" d="M2.558,10.094l308.3-8.488c21.086-.581,37.709,16.586,37.128,38.342s-18.145,39.864-39.23,40.444L.456,88.88Z" transform="translate(1770.439 4502.104) rotate(150)" fill="#5a97ff"/>
    </g>
    <g id="Polygon_1" data-name="Polygon 1" transform="translate(473 5819) rotate(90)" fill="none">
      <path d="M13.642,7.747a5,5,0,0,1,8.716,0l9.451,16.8A5,5,0,0,1,27.451,32H8.549a5,5,0,0,1-4.358-7.451Z" stroke="none"/>
      <path d="M 18 8.198640823364258 C 17.6483097076416 8.198640823364258 16.77442932128906 8.297981262207031 16.25684928894043 9.218120574951172 L 6.806089401245117 26.01947021484375 C 6.298440933227539 26.92195129394531 6.648679733276367 27.71194076538086 6.822820663452148 28.00969123840332 C 6.996959686279297 28.30745124816895 7.513790130615234 29.00000190734863 8.549240112304688 29.00000190734863 L 27.45075988769531 29.00000190734863 C 28.48620986938477 29.00000190734863 29.00302886962891 28.30745124816895 29.17717933654785 28.00969123840332 C 29.35132026672363 27.7119312286377 29.7015495300293 26.92195129394531 29.19391059875488 26.01947021484375 L 19.74315071105957 9.218120574951172 C 19.22557067871094 8.297981262207031 18.3516902923584 8.198640823364258 18 8.198640823364258 M 18 5.198646545410156 C 19.70105934143066 5.198646545410156 21.40211868286133 6.048212051391602 22.35787963867188 7.747341156005859 L 31.80863952636719 24.54869079589844 C 33.6834602355957 27.88171005249023 31.2748908996582 32 27.45075988769531 32 L 8.549240112304688 32 C 4.725099563598633 32 2.316539764404297 27.88171005249023 4.191360473632813 24.54869079589844 L 13.64212036132813 7.747341156005859 C 14.59787940979004 6.048212051391602 16.29894065856934 5.198646545410156 18 5.198646545410156 Z" stroke="none" fill="#2b76ff"/>
    </g>
    <ellipse id="Ellipse_759" data-name="Ellipse 759" cx="18" cy="18" rx="18" ry="18" transform="translate(530.542 5881.497) rotate(31)" fill="#7eaafe"/>
  </g>
</svg>
