<svg xmlns="http://www.w3.org/2000/svg" width="154" height="189.917" viewBox="0 0 154 189.917">
  <g id="img-subb-2" transform="translate(-95.382 -141.96)">
    <path id="Intersection_1" data-name="Intersection 1" d="M101.482,311.87c-10.375-19.131-4.218-43.6,13.752-54.641l134.148-82.454v92.376L152.8,326.512a35.672,35.672,0,0,1-18.751,5.366C121.068,331.878,108.44,324.7,101.482,311.87Z" fill="#c1d8ff"/>
    <g id="Path_675" data-name="Path 675">
      <path id="Path_37363" data-name="Path 37363" d="M97.932,214.728a5,5,0,0,1,0-8.716l16.8-9.451a5,5,0,0,1,7.453,4.358v18.9a5,5,0,0,1-7.451,4.358Z" fill="none"/>
      <path id="Path_37364" data-name="Path 37364" d="M98.385,210.37a1.961,1.961,0,0,0,1.019,1.743l16.8,9.451a2,2,0,0,0,2.98-1.743v-18.9a2,2,0,0,0-2.98-1.743l-16.8,9.451a1.962,1.962,0,0,0-1.02,1.741m-3,0a4.951,4.951,0,0,1,2.549-4.358l16.8-9.451a5,5,0,0,1,7.451,4.358v18.9a5,5,0,0,1-7.451,4.358l-16.8-9.451A4.951,4.951,0,0,1,95.385,210.37Z" fill="#2b76ff"/>
    </g>
    <circle id="Ellipse_2176" data-name="Ellipse 2176" cx="12.331" cy="12.331" r="12.331" transform="translate(186.654 141.961)" fill="#fa5b41" opacity="0.76" style="isolation: isolate"/>
  </g>
</svg>
