<svg xmlns="http://www.w3.org/2000/svg" width="142.256" height="141" viewBox="0 0 142.256 141">
  <g id="img-sub-3" transform="translate(-549.977 -4263.288)" opacity="0.87">
    <g id="Group_479" data-name="Group 479" transform="translate(549.977 4263.288)">
      <circle id="Ellipse_672" data-name="Ellipse 672" cx="4.252" cy="4.252" r="4.252" fill="#f0efff"/>
      <circle id="Ellipse_687" data-name="Ellipse 687" cx="4.252" cy="4.252" r="4.252" transform="translate(0 29.882)" fill="#f0efff"/>
      <circle id="Ellipse_673" data-name="Ellipse 673" cx="4.252" cy="4.252" r="4.252" transform="translate(14.881)" fill="#f0efff"/>
      <circle id="Ellipse_688" data-name="Ellipse 688" cx="4.252" cy="4.252" r="4.252" transform="translate(14.881 29.882)" fill="#f0efff"/>
      <circle id="Ellipse_674" data-name="Ellipse 674" cx="4.252" cy="4.252" r="4.252" transform="translate(29.762)" fill="#f0efff"/>
      <circle id="Ellipse_689" data-name="Ellipse 689" cx="4.252" cy="4.252" r="4.252" transform="translate(29.762 29.882)" fill="#f0efff"/>
      <circle id="Ellipse_675" data-name="Ellipse 675" cx="4.252" cy="4.252" r="4.252" transform="translate(44.642)" fill="#f0efff"/>
      <circle id="Ellipse_690" data-name="Ellipse 690" cx="4.252" cy="4.252" r="4.252" transform="translate(44.642 29.882)" fill="#f0efff"/>
      <circle id="Ellipse_676" data-name="Ellipse 676" cx="4.252" cy="4.252" r="4.252" transform="translate(59.523)" fill="#f0efff"/>
      <circle id="Ellipse_691" data-name="Ellipse 691" cx="4.252" cy="4.252" r="4.252" transform="translate(59.523 29.882)" fill="#f0efff"/>
      <circle id="Ellipse_677" data-name="Ellipse 677" cx="4.252" cy="4.252" r="4.252" transform="translate(59.523 14.881)" fill="#f0efff"/>
      <circle id="Ellipse_682" data-name="Ellipse 682" cx="4.252" cy="4.252" r="4.252" transform="translate(59.523 44.763)" fill="#f0efff"/>
      <circle id="Ellipse_692" data-name="Ellipse 692" cx="4.252" cy="4.252" r="4.252" transform="translate(59.523 59.704)" fill="#f0efff"/>
      <circle id="Ellipse_678" data-name="Ellipse 678" cx="4.252" cy="4.252" r="4.252" transform="translate(44.642 14.881)" fill="#f0efff"/>
      <circle id="Ellipse_683" data-name="Ellipse 683" cx="4.252" cy="4.252" r="4.252" transform="translate(44.642 44.763)" fill="#f0efff"/>
      <circle id="Ellipse_693" data-name="Ellipse 693" cx="4.252" cy="4.252" r="4.252" transform="translate(44.642 59.704)" fill="#f0efff"/>
      <circle id="Ellipse_679" data-name="Ellipse 679" cx="4.252" cy="4.252" r="4.252" transform="translate(29.762 14.881)" fill="#f0efff"/>
      <circle id="Ellipse_684" data-name="Ellipse 684" cx="4.252" cy="4.252" r="4.252" transform="translate(29.762 44.763)" fill="#f0efff"/>
      <circle id="Ellipse_694" data-name="Ellipse 694" cx="4.252" cy="4.252" r="4.252" transform="translate(29.762 59.704)" fill="#f0efff"/>
      <circle id="Ellipse_680" data-name="Ellipse 680" cx="4.252" cy="4.252" r="4.252" transform="translate(14.881 14.881)" fill="#f0efff"/>
      <circle id="Ellipse_685" data-name="Ellipse 685" cx="4.252" cy="4.252" r="4.252" transform="translate(14.881 44.763)" fill="#f0efff"/>
      <circle id="Ellipse_695" data-name="Ellipse 695" cx="4.252" cy="4.252" r="4.252" transform="translate(14.881 59.704)" fill="#f0efff"/>
      <circle id="Ellipse_681" data-name="Ellipse 681" cx="4.252" cy="4.252" r="4.252" transform="translate(0 14.881)" fill="#f0efff"/>
      <circle id="Ellipse_686" data-name="Ellipse 686" cx="4.252" cy="4.252" r="4.252" transform="translate(0 44.763)" fill="#f0efff"/>
      <circle id="Ellipse_696" data-name="Ellipse 696" cx="4.252" cy="4.252" r="4.252" transform="translate(0 59.704)" fill="#f0efff"/>
    </g>
    <g id="Group_480" data-name="Group 480" transform="translate(549.977 4336.081)">
      <circle id="Ellipse_672-2" data-name="Ellipse 672" cx="4.252" cy="4.252" r="4.252" fill="#f0efff"/>
      <circle id="Ellipse_687-2" data-name="Ellipse 687" cx="4.252" cy="4.252" r="4.252" transform="translate(0 29.882)" fill="#f0efff"/>
      <circle id="Ellipse_673-2" data-name="Ellipse 673" cx="4.252" cy="4.252" r="4.252" transform="translate(14.881)" fill="#f0efff"/>
      <circle id="Ellipse_688-2" data-name="Ellipse 688" cx="4.252" cy="4.252" r="4.252" transform="translate(14.881 29.882)" fill="#f0efff"/>
      <circle id="Ellipse_674-2" data-name="Ellipse 674" cx="4.252" cy="4.252" r="4.252" transform="translate(29.762)" fill="#f0efff"/>
      <circle id="Ellipse_689-2" data-name="Ellipse 689" cx="4.252" cy="4.252" r="4.252" transform="translate(29.762 29.882)" fill="#f0efff"/>
      <circle id="Ellipse_675-2" data-name="Ellipse 675" cx="4.252" cy="4.252" r="4.252" transform="translate(44.642)" fill="#f0efff"/>
      <circle id="Ellipse_690-2" data-name="Ellipse 690" cx="4.252" cy="4.252" r="4.252" transform="translate(44.642 29.882)" fill="#f0efff"/>
      <circle id="Ellipse_676-2" data-name="Ellipse 676" cx="4.252" cy="4.252" r="4.252" transform="translate(59.523)" fill="#f0efff"/>
      <circle id="Ellipse_691-2" data-name="Ellipse 691" cx="4.252" cy="4.252" r="4.252" transform="translate(59.523 29.882)" fill="#f0efff"/>
      <circle id="Ellipse_677-2" data-name="Ellipse 677" cx="4.252" cy="4.252" r="4.252" transform="translate(59.523 14.881)" fill="#f0efff"/>
      <circle id="Ellipse_682-2" data-name="Ellipse 682" cx="4.252" cy="4.252" r="4.252" transform="translate(59.523 44.763)" fill="#f0efff"/>
      <circle id="Ellipse_692-2" data-name="Ellipse 692" cx="4.252" cy="4.252" r="4.252" transform="translate(59.523 59.704)" fill="#f0efff"/>
      <circle id="Ellipse_678-2" data-name="Ellipse 678" cx="4.252" cy="4.252" r="4.252" transform="translate(44.642 14.881)" fill="#f0efff"/>
      <circle id="Ellipse_683-2" data-name="Ellipse 683" cx="4.252" cy="4.252" r="4.252" transform="translate(44.642 44.763)" fill="#f0efff"/>
      <circle id="Ellipse_693-2" data-name="Ellipse 693" cx="4.252" cy="4.252" r="4.252" transform="translate(44.642 59.704)" fill="#f0efff"/>
      <circle id="Ellipse_679-2" data-name="Ellipse 679" cx="4.252" cy="4.252" r="4.252" transform="translate(29.762 14.881)" fill="#f0efff"/>
      <circle id="Ellipse_684-2" data-name="Ellipse 684" cx="4.252" cy="4.252" r="4.252" transform="translate(29.762 44.763)" fill="#f0efff"/>
      <circle id="Ellipse_694-2" data-name="Ellipse 694" cx="4.252" cy="4.252" r="4.252" transform="translate(29.762 59.704)" fill="#f0efff"/>
      <circle id="Ellipse_680-2" data-name="Ellipse 680" cx="4.252" cy="4.252" r="4.252" transform="translate(14.881 14.881)" fill="#f0efff"/>
      <circle id="Ellipse_685-2" data-name="Ellipse 685" cx="4.252" cy="4.252" r="4.252" transform="translate(14.881 44.763)" fill="#f0efff"/>
      <circle id="Ellipse_695-2" data-name="Ellipse 695" cx="4.252" cy="4.252" r="4.252" transform="translate(14.881 59.704)" fill="#f0efff"/>
      <circle id="Ellipse_681-2" data-name="Ellipse 681" cx="4.252" cy="4.252" r="4.252" transform="translate(0 14.881)" fill="#f0efff"/>
      <circle id="Ellipse_686-2" data-name="Ellipse 686" cx="4.252" cy="4.252" r="4.252" transform="translate(0 44.763)" fill="#f0efff"/>
      <circle id="Ellipse_696-2" data-name="Ellipse 696" cx="4.252" cy="4.252" r="4.252" transform="translate(0 59.704)" fill="#f0efff"/>
    </g>
    <g id="Group_481" data-name="Group 481" transform="translate(624.207 4336.081)">
      <circle id="Ellipse_672-3" data-name="Ellipse 672" cx="4.252" cy="4.252" r="4.252" fill="#f0efff"/>
      <circle id="Ellipse_687-3" data-name="Ellipse 687" cx="4.252" cy="4.252" r="4.252" transform="translate(0 29.882)" fill="#f0efff"/>
      <circle id="Ellipse_673-3" data-name="Ellipse 673" cx="4.252" cy="4.252" r="4.252" transform="translate(14.881)" fill="#f0efff"/>
      <circle id="Ellipse_688-3" data-name="Ellipse 688" cx="4.252" cy="4.252" r="4.252" transform="translate(14.881 29.882)" fill="#f0efff"/>
      <circle id="Ellipse_674-3" data-name="Ellipse 674" cx="4.252" cy="4.252" r="4.252" transform="translate(29.762)" fill="#f0efff"/>
      <circle id="Ellipse_689-3" data-name="Ellipse 689" cx="4.252" cy="4.252" r="4.252" transform="translate(29.762 29.882)" fill="#f0efff"/>
      <circle id="Ellipse_675-3" data-name="Ellipse 675" cx="4.252" cy="4.252" r="4.252" transform="translate(44.642)" fill="#f0efff"/>
      <circle id="Ellipse_690-3" data-name="Ellipse 690" cx="4.252" cy="4.252" r="4.252" transform="translate(44.642 29.882)" fill="#f0efff"/>
      <circle id="Ellipse_676-3" data-name="Ellipse 676" cx="4.252" cy="4.252" r="4.252" transform="translate(59.523)" fill="#f0efff"/>
      <circle id="Ellipse_691-3" data-name="Ellipse 691" cx="4.252" cy="4.252" r="4.252" transform="translate(59.523 29.882)" fill="#f0efff"/>
      <circle id="Ellipse_677-3" data-name="Ellipse 677" cx="4.252" cy="4.252" r="4.252" transform="translate(59.523 14.881)" fill="#f0efff"/>
      <circle id="Ellipse_682-3" data-name="Ellipse 682" cx="4.252" cy="4.252" r="4.252" transform="translate(59.523 44.763)" fill="#f0efff"/>
      <circle id="Ellipse_692-3" data-name="Ellipse 692" cx="4.252" cy="4.252" r="4.252" transform="translate(59.523 59.704)" fill="#f0efff"/>
      <circle id="Ellipse_678-3" data-name="Ellipse 678" cx="4.252" cy="4.252" r="4.252" transform="translate(44.642 14.881)" fill="#f0efff"/>
      <circle id="Ellipse_683-3" data-name="Ellipse 683" cx="4.252" cy="4.252" r="4.252" transform="translate(44.642 44.763)" fill="#f0efff"/>
      <circle id="Ellipse_693-3" data-name="Ellipse 693" cx="4.252" cy="4.252" r="4.252" transform="translate(44.642 59.704)" fill="#f0efff"/>
      <circle id="Ellipse_679-3" data-name="Ellipse 679" cx="4.252" cy="4.252" r="4.252" transform="translate(29.762 14.881)" fill="#f0efff"/>
      <circle id="Ellipse_684-3" data-name="Ellipse 684" cx="4.252" cy="4.252" r="4.252" transform="translate(29.762 44.763)" fill="#f0efff"/>
      <circle id="Ellipse_694-3" data-name="Ellipse 694" cx="4.252" cy="4.252" r="4.252" transform="translate(29.762 59.704)" fill="#f0efff"/>
      <circle id="Ellipse_680-3" data-name="Ellipse 680" cx="4.252" cy="4.252" r="4.252" transform="translate(14.881 14.881)" fill="#f0efff"/>
      <circle id="Ellipse_685-3" data-name="Ellipse 685" cx="4.252" cy="4.252" r="4.252" transform="translate(14.881 44.763)" fill="#f0efff"/>
      <circle id="Ellipse_695-3" data-name="Ellipse 695" cx="4.252" cy="4.252" r="4.252" transform="translate(14.881 59.704)" fill="#f0efff"/>
      <circle id="Ellipse_681-3" data-name="Ellipse 681" cx="4.252" cy="4.252" r="4.252" transform="translate(0 14.881)" fill="#f0efff"/>
      <circle id="Ellipse_686-3" data-name="Ellipse 686" cx="4.252" cy="4.252" r="4.252" transform="translate(0 44.763)" fill="#f0efff"/>
      <circle id="Ellipse_696-3" data-name="Ellipse 696" cx="4.252" cy="4.252" r="4.252" transform="translate(0 59.704)" fill="#f0efff"/>
    </g>
    <g id="Group_482" data-name="Group 482" transform="translate(624.207 4263.288)">
      <circle id="Ellipse_672-4" data-name="Ellipse 672" cx="4.252" cy="4.252" r="4.252" fill="#f0efff"/>
      <circle id="Ellipse_687-4" data-name="Ellipse 687" cx="4.252" cy="4.252" r="4.252" transform="translate(0 29.882)" fill="#f0efff"/>
      <circle id="Ellipse_673-4" data-name="Ellipse 673" cx="4.252" cy="4.252" r="4.252" transform="translate(14.881)" fill="#f0efff"/>
      <circle id="Ellipse_688-4" data-name="Ellipse 688" cx="4.252" cy="4.252" r="4.252" transform="translate(14.881 29.882)" fill="#f0efff"/>
      <circle id="Ellipse_674-4" data-name="Ellipse 674" cx="4.252" cy="4.252" r="4.252" transform="translate(29.762)" fill="#f0efff"/>
      <circle id="Ellipse_689-4" data-name="Ellipse 689" cx="4.252" cy="4.252" r="4.252" transform="translate(29.762 29.882)" fill="#f0efff"/>
      <circle id="Ellipse_675-4" data-name="Ellipse 675" cx="4.252" cy="4.252" r="4.252" transform="translate(44.642)" fill="#f0efff"/>
      <circle id="Ellipse_690-4" data-name="Ellipse 690" cx="4.252" cy="4.252" r="4.252" transform="translate(44.642 29.882)" fill="#f0efff"/>
      <circle id="Ellipse_676-4" data-name="Ellipse 676" cx="4.252" cy="4.252" r="4.252" transform="translate(59.523)" fill="#f0efff"/>
      <circle id="Ellipse_691-4" data-name="Ellipse 691" cx="4.252" cy="4.252" r="4.252" transform="translate(59.523 29.882)" fill="#f0efff"/>
      <circle id="Ellipse_677-4" data-name="Ellipse 677" cx="4.252" cy="4.252" r="4.252" transform="translate(59.523 14.881)" fill="#f0efff"/>
      <circle id="Ellipse_682-4" data-name="Ellipse 682" cx="4.252" cy="4.252" r="4.252" transform="translate(59.523 44.763)" fill="#f0efff"/>
      <circle id="Ellipse_692-4" data-name="Ellipse 692" cx="4.252" cy="4.252" r="4.252" transform="translate(59.523 59.704)" fill="#f0efff"/>
      <circle id="Ellipse_678-4" data-name="Ellipse 678" cx="4.252" cy="4.252" r="4.252" transform="translate(44.642 14.881)" fill="#f0efff"/>
      <circle id="Ellipse_683-4" data-name="Ellipse 683" cx="4.252" cy="4.252" r="4.252" transform="translate(44.642 44.763)" fill="#f0efff"/>
      <circle id="Ellipse_693-4" data-name="Ellipse 693" cx="4.252" cy="4.252" r="4.252" transform="translate(44.642 59.704)" fill="#f0efff"/>
      <circle id="Ellipse_679-4" data-name="Ellipse 679" cx="4.252" cy="4.252" r="4.252" transform="translate(29.762 14.881)" fill="#f0efff"/>
      <circle id="Ellipse_684-4" data-name="Ellipse 684" cx="4.252" cy="4.252" r="4.252" transform="translate(29.762 44.763)" fill="#f0efff"/>
      <circle id="Ellipse_694-4" data-name="Ellipse 694" cx="4.252" cy="4.252" r="4.252" transform="translate(29.762 59.704)" fill="#f0efff"/>
      <circle id="Ellipse_680-4" data-name="Ellipse 680" cx="4.252" cy="4.252" r="4.252" transform="translate(14.881 14.881)" fill="#f0efff"/>
      <circle id="Ellipse_685-4" data-name="Ellipse 685" cx="4.252" cy="4.252" r="4.252" transform="translate(14.881 44.763)" fill="#f0efff"/>
      <circle id="Ellipse_695-4" data-name="Ellipse 695" cx="4.252" cy="4.252" r="4.252" transform="translate(14.881 59.704)" fill="#f0efff"/>
      <circle id="Ellipse_681-4" data-name="Ellipse 681" cx="4.252" cy="4.252" r="4.252" transform="translate(0 14.881)" fill="#f0efff"/>
      <circle id="Ellipse_686-4" data-name="Ellipse 686" cx="4.252" cy="4.252" r="4.252" transform="translate(0 44.763)" fill="#f0efff"/>
      <circle id="Ellipse_696-4" data-name="Ellipse 696" cx="4.252" cy="4.252" r="4.252" transform="translate(0 59.704)" fill="#f0efff"/>
    </g>
  </g>
</svg>
