<svg xmlns="http://www.w3.org/2000/svg" width="32.566" height="32.566" viewBox="0 0 32.566 32.566">
  <path id="send-icon" d="M26.175.02a.927.927,0,0,1,.4.95l-3.8,22.791a.935.935,0,0,1-.475.668.911.911,0,0,1-.46.119,1,1,0,0,1-.356-.074l-6.722-2.745-3.591,4.377a.874.874,0,0,1-.727.341.8.8,0,0,1-.326-.059A.95.95,0,0,1,9.5,25.5V20.319L22.317,4.605,6.455,18.331l-5.861-2.4a.939.939,0,0,1-.119-1.692L25.166-.009a.908.908,0,0,1,.475-.134A.921.921,0,0,1,26.175.02Z" transform="matrix(0.966, 0.259, -0.259, 0.966, 6.846, 0.138)" fill="#fff"/>
</svg>
