<svg xmlns="http://www.w3.org/2000/svg" width="37.003" height="33.1" viewBox="0 0 37.003 33.1">
  <g id="quote" opacity="0.16">
    <g id="Group_580" data-name="Group 580" transform="translate(0 0)">
      <g id="Group_579" data-name="Group 579" transform="translate(0 0)">
        <path id="Path_24780" data-name="Path 24780" d="M16.478,33.649a.723.723,0,0,0,.723-.723V30.614A3.618,3.618,0,0,0,13.587,27H3.614A3.618,3.618,0,0,0,0,30.614v8.672A3.618,3.618,0,0,0,3.614,42.9H8.289C8.124,48.3,6.076,51.1,2.04,51.472a.723.723,0,0,0-.657.72v7.186a.723.723,0,0,0,.723.723h.041c4.98-.28,8.782-1.994,11.3-5.094,2.491-3.068,3.755-7.55,3.755-13.323V39.093a.723.723,0,1,0-1.445,0v2.589c0,10.6-4.23,16.14-12.926,16.918v-5.77a7.222,7.222,0,0,0,5.059-3.047C9.12,48,9.745,45.44,9.745,42.176a.723.723,0,0,0-.723-.723H3.614a2.171,2.171,0,0,1-2.168-2.168V30.614a2.171,2.171,0,0,1,2.168-2.168h9.973a2.171,2.171,0,0,1,2.168,2.168v2.313A.723.723,0,0,0,16.478,33.649Z" transform="translate(0 -27)" fill="#0068a3"/>
      </g>
    </g>
    <g id="Group_582" data-name="Group 582" transform="translate(19.802 0)">
      <g id="Group_581" data-name="Group 581" transform="translate(0 0)">
        <path id="Path_24781" data-name="Path 24781" d="M287.587,27h-9.973A3.618,3.618,0,0,0,274,30.614v8.672a3.618,3.618,0,0,0,3.614,3.614h4.675c-.164,5.4-2.213,8.206-6.248,8.573a.723.723,0,0,0-.657.72v7.186a.723.723,0,0,0,.723.723h.041c4.98-.28,8.782-1.994,11.3-5.094,2.491-3.068,3.755-7.55,3.755-13.323V30.614A3.618,3.618,0,0,0,287.587,27Zm2.168,14.682c0,10.6-4.23,16.14-12.926,16.918v-5.77a7.221,7.221,0,0,0,5.059-3.047c1.232-1.784,1.857-4.344,1.857-7.608a.723.723,0,0,0-.723-.723h-5.409a2.171,2.171,0,0,1-2.168-2.168V30.614a2.171,2.171,0,0,1,2.168-2.168h8.672V33.8a.723.723,0,0,0,1.445,0V28.451a2.171,2.171,0,0,1,2.024,2.163Z" transform="translate(-274 -27)" fill="#0068a3"/>
      </g>
    </g>
    <g id="Group_584" data-name="Group 584" transform="translate(32.088 8.582)">
      <g id="Group_583" data-name="Group 583">
        <path id="Path_24782" data-name="Path 24782" d="M444.723,145.751a.724.724,0,1,0,.723.726v-.007A.72.72,0,0,0,444.723,145.751Z" transform="translate(-444 -145.751)" fill="#0068a3"/>
      </g>
    </g>
    <g id="Group_586" data-name="Group 586" transform="translate(15.755 8.287)">
      <g id="Group_585" data-name="Group 585" transform="translate(0 0)">
        <path id="Path_24783" data-name="Path 24783" d="M218.723,141.666a.723.723,0,0,0-.723.723v.015a.723.723,0,0,0,1.445,0v-.015A.723.723,0,0,0,218.723,141.666Z" transform="translate(-218 -141.666)" fill="#0068a3"/>
      </g>
    </g>
  </g>
</svg>
