<svg xmlns="http://www.w3.org/2000/svg" width="73.051" height="73.051" viewBox="0 0 73.051 73.051">
  <g id="twit-icon" transform="translate(-807 -6368.304)">
    <path id="Path_24779" data-name="Path 24779" d="M36.526,0A36.526,36.526,0,1,1,0,36.526,36.526,36.526,0,0,1,36.526,0Z" transform="translate(807 6368.304)" fill="#2b76ff"/>
    <g id="twitter" transform="translate(820.798 6386.973)">
      <g id="Group_499" data-name="Group 499" transform="translate(0 0)">
        <path id="Path_979" data-name="Path 979" d="M44.793,52.309a19.146,19.146,0,0,1-5.291,1.45,9.131,9.131,0,0,0,4.04-5.076,18.352,18.352,0,0,1-5.823,2.223,9.182,9.182,0,0,0-15.885,6.279,9.456,9.456,0,0,0,.213,2.094A25.993,25.993,0,0,1,3.119,49.674,9.185,9.185,0,0,0,5.941,61.947a9.069,9.069,0,0,1-4.149-1.131v.1A9.225,9.225,0,0,0,9.149,69.94a9.165,9.165,0,0,1-2.408.3A8.12,8.12,0,0,1,5,70.086a9.27,9.27,0,0,0,8.581,6.4A18.452,18.452,0,0,1,2.2,80.4,17.2,17.2,0,0,1,0,80.273a25.853,25.853,0,0,0,14.087,4.121c16.9,0,26.137-14,26.137-26.131,0-.406-.014-.8-.034-1.187A18.319,18.319,0,0,0,44.793,52.309Z" transform="translate(0 -48)" fill="#fff"/>
      </g>
    </g>
  </g>
</svg>
